<svg height="512" viewBox="0 0 32 32" width="512" xmlns="http://www.w3.org/2000/svg"><g id="_x32_0"><path fill="white" d="m22.1206055 20.2497559 4.8893433 2.4403076c1.7659301-1.5824585 2.901123-3.8442383 2.9900512-6.3729248z"/><path fill="white" d="m26.1483154 23.3782349-8.1536865-4.0695801v4.7974854l-1.00177-.6201172v-9.1765747l-4.9688721 2.4799805c.1606445 1.8336182.8873291 3.4980469 1.9860229 4.8501587l-9.1105956-5.6395875 9.0985107-5.6321411c-1.1863403 1.4664307-1.9272461 3.3032226-1.9979248 5.3154297l7.8806152-3.9333496-4.4929199-2.2423706 1.000061-.6190796 7.6176147 3.802002v-5.1654664c-.9417113-.3338013-1.9503783-.5250244-3.005371-.5250244-.6720581 0-1.3175049.0983887-1.9474487.2389526l5.4738159-3.3883667c.4697266-.2910156.6142578-.9072266.3242188-1.3769531-.2919922-.4697266-.9072266-.6152344-1.3769531-.3242188l-21 13c-.294922.1826173-.4736329.5039063-.4736329.850586s.1787109.6679688.4736328.8505859l21 13c.1640625.1015625.3457031.1494141.5253906.1494141.3349609 0 .6621094-.1679688.8515625-.4736328.2900391-.4697266.1455078-1.0859375-.3242188-1.3769531l-5.4429932-3.3693237c.6182863.1375732 1.2570192.2199096 1.9166261.2199096 1.9140015 0 3.6871338-.6026611 5.1483154-1.6217651z"/><path fill="white" d="m25.0071411 7.9495239v9.741394l4.9688721-2.4799805c-.2791748-3.1874999-2.229065-5.8968505-4.9688721-7.2614135z"/></g></svg>
