<svg xmlns="http://www.w3.org/2000/svg" xmlns:xlink="http://www.w3.org/1999/xlink" viewBox="0 0 266.95 119.88"><defs><style>.cls-1{fill:url(#Áåçûìÿííûé_ãðàäèåíò_575);}.cls-2{fill:url(#Áåçûìÿííûé_ãðàäèåíò_575-2);}.cls-3{fill:url(#Áåçûìÿííûé_ãðàäèåíò_575-3);}.cls-4{fill:url(#Áåçûìÿííûé_ãðàäèåíò_575-4);}.cls-5{isolation:isolate;}.cls-6{fill:#282828;}.cls-7{fill:#637079;}.cls-8{fill:#3b464e;}.cls-9{fill:#7c4124;}.cls-10{fill:#aaa;}.cls-11{fill:#ebebec;}.cls-12{fill:#03324c;}.cls-13{fill:#03224c;}.cls-14{mask:url(#mask);}.cls-15{fill:#7777ef;}.cls-16{fill:#a550d3;}.cls-17{fill:url(#Áåçûìÿííûé_ãðàäèåíò_578);}.cls-18{fill:#fabcff;opacity:0.6;}.cls-18,.cls-20,.cls-21,.cls-22,.cls-23{mix-blend-mode:screen;}.cls-19{fill:#abffff;}.cls-20{fill:#c2f7ff;opacity:0.8;}.cls-21,.cls-22,.cls-23,.cls-24,.cls-29{fill:#fff;}.cls-21{opacity:0.2;}.cls-22{opacity:0.25;}.cls-23{opacity:0.1;}.cls-25{fill:#ffe436;}.cls-26{fill:#f4f4f4;}.cls-27{fill:#fcfcfc;}.cls-28{fill:#e2e2e2;}.cls-29{font-size:26px;font-family:Oswald-Bold, Oswald;font-weight:700;}</style><linearGradient id="Áåçûìÿííûé_ãðàäèåíò_575" x1="140.34" y1="108.97" x2="140.34" y2="97.97" gradientUnits="userSpaceOnUse"><stop offset="0" stop-color="#fff"/><stop offset="0.37" stop-color="#fdfdfd"/><stop offset="0.5" stop-color="#f6f6f6"/><stop offset="0.6" stop-color="#ebebeb"/><stop offset="0.67" stop-color="#dadada"/><stop offset="0.74" stop-color="#c4c4c4"/><stop offset="0.8" stop-color="#a8a8a8"/><stop offset="0.85" stop-color="#888"/><stop offset="0.9" stop-color="#646464"/><stop offset="0.93" stop-color="#4a4a4a"/><stop offset="1"/></linearGradient><linearGradient id="Áåçûìÿííûé_ãðàäèåíò_575-2" x1="155.01" y1="108.97" x2="155.01" y2="97.97" xlink:href="#Áåçûìÿííûé_ãðàäèåíò_575"/><linearGradient id="Áåçûìÿííûé_ãðàäèåíò_575-3" x1="146.16" y1="108.97" x2="146.16" y2="97.97" xlink:href="#Áåçûìÿííûé_ãðàäèåíò_575"/><linearGradient id="Áåçûìÿííûé_ãðàäèåíò_575-4" x1="143.79" y1="108.97" x2="143.79" y2="97.97" xlink:href="#Áåçûìÿííûé_ãðàäèåíò_575"/><mask id="mask" x="132.88" y="97.88" width="24" height="11.06" maskUnits="userSpaceOnUse"><path class="cls-1" d="M146.26,108.94l-.21,0h0c-.66-.11-2.45-.51-2.45-1.53,0-1.25,4.61-2.08,4.17-3.25s-12.93,1.38-14.89-3.07v2.76s.8,1,3.64,1.16c5.52.26,9.27-1.16,9.43-.41s-3.36,1.62-3.16,3.06c.16,1.18,2.41,1.3,3.21,1.31h.26Z"/><path class="cls-2" d="M156.74,103.45a2.61,2.61,0,0,1-.85,2.11,6.58,6.58,0,0,1-2.76,1.2,4.9,4.9,0,0,0,3.07-1A2.08,2.08,0,0,0,156.74,103.45Z"/><path class="cls-3" d="M148.22,107.17c2.27-.26,5.37-.49,7-1.52h0a2.48,2.48,0,0,0,.26-.19h0l.06,0h0l.05,0h0l.15-.14,0,0,0,0v0l0,0,0,0,0,0h0a.61.61,0,0,1,.07-.1v0l0,0,0,0,0,0,0,0,0,0,0,0,0-.06,0,0,0,0v0l0,0v-.07l0,0v0s0,0,0-.07V104a.25.25,0,0,0,0-.08v-.23a.13.13,0,0,0,0-.06v0s0-.06,0-.1v0a.22.22,0,0,0,0-.08v-.13s0,0,0-.08v0l0-.1v0a.36.36,0,0,0,0-.09v0l0-.07v0l0-.08,0,0a1.17,1.17,0,0,1-.05-.11l-.21-.41-.24-.36a3,3,0,0,0-.27-.33l-.24-.25h0l.19.18s-1.67-2.23-5.61-1.93-7.46,2-8.92,1c-1.06-.72-.58-2.56-.58-2.56H139s-.37,3,2.19,3.21a7,7,0,0,0,.79,0h.36l.22,0h.07l.28,0h0l.11,0h.12l.12,0h.11l.13,0,.11,0,.23,0h.1l.13,0h.1l.14,0,.09,0,.15,0h0l.37-.08h0l.18,0h0l1.74-.39h0l.24-.05h.05l.22,0h.05l.26,0h0l.23,0h.07l.19,0,.08,0,.21,0h0l.26,0h.06l.19,0h.09l.18,0h.07l.26,0,.26,0h1.79l.12,0H152l.13,0h.08l.13,0h.07l.18,0h0l.17,0,.08,0,.11,0,.08,0,.09,0,.09,0,.08,0,.09,0,.08,0,.08,0,.07,0,.09,0,.06,0h0a3.39,3.39,0,0,0-.51-.17,6.48,6.48,0,0,0-1.42-.23l-.7,0a25.91,25.91,0,0,0-4.87.68l-.25.05-1.92.4c-.54.11-1.07.2-1.56.27l-.19,0h-.17a5,5,0,0,1-1.5-.08c-2.54-.58-2.23-3.43-2.23-3.43H136c.36,3.58,4.49,4.53,6.92,4.4,3.32-.19,9.79-1.46,10.6,1s-5.25,2.79-7.64,3.84c-2.11.92.45,1.85.45,1.85-.68-.45-.9-.77-.8-1s1-.55,2.25-.7c-.69.11-1.8.34-2,.73s.57,1,.57,1-.49-.53-.14-1A5.47,5.47,0,0,1,148.22,107.17Z"/><path class="cls-4" d="M141,102.54c4,.43,10.38-.32,10.71,1.09.37,1.59-5.43,2.36-6.51,3.13s-.39,1.12-.39,1.12c-.53-.89,2-1.39,4.41-2,1.91-.52,3.72-1.07,3.88-2.06a1,1,0,0,0-.08-.58c-.27-.64-1-1-2-1.07h-.12a12.78,12.78,0,0,0-1.88,0h-.19l-1.44.09a33.65,33.65,0,0,1-6.39.18c-5-.61-5.61-4.48-5.61-4.48h-.88C134.46,98.46,135.15,101.91,141,102.54Z"/></mask><linearGradient id="Áåçûìÿííûé_ãðàäèåíò_578" x1="148.02" y1="107.5" x2="144.85" y2="96.11" gradientUnits="userSpaceOnUse"><stop offset="0" stop-color="#47defc"/><stop offset="0.08" stop-color="#49d9fc"/><stop offset="0.18" stop-color="#4eccfa"/><stop offset="0.28" stop-color="#58b5f8"/><stop offset="0.38" stop-color="#6596f4"/><stop offset="0.49" stop-color="#756ef0"/><stop offset="0.57" stop-color="#844aec"/><stop offset="0.67" stop-color="#8b4aec"/><stop offset="0.81" stop-color="#9f4aec"/><stop offset="0.99" stop-color="#c04aec"/><stop offset="1" stop-color="#c24aec"/></linearGradient></defs><title>Fichier 5</title><g class="cls-5"><g id="Calque_2" data-name="Calque 2"><g id="Logo_1"><g id="APN_aurore" data-name="APN + aurore"><path class="cls-6" d="M135.35,48.79c-1.57.06-3.25,0-4.81-.08-1.75-.09-3.5.18-5.24.24a16.3,16.3,0,0,0-5.73.9c-2,.9-2.64,2.64-3.66,4.42a9.12,9.12,0,0,1-1,1.6A4.55,4.55,0,0,1,112.78,57c-3.55,1-7.12,1.11-10.77,1.55-2.52.3-5,.37-6.14,3a24.6,24.6,0,0,0-1.8,8c-.31,4-.47,8.09-.47,12.13,0,4.8-.25,9.64.08,14.44.1,1.36.24,3.71,1.33,4.68a5,5,0,0,0,2.2.77,19.36,19.36,0,0,0,3.21.62c3,.29,6.13.27,9.19.38,3.67.14,7.39.25,11.07.14,2-.07,4.4.66,6.39.22,1.3-.29,1-2,1-3.18a26.45,26.45,0,0,0-1-5.79c-.35-1.59-.61-4.08.52-5.39,1.48-1.75,4.58-1.5,6.64-1.6,4.72-.24,9.44-.65,14.16-.94,1.93-.12,3.87-.32,5.81-.37a4.63,4.63,0,0,1,2.42.52c.79.54.72,1.69.7,2.54,0,2.07.76,4,.8,6a8.41,8.41,0,0,0,2.26,5.37c1.25,1.21,3.77,1.93,5.07.41A8.42,8.42,0,0,0,166.78,97a30,30,0,0,0,.5-5.43c.12-3.43-.05-6.85-.12-10.27-.15-6.11.71-12.45-.4-18.51-.4-2.21-2.3-3.09-4.29-3.71-5.06-1.59-10.63.71-15.6-1.48a14.61,14.61,0,0,1-4-2.24,14.86,14.86,0,0,1-2.73-4.22C139.05,49,137,49,135.35,48.79Z"/><path class="cls-6" d="M155.69,48.79c-1.19,0-2.38-.06-3.56-.07s-2.78-.29-3.8.36c-1.53,1-2.38,3.91-.85,5.1a7,7,0,0,0,3.59,1.15c2,.23,4,.41,6,.46,1.28,0,3.09.34,4.19-.49.95-.73.84-2.12.77-3.23a3.47,3.47,0,0,0-1.57-3A7.47,7.47,0,0,0,155.69,48.79Z"/><path class="cls-6" d="M105.74,48.05c-1.45-.14-3,.19-4.52.2-1,0-2.29-.3-3.18.11-1.09.5-.68,2-.63,3,0,.78,0,2.2.59,2.81s2.71.78,3.67.93a25.29,25.29,0,0,0,5.57.13c2.63-.18,3.6-1.24,3.83-3.89.11-1.22.16-2.27-1.11-2.71A10,10,0,0,0,105.74,48.05Z"/><path class="cls-7" d="M150.22,55.92a4.39,4.39,0,0,0-.14,1.61c.2.84,1.19.65,1.9.71a39.22,39.22,0,0,0,4.32.42c.66,0,1.47.08,1.94-.34s1-1.92.29-2.32a7.68,7.68,0,0,0-2.37-.21c-.92-.08-1.85-.15-2.77-.2C152.31,55.53,150.42,54.85,150.22,55.92Z"/><path class="cls-7" d="M104,55.12c-1,.35-2.68-.38-3.57.34-.49.39-.37,1.63-.17,2.2s.5.66,1.23.67c1.39,0,2.77-.34,4.16-.4s2.38,0,2.14-1.61c-.09-.63-.2-.93-.88-1.08a3.72,3.72,0,0,0-1.2,0A7.88,7.88,0,0,1,104,55.12Z"/><path class="cls-6" d="M123.88,67.66a32,32,0,0,0-3.51,1.77,14.51,14.51,0,0,0-3.18,3A14.66,14.66,0,0,0,114,81.37c-.16,3.54.26,7.51,2.48,10.4,1.59,2.06,4.33,3.32,6.7,4.22a7,7,0,0,0,2.86.55c1.45-.12,1.1-1.9,1-3-.17-1.66-.62-3.33.06-5s2.07-1.32,3.52-1.28c2.7.08,5.58-.21,8.28-.4a17.68,17.68,0,0,0,4.09-.83c2.42-.77,2.64-4.26,2.46-6.43a15.39,15.39,0,0,0-2.77-6.53,13.5,13.5,0,0,0-5.88-4.59A18.06,18.06,0,0,0,129,66.66,16.11,16.11,0,0,0,123.88,67.66Z"/><path class="cls-8" d="M121.94,72.73c-1.36.81-2.4,2.86-3.07,4.3a13,13,0,0,0,3.27,14.51,5.38,5.38,0,0,0,2.19,1.4,3.88,3.88,0,0,0,2,.2c1.28-.61.63-3.51,1-4.56.45-1.23,2.94-1.28,4-1.38,2.71-.24,6.69,1,8.18-1.93a10.23,10.23,0,0,0-.2-8.62,11.74,11.74,0,0,0-8.68-5.92,16.57,16.57,0,0,0-5.07.18A11.12,11.12,0,0,0,121.94,72.73Z"/><path class="cls-9" d="M119.14,70.13c-1.6,1.89-3.43,3.71-4.35,6.1-1.11,2.86-1,5.94-.66,8.92a19.06,19.06,0,0,0,.81,3.8c.32,1,1.13,2,1.36,3,.26,1.19-.92,1-1.79.85a31.86,31.86,0,0,0-5.26,0,84,84,0,0,1-10.63-.55c-1.31-.12-2.65-.07-3.94-.3-1-.18-.87-.44-1-1.45-.56-3.64-.19-7.49,0-11.17.09-2.11.08-4.23.17-6.35,0-1-.4-3,.68-3.52a3.63,3.63,0,0,1,1.64,0c1.39.12,2.76.14,4.15.14,3.09,0,6.15-.29,9.24-.07,2.58.18,5.15-.15,7.71-.07C117.55,69.47,120.08,69.61,119.14,70.13Z"/><path class="cls-9" d="M141.28,70.2c4.22,0,8.4,0,12.62.06,2.2,0,4.41.2,6.61.2,1.66,0,3.33-.14,5-.06.84,0,1.14,0,1.4.76a13.88,13.88,0,0,1,.53,4.26,98.64,98.64,0,0,1-.52,11.4c-.18,1.53-.21,3.08-.35,4.61-.06.73.07,1.65-.73,1.89a11.39,11.39,0,0,1-2.67,0c-1.41,0-2.81.19-4.22.13A1.6,1.6,0,0,1,157.18,92a24.88,24.88,0,0,1-.76-4.39c-.18-1.53,0-2.58-1.8-2.57-3,0-6,.69-9,.85-2,.11-.85-1-.51-2.25a8.65,8.65,0,0,0,.32-3.94,16.27,16.27,0,0,0-2.2-5.24,17.63,17.63,0,0,0-1.73-2.29c-.28-.3-.87-.77-.92-1.2C140.51,70.41,141,70.27,141.28,70.2Z"/><path class="cls-10" d="M130.08,53.26a14.16,14.16,0,0,0-2.53-.13,11.34,11.34,0,0,0-2.18,0A5.15,5.15,0,0,0,122,54.53c-.39.44-.85.79-1.24,1.21a8.77,8.77,0,0,0-1.06,1.65c-.48.86-1.32,2.31-.53,3.25,1.17,1.4,3.93,1.09,5.48,1.15,3,.11,5.94.3,8.9.44a10.28,10.28,0,0,0,4.81-.52c1.23-.6,1-1.55.62-2.7a18.66,18.66,0,0,0-2.54-4.55,2.2,2.2,0,0,0-2-1.13A16.62,16.62,0,0,0,130.08,53.26Z"/><path class="cls-10" d="M106.81,61.53c-1.55.29-3.32-.06-4.87.41-1.14.35-1.64,3-.6,3.77.51.38,1.67.21,2.32.27a23.3,23.3,0,0,1,3.11.45c1.58.34,4.27.94,4.64-1.14.17-1,.29-2.56-.59-3.25S107.82,61.47,106.81,61.53Z"/><path class="cls-10" d="M153.29,62.39c-1.56,0-3.92-.54-5.22.52a2.36,2.36,0,0,0-.78,2c-.06,1.17.24,1.48,1.33,1.79a19.13,19.13,0,0,0,4.47.47,34.66,34.66,0,0,0,4.67,0c.73-.07,1.61,0,2.08-.65a3.15,3.15,0,0,0,.38-2.29c-.16-1.14-.61-1.42-1.79-1.6C156.73,62.34,155,62.5,153.29,62.39Z"/><path class="cls-10" d="M107.14,95.2c-.48-.13-.83,1.38-.66,1.83a1.72,1.72,0,0,0,1.34,1,1.5,1.5,0,0,0,1.27-2.52C108.58,94.87,107.92,94.92,107.14,95.2Z"/><path class="cls-11" d="M127.55,98.34a49.45,49.45,0,0,0,2.4,8.53,30.14,30.14,0,0,0,4.52,8.92,6.76,6.76,0,0,0,4.71,2.95c5.31.29,10.62-1.15,15.84-1.86,3.11-.43,6.24-.73,9.3-1.42a10.11,10.11,0,0,0,2.73-.87,2.68,2.68,0,0,0,1-.8c.13-.28,0-.58.17-.76-1.83-3.31-3.79-6.56-5.92-9.67a46.36,46.36,0,0,1-3-4.81A24.88,24.88,0,0,1,157,87.13c0-1.44-.54-1.8-1.91-1.8-2.7,0-5.39.14-8.08.14a97.45,97.45,0,0,0-10.9,1.11c-2.37.26-4.76.38-7.13.62-1.76.18-1.76,2-1.85,3.48A25.09,25.09,0,0,0,127.55,98.34Z"/><path class="cls-12" d="M147.09,90.27a34,34,0,0,0-4,.47c-1.48.08-3,.19-4.47.13a39.27,39.27,0,0,0-4.06,0,7.24,7.24,0,0,0-2.33.2c-.81.4-.74,1.48-.78,2.28a14.55,14.55,0,0,0,.43,3.52c.24,1.27.6,2.53.78,3.82a33.51,33.51,0,0,0,.67,4.55,24,24,0,0,0,3.4,7.24c1.6,2.23,4.44,1.93,6.87,1.71,5-.45,10-.86,14.9-1.65,1-.16,2.63-.18,3.12-1.26s-.79-2.75-1.3-3.67a47.71,47.71,0,0,0-4.11-5.53A14.33,14.33,0,0,1,154,96.84a14.73,14.73,0,0,1-.4-3.86,12.64,12.64,0,0,0,0-2.75c-.31-1.27-2.71-.32-3.66-.18C148.83,90.23,147.71,90.2,147.09,90.27Z"/><path class="cls-13" d="M149.22,101.94a7.23,7.23,0,0,1-4.13.53,19.1,19.1,0,0,0-5,0c-1.65.25-3.41.2-5.06.38-.38,0-1.64,0-1.87.31-.48.62.48,2.64.73,3.24a24.43,24.43,0,0,0,1.47,3.1c.56.93.74.78,1.6.18a16.1,16.1,0,0,1,2.94-1.46,16.71,16.71,0,0,0,3.06-1.89,2.1,2.1,0,0,1,2.5-.23c1.33.52,2.64,1,4,1.48a29.81,29.81,0,0,0,5.14.94,19.56,19.56,0,0,0,4.5.48c1.72-.17.67-1.29.17-2.44-.74-1.73-2.07-3-3.16-4.49-.6-.83-.78-.86-1.78-.81a23.75,23.75,0,0,0-3.68.33A5.13,5.13,0,0,0,149.22,101.94Z"/><g class="cls-14"><g id="Aurores"><path class="cls-15" d="M146.29,108.94s-2.69-.31-2.69-1.56,4.61-2.08,4.17-3.25-12.93,1.38-14.89-3.07v2.76s.8,1,3.64,1.16c5.52.26,9.27-1.16,9.43-.41s-3.36,1.62-3.16,3.06S146.29,108.94,146.29,108.94Z"/><path class="cls-16" d="M139,97.88s-.37,3,2.19,3.21,5.56-1,8.53-1.29,4.83.81,5.54,1.57c0,0-1.67-2.23-5.61-1.93s-7.46,2-8.92,1c-1.06-.72-.58-2.56-.58-2.56Z"/><path class="cls-16" d="M156.74,103.45a2.61,2.61,0,0,1-.85,2.11,6.58,6.58,0,0,1-2.76,1.2,4.9,4.9,0,0,0,3.07-1A2.08,2.08,0,0,0,156.74,103.45Z"/><path class="cls-17" d="M146.29,108.94s-2.56-.93-.45-1.85c2.39-1,8.45-1.42,7.64-3.84s-7.28-1.16-10.6-1c-2.43.13-6.56-.82-6.92-4.4h2.47s-.45,4.09,4.09,3.47S153.92,98,156,102.54c2.49,5.37-9.93,3.93-10.55,5.39C145.39,108.17,145.61,108.49,146.29,108.94Z"/><path class="cls-18" d="M142.52,101.35a5.16,5.16,0,0,1-2.23-.13s.58.54,2.73.21,9-2.12,11.39-.3c2.54,1.94,1.86,4.33-.89,5.22,2.1-.58,3.52-1.64,2.52-3.81C153.92,98,147.06,100.73,142.52,101.35Z"/><path class="cls-19" d="M146.29,108.94s-.77-.61-.57-1c.32-.58,2.58-.81,2.58-.81a6,6,0,0,0-2.15.84C145.8,108.41,146.29,108.94,146.29,108.94Z"/><path class="cls-20" d="M135.38,97.88s.58,3.87,5.61,4.48c4.45.55,10.94-1.48,12,.84,1.21,2.67-9.23,3-8.21,4.68,0,0-.69-.36.39-1.12s6.88-1.54,6.51-3.13c-.33-1.41-6.74-.66-10.71-1.09-5.82-.63-6.51-4.08-6.47-4.66Z"/><path class="cls-16" d="M146.32,102.28s5.63-.51,6.31,1c.5,1.12-2.11,2.13-3.46,2.57,2.26-.61,4.39-1.26,3.82-2.64S149.74,102,146.32,102.28Z"/><path class="cls-21" d="M133.23,102.86a5.7,5.7,0,0,0,1,.63,7.73,7.73,0,0,0,1.5.52c.29.07.58.12.89.17l1,.13c.66.06,1.35.1,2.08.11s1.46,0,2.22,0,1.51-.09,2.28-.15l1.14-.08c.38,0,.75,0,1.12,0a2.86,2.86,0,0,1,.53.06.37.37,0,0,1,.2.08s0,0,0,0h0s0,0,0,0a.47.47,0,0,1-.12.16l-.2.15c-.14.1-.29.18-.44.27-.61.34-1.23.63-1.79,1a6.27,6.27,0,0,0-.77.55,2.36,2.36,0,0,0-.32.31,1.25,1.25,0,0,0-.23.38.8.8,0,0,0-.05.21v.11s0,.07,0,.1a1,1,0,0,0,.17.37,1.69,1.69,0,0,0,.58.46,3.33,3.33,0,0,0,.6.25,5.44,5.44,0,0,0,.54.14l.47.09.31,0h0a7.65,7.65,0,0,1-.76-.17,4.67,4.67,0,0,1-1.1-.42,1.67,1.67,0,0,1-.52-.44.7.7,0,0,1-.09-.67,1,1,0,0,1,.21-.33,2.76,2.76,0,0,1,.3-.29,6.42,6.42,0,0,1,.77-.51l.87-.47c.3-.15.62-.3.93-.47l.46-.28.23-.17a.52.52,0,0,0,.1-.11.38.38,0,0,0,.09-.15.16.16,0,0,0,0-.1v0h0v0h0a.4.4,0,0,0-.12-.16,1.09,1.09,0,0,0-.3-.13,2.41,2.41,0,0,0-.59-.06c-.38,0-.77,0-1.15,0l-1.14.08-2.28.15c-.75,0-1.49,0-2.2,0s-1.4-.05-2-.12a12.68,12.68,0,0,1-1.8-.31,6.77,6.77,0,0,1-.76-.25,5.72,5.72,0,0,1-.65-.29,5.38,5.38,0,0,1-.95-.63,3,3,0,0,1-.48-.51,1.94,1.94,0,0,1-.13-.18v.67A2.72,2.72,0,0,0,133.23,102.86Z"/><path class="cls-21" d="M146,108.92l-.3,0-.42,0a6.38,6.38,0,0,1-1.12-.23,3.76,3.76,0,0,1-.65-.25,2,2,0,0,1-.3-.21.8.8,0,0,1-.23-.29.86.86,0,0,1,.05-.76,2.1,2.1,0,0,1,.56-.64,10.56,10.56,0,0,1,1.64-1c.3-.16.6-.31.89-.5l.21-.16a.6.6,0,0,0,.16-.19.28.28,0,0,0,0-.12.14.14,0,0,0-.06-.12.55.55,0,0,0-.25-.1,4.87,4.87,0,0,0-.54,0l-.54,0-1.09.11c-.72.09-1.44.18-2.15.25s-1.42.14-2.1.18a20.53,20.53,0,0,1-3.72-.06,7.09,7.09,0,0,1-1.45-.31,6.92,6.92,0,0,1-1.05-.42c-.27-.15-.48-.28-.61-.37l-.08-.06v.07l0,0a4.65,4.65,0,0,0,.63.38,8,8,0,0,0,1,.43,8.16,8.16,0,0,0,1.46.3,19.84,19.84,0,0,0,3.73,0c.68,0,1.39-.1,2.1-.18l2.16-.25q.54-.08,1.08-.12l.54,0a3.25,3.25,0,0,1,.54,0,.57.57,0,0,1,.24.09.16.16,0,0,1,.05.11.2.2,0,0,1,0,.11.75.75,0,0,1-.17.19l-.2.15a8.74,8.74,0,0,1-.89.5,10.11,10.11,0,0,0-1.64,1,2.09,2.09,0,0,0-.58.65.9.9,0,0,0-.05.78.86.86,0,0,0,.23.3,2,2,0,0,0,.31.22,4.51,4.51,0,0,0,.66.26,7.45,7.45,0,0,0,1.12.23c.25,0,.45.06.61.07s.33,0,.39,0h0Z"/><path class="cls-21" d="M146.26,108.94h0l-.21,0h0Z"/><path class="cls-21" d="M145.69,108.88l.3,0,.27,0-.24,0h0Z"/><path class="cls-21" d="M145.69,108.88l.3,0,.27,0-.24,0h0Z"/><path class="cls-22" d="M146.2,108.89h0s.06,0,.08,0h0l-.09,0-.12-.06-.11-.07-.06,0-.3-.22a1.29,1.29,0,0,1-.17-.16l0,0a1.08,1.08,0,0,1-.18-.23.4.4,0,0,1,0-.3.29.29,0,0,1,.08-.14.86.86,0,0,1,.14-.13,3.13,3.13,0,0,1,.75-.42,14.17,14.17,0,0,1,2-.56l1.19-.24c.41-.09.83-.17,1.26-.28a11.32,11.32,0,0,0,1.31-.38,4.68,4.68,0,0,0,1.26-.64,1.87,1.87,0,0,0,.48-.53,1.48,1.48,0,0,0,.22-.67,2.17,2.17,0,0,0,0-.36c0-.12,0-.23-.07-.35a1.88,1.88,0,0,0-.37-.64,2.3,2.3,0,0,0-.61-.45,3.73,3.73,0,0,0-.73-.26,8.14,8.14,0,0,0-1.55-.21q-.78,0-1.56,0c-.52,0-1,.06-1.54.1-1,.07-2,.18-3,.25L143,102l-.69,0c-.23,0-.45,0-.67,0a7.6,7.6,0,0,1-2.42-.48,5,5,0,0,1-1.72-1.1,4.71,4.71,0,0,1-.89-1.25,4,4,0,0,1-.33-.92c0-.11,0-.2,0-.25a.44.44,0,0,1,0-.09h0a.45.45,0,0,0,0,.08l.05.26a5.65,5.65,0,0,0,.33.93,5,5,0,0,0,.89,1.28,4.8,4.8,0,0,0,.75.63,5,5,0,0,0,1,.53l.56.2a5.25,5.25,0,0,0,.6.16l.31.06.33,0q.31,0,.66.06c.22,0,.45,0,.68,0h.7l1.43-.09,3-.27c.51,0,1-.08,1.54-.1s1,0,1.54,0a7.81,7.81,0,0,1,1.53.19,3.75,3.75,0,0,1,.71.25,2.06,2.06,0,0,1,.58.42,1.6,1.6,0,0,1,.35.6,2.09,2.09,0,0,1,.08.34,2,2,0,0,1,0,.34,1.3,1.3,0,0,1-.2.64,1.72,1.72,0,0,1-.46.51,4.4,4.4,0,0,1-1.23.65,10.63,10.63,0,0,1-1.3.38c-.86.21-1.69.36-2.45.52a11.94,11.94,0,0,0-2,.56,2.77,2.77,0,0,0-.76.42l-.15.14a.48.48,0,0,0-.1.17.54.54,0,0,0,0,.18.46.46,0,0,0,.07.16,1.33,1.33,0,0,0,.41.41l.37.24.33.16-.08,0Z"/><path class="cls-22" d="M145.6,108.51l.06,0-.06,0,0,0-.06-.06Z"/><path class="cls-22" d="M145.82,108.67l.09.06-.2-.15-.09-.07,0,0h0Z"/><path class="cls-23" d="M136.9,98c0,.06,0,.15,0,.26a4.32,4.32,0,0,0,.24,1,3.75,3.75,0,0,0,.86,1.3,4,4,0,0,0,.78.6,5,5,0,0,0,1,.45,8.15,8.15,0,0,0,2.49.35c.9,0,1.84-.09,2.81-.18s2-.21,3-.29c.51,0,1-.07,1.55-.09a13.55,13.55,0,0,1,1.56,0,5.22,5.22,0,0,1,1.51.32,2.82,2.82,0,0,1,.66.36,1.81,1.81,0,0,1,.5.53,2.16,2.16,0,0,1,.26.65c0,.11,0,.23.05.34a2,2,0,0,1,0,.35,1.53,1.53,0,0,1-.25.64,2.07,2.07,0,0,1-.48.5,4.87,4.87,0,0,1-1.23.66,11.49,11.49,0,0,1-1.31.4c-.86.22-1.7.37-2.46.52a20.51,20.51,0,0,0-2.08.46,3.52,3.52,0,0,0-.81.34.87.87,0,0,0-.27.27.44.44,0,0,0-.06.16.29.29,0,0,0,0,.16.58.58,0,0,0,.14.27l0,0,.06.05-.08-.08a.89.89,0,0,1-.15-.27.43.43,0,0,1,0-.16.35.35,0,0,1,.06-.16.82.82,0,0,1,.27-.25,3.13,3.13,0,0,1,.81-.34c.6-.17,1.31-.3,2.08-.44s1.6-.29,2.47-.51a9.78,9.78,0,0,0,1.31-.4,4.69,4.69,0,0,0,1.25-.66,2.24,2.24,0,0,0,.5-.52,1.61,1.61,0,0,0,.25-.66,1.45,1.45,0,0,0,0-.36c0-.12,0-.24-.05-.35a2.38,2.38,0,0,0-.28-.68,2.17,2.17,0,0,0-.51-.54,3,3,0,0,0-.68-.36,5.35,5.35,0,0,0-1.53-.32,11.61,11.61,0,0,0-1.56,0c-.52,0-1,0-1.55.09-1,.08-2,.2-3,.3s-1.92.18-2.81.18a9.08,9.08,0,0,1-1.3-.08,6.8,6.8,0,0,1-1.18-.27,4.9,4.9,0,0,1-1-.45,3.74,3.74,0,0,1-1.6-1.89,4,4,0,0,1-.21-1c0-.12,0-.2,0-.26v-.08h-.1Z"/><path class="cls-22" d="M145.94,108.75l0,0-.09-.06Z"/><path class="cls-23" d="M145.94,108.75l0,0-.09-.06Z"/><path class="cls-22" d="M145.6,108.51l-.11-.11-.06-.05a1.29,1.29,0,0,0,.17.16l.3.22-.24-.18Z"/><path class="cls-23" d="M145.6,108.51l-.11-.11-.06-.05a1.29,1.29,0,0,0,.17.16l.3.22-.24-.18Z"/><path class="cls-23" d="M137.56,98.24a4.32,4.32,0,0,0,.23,1,3.78,3.78,0,0,0,.3.66,3.82,3.82,0,0,0,.51.69,3.52,3.52,0,0,0,.78.61,4.19,4.19,0,0,0,1,.42,5.88,5.88,0,0,0,1.22.17q.65,0,1.32,0l1.39-.1,1.45-.13c1-.1,2-.2,3-.26q.78,0,1.56,0a11.43,11.43,0,0,1,1.55.12,4.88,4.88,0,0,1,1.43.45,3,3,0,0,1,.57.42,2,2,0,0,1,.39.56,2.38,2.38,0,0,1,.2.64v.32a1.13,1.13,0,0,1-.05.32,1.85,1.85,0,0,1-.78,1,5.79,5.79,0,0,1-1.23.65,13.17,13.17,0,0,1-1.3.43c-.86.25-1.69.43-2.46.59l-1.11.23-1,.24a4.71,4.71,0,0,0-.85.28,1.08,1.08,0,0,0-.33.2.36.36,0,0,0-.11.14.3.3,0,0,0,0,.16.56.56,0,0,0,.1.29l.14.16,0,0a1.54,1.54,0,0,1-.17-.19.57.57,0,0,1-.11-.29.45.45,0,0,1,0-.16,1.34,1.34,0,0,1,.11-.14,1.52,1.52,0,0,1,.33-.2,4.72,4.72,0,0,1,.85-.26c.31-.08.65-.14,1-.21l1.12-.19c.78-.13,1.62-.26,2.51-.47a11.85,11.85,0,0,0,1.34-.39c.23-.08.45-.17.68-.27a6,6,0,0,0,.65-.37,3,3,0,0,0,.57-.51,1.78,1.78,0,0,0,.37-.69,2.32,2.32,0,0,0,.06-.38,1.34,1.34,0,0,0,0-.2v-.07h0v-.11a2.39,2.39,0,0,0-.23-.73,2.26,2.26,0,0,0-.46-.65,2.92,2.92,0,0,0-.67-.48,4.68,4.68,0,0,0-1.55-.45,9.54,9.54,0,0,0-1.6-.09c-.53,0-1.06,0-1.57.08-1,.1-2,.23-3,.36l-1.45.17c-.47,0-.93.1-1.38.12a11.7,11.7,0,0,1-1.32,0,4.21,4.21,0,0,1-.62,0,5.15,5.15,0,0,1-.59-.11,4.19,4.19,0,0,1-1-.42,3.7,3.7,0,0,1-.77-.61,3.74,3.74,0,0,1-.5-.69,4.9,4.9,0,0,1-.28-.65,4.49,4.49,0,0,1-.2-1c0-.11,0-.2,0-.26a.31.31,0,0,1,0-.09h-.1V98C137.54,98,137.54,98.12,137.56,98.24Z"/><path class="cls-22" d="M146.29,108.94h0Z"/><path class="cls-23" d="M146.29,108.94h0Z"/><path class="cls-22" d="M146,108.76l-.06,0,.06,0,.11.07-.06,0Z"/><path class="cls-23" d="M146,108.76l-.06,0,.06,0,.11.07-.06,0Z"/><path class="cls-22" d="M145.66,108.55a.83.83,0,0,0,.16.12l-.22-.17h0l0,0,0,0Z"/><path class="cls-23" d="M145.66,108.55a.83.83,0,0,0,.16.12l-.22-.17h0l0,0,0,0Z"/><path class="cls-22" d="M146,108.79l-.07,0h0l-.12-.08a.83.83,0,0,1-.16-.12l.24.18.06,0Z"/><path class="cls-23" d="M146,108.79l-.07,0h0l-.12-.08a.83.83,0,0,1-.16-.12l.24.18.06,0Z"/><path class="cls-23" d="M146,108.79l-.07,0h0l-.12-.08a.83.83,0,0,1-.16-.12l.24.18.06,0Z"/><path class="cls-22" d="M138,98c0,.06,0,.16,0,.28a4.2,4.2,0,0,0,0,.44,3.83,3.83,0,0,0,.14.59,3.14,3.14,0,0,0,.3.69,3,3,0,0,0,.56.71,3.2,3.2,0,0,0,.87.57,4.41,4.41,0,0,0,1.12.32,4.5,4.5,0,0,0,.63.07c.21,0,.43,0,.65,0,.44,0,.9-.07,1.36-.13.93-.11,1.91-.27,2.92-.42s2.06-.28,3.13-.35c.54,0,1.08,0,1.62,0a7.91,7.91,0,0,1,1.61.23,3.71,3.71,0,0,1,1.42.66,2.51,2.51,0,0,1,.52.56,2.91,2.91,0,0,1,.33.66,2.37,2.37,0,0,1,.09.36,1.16,1.16,0,0,1,0,.18s0,.06,0,.09v.09a2.13,2.13,0,0,1-.09.71,2.21,2.21,0,0,1-.34.62,2.78,2.78,0,0,1-.53.5,5.53,5.53,0,0,1-1.3.67,12,12,0,0,1-1.38.4c-.9.21-1.78.35-2.59.46s-1.55.21-2.21.33a7.18,7.18,0,0,0-.91.21,2.09,2.09,0,0,0-.37.17l-.15.12a.47.47,0,0,0-.1.16.52.52,0,0,0,0,.33.81.81,0,0,0,.17.23.68.68,0,0,0,.12.12l.27.18.22.13-.24-.15a2.22,2.22,0,0,1-.34-.3.7.7,0,0,1-.15-.23.36.36,0,0,1,0-.29.45.45,0,0,1,.22-.26,1.7,1.7,0,0,1,.36-.16,5.37,5.37,0,0,1,.9-.23c.65-.12,1.4-.2,2.21-.31s1.69-.23,2.61-.43a11.21,11.21,0,0,0,1.39-.39,5.72,5.72,0,0,0,.68-.28,5.38,5.38,0,0,0,.66-.38A3,3,0,0,0,155,105a2.2,2.2,0,0,0,.37-.67,2.09,2.09,0,0,0,.1-.75v-.1a.28.28,0,0,1,0-.09,1.06,1.06,0,0,1,0-.19c0-.12-.06-.24-.1-.36a3.06,3.06,0,0,0-.35-.7,2.73,2.73,0,0,0-.55-.58,3.88,3.88,0,0,0-1.47-.68,8.27,8.27,0,0,0-1.63-.21,14.72,14.72,0,0,0-1.63,0c-1.08.08-2.12.23-3.13.38s-2,.32-2.92.44c-.47.05-.92.1-1.36.12a5.89,5.89,0,0,1-1.27-.06,4.23,4.23,0,0,1-1.11-.34,3.29,3.29,0,0,1-.84-.58,2.89,2.89,0,0,1-.51-.7,3.16,3.16,0,0,1-.25-.68,3.68,3.68,0,0,1-.1-1c0-.12,0-.21,0-.27v-.06s0,0,0,0H138Z"/><path class="cls-22" d="M146.28,108.94h0Z"/><path class="cls-22" d="M146.28,108.94h0Z"/><path class="cls-22" d="M146.2,108.9l-.13-.07.12.06.09,0-.05,0Z"/><path class="cls-22" d="M146.2,108.9l-.13-.07.12.06.09,0-.05,0Z"/><path class="cls-22" d="M145.71,108.58l.2.15.05,0,.24.14h0l0,0s0,0-.08,0h0l-.22-.13Z"/><path class="cls-22" d="M145.71,108.58l.2.15.05,0,.24.14h0l0,0s0,0-.08,0h0l-.22-.13Z"/><path class="cls-22" d="M146.23,108.91l.05,0,0,0Z"/><path class="cls-23" d="M146.23,108.91l.05,0,0,0Z"/><path class="cls-22" d="M146.23,108.91l.05,0,0,0Z"/><path class="cls-22" d="M146,108.76l.24.14h0l-.24-.14-.05,0,0,0Z"/><path class="cls-23" d="M146,108.76l.24.14h0l-.24-.14-.05,0,0,0Z"/><path class="cls-22" d="M146,108.76l.24.14h0l-.24-.14-.05,0,0,0Z"/><path class="cls-22" d="M146.25,108.92h0l0,0Z"/><path class="cls-23" d="M146.25,108.92h0l0,0Z"/><path class="cls-22" d="M146.25,108.92h0l0,0Z"/><path class="cls-22" d="M146.23,108.91h0l-.19-.11.06,0,.13.07Z"/><path class="cls-23" d="M146.23,108.91h0l-.19-.11.06,0,.13.07Z"/><path class="cls-22" d="M146.23,108.91h0l-.19-.11.06,0,.13.07Z"/><path class="cls-22" d="M146,108.76h0l.07,0,.19.11h0Z"/><path class="cls-23" d="M146,108.76h0l.07,0,.19.11h0Z"/><path class="cls-23" d="M146,108.76h0l.07,0,.19.11h0Z"/><path class="cls-22" d="M146,108.76h0l.07,0,.19.11h0Z"/><path class="cls-21" d="M154.5,100.69a4.49,4.49,0,0,0-.78-.45,6.48,6.48,0,0,0-1.11-.4,8.33,8.33,0,0,0-1.4-.24l-.38,0H150l-.41,0a22.64,22.64,0,0,0-3.38.55l-1.7.38c-.56.11-1.11.22-1.64.28a6,6,0,0,1-1.53,0l-.35-.07-.31-.11a1.93,1.93,0,0,1-.52-.33,1.81,1.81,0,0,1-.53-.89,2.73,2.73,0,0,1-.11-.8,3.12,3.12,0,0,1,0-.52.46.46,0,0,1,0-.14.29.29,0,0,1,0-.08h-.39v0s0,.09,0,.15a4.63,4.63,0,0,0,0,.58,3.17,3.17,0,0,0,.14.88,2.13,2.13,0,0,0,.23.52,2.07,2.07,0,0,0,1,.86,2.17,2.17,0,0,0,.36.12,2.53,2.53,0,0,0,.38.07l.38,0c.4,0,.8,0,1.21-.07h0c.55-.08,1.11-.19,1.66-.32l1.69-.41a22.77,22.77,0,0,1,3.35-.61c.13,0,.27,0,.4,0h.4a2.54,2.54,0,0,1,.39,0h.37a8.12,8.12,0,0,1,1.39.21,5.87,5.87,0,0,1,1.12.38,4.54,4.54,0,0,1,.78.43,5.76,5.76,0,0,1,.46.35l.13.14h0l-.13-.14A3.65,3.65,0,0,0,154.5,100.69Z"/></g></g><path class="cls-9" d="M146.22,114.21a8.55,8.55,0,0,1,2.58-.13,27,27,0,0,0,4.38-.52,58.47,58.47,0,0,0,6.7-1.23c1.56-.47,1.85-1.46,1.06-2.85-.34-.61-.47-.8-1.18-.81s-1.28,0-1.94,0a43.92,43.92,0,0,1-11-1.87c-1.18-.39-2.31-1.25-3.48-.66-1.4.7-2.76,1.58-4.1,2.37-.72.42-1.41.8-2.16,1.16s-1.32.47-1,1.24c.23.56,1,1.14,1.44,1.59a9.11,9.11,0,0,0,1.29,1.27c1.09.77,2.51.64,3.78.64A15,15,0,0,0,146.22,114.21Z"/><path class="cls-24" d="M135.29,75.9a7.15,7.15,0,0,0-3.17-2.51h0a3.27,3.27,0,0,0-2.1.06,3,3,0,0,0-1.85,2.38,3.5,3.5,0,0,0,1.68,2.51c1.17.84,2.64,1.7,2.39,3.37-.14,1-.31,1.94.85,2.3a2.71,2.71,0,0,0,2.49-.57,4.83,4.83,0,0,0,1.1-3.22A7.31,7.31,0,0,0,135.29,75.9Z"/><path d="M161.37,108.63a22.53,22.53,0,0,0-1.23-2c-.47-.75-1-1.41-1.54-2.14a36.38,36.38,0,0,1-3-4.25,15,15,0,0,1-1.49-6.58c0-1.1,0-2.19,0-3.29,0-.67-.24-1.25-1-1.31a3.4,3.4,0,0,0-1.12.27,5.49,5.49,0,0,1-1.67.1,9.89,9.89,0,0,0-1.44,0,10.93,10.93,0,0,1-1.5.17,21.79,21.79,0,0,0-3.13.27,6.67,6.67,0,0,0-1.41.21l-.2.07a7.84,7.84,0,0,1-1,.11c-.93,0-1.87,0-2.81,0s-1.95.21-2.95.2-2,0-3.05,0a1.59,1.59,0,0,0-1.47.87c-.75,1.45-.31,3.32-.22,4.84a19.8,19.8,0,0,0,.58,2.73,24.54,24.54,0,0,1,.4,3.2,16.17,16.17,0,0,0,1.43,5.31c.32.76.72,1.49,1.09,2.22.2.41.41.85.65,1.24s.54.67.77,1.05a4.78,4.78,0,0,0,.53.82c.28.32.63.49.9.84a3,3,0,0,0,1.73,1.21,12.64,12.64,0,0,0,2.61.17,21.62,21.62,0,0,0,3.22-.08c.85-.11,1.69-.09,2.53-.2.52-.07,1,0,1.54-.1s.81-.2,1.21-.26c2-.31,4-.41,6-.86,1.66-.38,3.78-.45,5.24-1.4S161.9,109.7,161.37,108.63Zm-28.13-6s-.23-2.29-.38-3.4c-.13-.93-.5-1.8-.64-2.71a18.39,18.39,0,0,1-.23-2.67c0-.76,0-2.23.92-2.35a22.2,22.2,0,0,1,3.05,0c1,0,2-.2,2.95-.2s1.88.08,2.81,0,1.88-.15,2.82-.19c.5,0,1-.15,1.47-.18s.8,0,1.21,0c.84-.14,1.68-.31,2.53-.37a2.32,2.32,0,0,0,.38-.07c.32,0,.65,0,1,0a5,5,0,0,0,1-.1,6.66,6.66,0,0,1,.88-.28,4.13,4.13,0,0,1,0,.93v1.58a16.38,16.38,0,0,0,.56,5c.28.93,1.71,4.16,1.82,4.31.88,1.23,1.82,2.46,2.77,3.63a9.65,9.65,0,0,1,1.34,1.95c.08.17.18.34.27.5-.77-.14-1.6-.15-2.34-.21-1.08-.08-2.15-.28-3.22-.42-1.3-.17-2.6-.25-3.89-.5a26.13,26.13,0,0,1-3.48-1.12c-.95-.33-2.19-.95-3.2-.63a16.83,16.83,0,0,0-2.79,1.59c-1,.58-2.06,1.22-3.07,1.84a9,9,0,0,0-1.75,1.13c-.16-.27-.32-.55-.47-.85a32.47,32.47,0,0,1-2-4.8c-.07-.23-.18-.7-.18-.7ZM161,111.14a7.24,7.24,0,0,1-2.68.79c-1.79.36-3.55.7-5.36.9-1.63.18-3.22.58-4.85.69s-3.43.38-5.17.36c-.88,0-1.78,0-2.66,0a2.73,2.73,0,0,1-1.26-.31c-.42-.25-.59-.73-.94-1a4.51,4.51,0,0,1-.71-.6c-.19-.26-.31-.57-.5-.83l-.36-.53a7.24,7.24,0,0,0,1.48-.84c.43-.27.87-.53,1.31-.79q.93-.45,1.83-1c.47-.27,1-.51,1.41-.82s.6-.53.93-.75a2.11,2.11,0,0,1,.45-.18,1.12,1.12,0,0,1,.32,0,11.32,11.32,0,0,1,1.35.41c.52.14,1,.4,1.54.58l.94.31a15.69,15.69,0,0,0,1.53.42c1.51.37,3,.63,4.59.9,1.05.19,2.06.24,3.11.34a11.65,11.65,0,0,0,1.46.19c.35,0,.7-.08,1.05-.13l.25.07a.43.43,0,0,0,.46.08h0l.07.12C160.8,109.88,161.46,110.76,161,111.14Z"/><path d="M167.22,108.86a19.22,19.22,0,0,1-2-2.81c-.64-1.08-1.44-2-2.09-3.12-.1-.15-.19-.31-.28-.47a6.43,6.43,0,0,0,2-.26,3.23,3.23,0,0,0,2.2-3c0-.38,0-.77.06-1.15a8,8,0,0,0,.13-1.08,8.66,8.66,0,0,1,.16-1,10.86,10.86,0,0,0,0-1.51c0-1.93.1-3.84.16-5.78,0-1,.23-1.91.32-2.87s0-1.68.09-2.53a41.84,41.84,0,0,0,.26-5.6q0-3,0-6a15.1,15.1,0,0,0,0-2.33c-.13-.82-.1-1.62-.2-2.45-.11-1-.13-2-.26-2.94a7.65,7.65,0,0,0-.55-2.46,5.08,5.08,0,0,0-3-2.82,19.4,19.4,0,0,0-4.62-.55l-.13,0a3.62,3.62,0,0,0-.06-1.35,3,3,0,0,0,2.07-.43c1.53-1.12,1.07-3.73.75-5.32a3.27,3.27,0,0,0-.9-2,4.6,4.6,0,0,0-2.48-.72c-2.3-.13-4.65,0-7,0-1.36,0-3.71-.45-4.68.82a6.79,6.79,0,0,0-.86,2.1,5,5,0,0,0-.2,2.51c.38,1.64,1.91,2.12,3.42,2.28a3.55,3.55,0,0,0-.06.47,4.41,4.41,0,0,0-.05.81l-1-.11a13.18,13.18,0,0,1-2.42-.42c-.43-.14-1-.18-1.37-.35a3.4,3.4,0,0,1-1.05-.92,8.9,8.9,0,0,1-1-2.25c-.4-.81-1-1.47-1.46-2.24A8,8,0,0,0,140,49a4.23,4.23,0,0,0-1.86-.92,11,11,0,0,0-2.81-.11l-3.49,0c-1.16,0-2.32,0-3.48.09s-2.21,0-3.29.19-2,.13-3,.24a7.86,7.86,0,0,0-2.83.89,4.18,4.18,0,0,0-.59.35l-.2.1a6.08,6.08,0,0,0-1.77,1.73,9.49,9.49,0,0,0-1.32,2,12.6,12.6,0,0,1-1,1.88,2.07,2.07,0,0,1-1.54.94c-1,.14-2,.25-2.93.41a9.66,9.66,0,0,1-1.42.08,6.2,6.2,0,0,0-.1-.84.43.43,0,0,0,0-.11h.08c.36-.06.68-.13,1-.18a1.57,1.57,0,0,0,.93-.45,4.83,4.83,0,0,0,1.33-1.79,8.56,8.56,0,0,0,.14-1.24,5.37,5.37,0,0,0,.13-1.49,5.54,5.54,0,0,0-.53-2.17c-.49-.77-1.19-.76-2-.81s-1.56-.17-2.38-.17a17.74,17.74,0,0,1-3.18-.11,15,15,0,0,0-2.6,0c-.94,0-1.84.12-2.77.17S97,48,96.91,48.89a21.59,21.59,0,0,0,0,2.9c0,.16,0,.33,0,.49a7,7,0,0,0,0,1.58,1.73,1.73,0,0,0,1.16,1.51,1.87,1.87,0,0,0,.81.21l.9.14a3.86,3.86,0,0,0,0,1.82.08.08,0,0,0,0,.05l-.19,0a4.6,4.6,0,0,0-3.72,1.66,16.11,16.11,0,0,0-2.33,4.94C92.43,68,93.39,72.12,92.88,76c-.12.89,0,1.79-.07,2.68s-.23,2-.21,3.1c0,2,.05,4,.05,6.06,0,1,0,1.91,0,2.86s.17,1.91.21,2.87c.07,1.84,0,3.7.2,5.54a4.14,4.14,0,0,0,3,3.43,9.67,9.67,0,0,0,2.14.29c.94,0,1.87.34,2.81.44a64.07,64.07,0,0,0,6.5.09c2.23,0,4.48-.09,6.71.1s4.51.07,6.74.07H128c.18.39.37.76.59,1.15a37,37,0,0,0,2.39,6.16c.29.59.65,1.14,1,1.73s.67.91,1,1.4a15.22,15.22,0,0,0,2.08,2.79c.68.72,1.27,1.58,2,2.23a4.18,4.18,0,0,0,3.13.89c1.3,0,2.59-.3,3.87-.42.57,0,1.09-.3,1.66-.31a6.85,6.85,0,0,0,1.74-.21c.65-.16,1.27-.08,1.92-.18s1.26-.23,1.89-.33,1.19-.31,1.82-.37,1.37-.19,2.07-.28c2.76-.35,5.48-.91,8.22-1.41,1.17-.22,2.29-.67,3.45-.9a4.1,4.1,0,0,0,2.15-.93C170.44,113,168.27,110.11,167.22,108.86ZM110.1,49.5a3.83,3.83,0,0,1,.27,1.85,5.07,5.07,0,0,1-.43,2c-.12.17-.31.32-.45.48-.28.32-.14.25-.43.29l-.31,0q0-.2,0-.42c0-.55,0-1.11,0-1.67,0-.72-.09-1.43-.11-2.15,0-.23,0-.44,0-.65C109,49.28,109.89,49.29,110.1,49.5Zm55.24,46.37A5.6,5.6,0,0,0,165.2,97c0,.4-.14.76-.17,1.16,0,.61.13,1.51-.41,2s-2,.42-2.94.34l-.27-.53c-.25-.45-.59-.82-.82-1.3s-.53-1.13-.76-1.7c-.43-1.06-.8-2.14-1.12-3.23a2.84,2.84,0,0,1,.72-.1c.34,0,.68.13,1,.17.77.09,1.54,0,2.32.16a10.57,10.57,0,0,0,2.25.07.81.81,0,0,0,.39-.12A8.71,8.71,0,0,1,165.34,95.87Zm.92-22.35v5.65c0,1.65-.32,3.27-.35,4.91,0,2-.23,4-.41,5.93-.07.85-.11,1.67-.11,2.52a.76.76,0,0,0-.37-.1c-1.54,0-3.13,0-4.66-.18a4.68,4.68,0,0,0-1.9,0l-.14,0a10.61,10.61,0,0,1-.55-3.18,12.07,12.07,0,0,0-.09-3.65c-.31-1.08-1.29-1.31-2.3-1.3-2.65,0-5.26.21-7.91.41-.75.06-1.5.16-2.25.25a3.12,3.12,0,0,0,.31-.6,15.72,15.72,0,0,0,.68-3.91,9.83,9.83,0,0,0-.92-4,10.4,10.4,0,0,0-1.86-3.51c-.39-.43-.7-.93-1.07-1.37a6.92,6.92,0,0,0-.6-.61h.5c.6,0,1.2,0,1.81,0,1.1,0,2.15.23,3.25.23s2.22.06,3.33,0a17.23,17.23,0,0,1,3.44-.13c2,.32,4.1,0,6.16.27a32.58,32.58,0,0,0,3.28.1,7.42,7.42,0,0,0,2.73-.36C166.25,71.78,166.26,72.65,166.26,73.52Zm-25.13,6.7a17.61,17.61,0,0,0-.29-1.91c-.5-2.45-2.29-4.14-4-5.8a9,9,0,0,0-3-1.64,12.91,12.91,0,0,0-3.63-.76,12,12,0,0,0-3.38.14,13,13,0,0,0-2.61.82c-.25.07-.49.16-.74.25a6.37,6.37,0,0,0-2.79,1.79,11.22,11.22,0,0,0-.88,1.39c-.32.51-.73,1-1,1.49-1.3,2.24-1.35,4.9-1.35,7.41a8.45,8.45,0,0,0,.73,3.88,14,14,0,0,0,.79,1.48c.28.46.69.79,1,1.25a9.21,9.21,0,0,0,.89,1.09,8.67,8.67,0,0,0,1.67,1.47,6.79,6.79,0,0,0,1.71.89,14.71,14.71,0,0,1,1.77.42c0,.46.09.92.16,1.38a2.94,2.94,0,0,1-1,.06,11.42,11.42,0,0,1-1.73-.4,21.59,21.59,0,0,1-3-1.33c-2.14-1-4-2.44-4.75-4.76a16.4,16.4,0,0,1-.81-3.3,21,21,0,0,1,0-3.72,19.52,19.52,0,0,1,2-7,11.74,11.74,0,0,1,4.63-4.89c1.94-1,3.91-2.1,6.16-2.14.52,0,1-.15,1.52-.13a13.83,13.83,0,0,1,1.59.12,14.48,14.48,0,0,1,3.12.82,22.06,22.06,0,0,1,6.22,3.09,18.58,18.58,0,0,1,2.31,2.54A11,11,0,0,1,144.07,78a9.26,9.26,0,0,1,.47,1.81,11,11,0,0,1-.46,3.65c-.16.6-.24,1.47-.92,1.62-.33.08-2.69-.09-2.77.2a20.12,20.12,0,0,0,.89-3.17A10.29,10.29,0,0,0,141.13,80.22Zm-2.28,5.25a.22.22,0,0,0,0,.08c-1,.09-1.91.07-2.86.24-.62.11-1.21,0-1.83.11s-1,.16-1.61.17a22.06,22.06,0,0,0-3.71.41c-1.05.19-2.13.14-2.49,1.37a6.87,6.87,0,0,0-.22,1.62c0,.68-.1,1.32-.16,2,0,.33,0,.65,0,1l-.49-.08a5.12,5.12,0,0,1-2-.77A8.69,8.69,0,0,1,120.86,89c-.34-.55-.83-.9-1.16-1.48a8,8,0,0,1-1-2.29,17.5,17.5,0,0,1,0-5.11,8.67,8.67,0,0,1,1.26-3.93c.26-.38.5-.78.75-1.18a2.61,2.61,0,0,0,.22-.27,1.83,1.83,0,0,0,.14-.28,7,7,0,0,1,.71-.9,11.36,11.36,0,0,1,3.08-1.53,11.56,11.56,0,0,1,4-.77,15.37,15.37,0,0,1,3.86.65,7.82,7.82,0,0,1,3.56,2c.47.48,1,.86,1.48,1.35A8.07,8.07,0,0,1,138.8,77a11.07,11.07,0,0,1,1,3.88C140,82.56,139.19,83.85,138.85,85.47Zm19.48-30.35a12.71,12.71,0,0,0,.14-2.63,11.92,11.92,0,0,0,.09-2.87c.67,0,1.61.07,2,.57a5.35,5.35,0,0,1,.45,2.2,4.56,4.56,0,0,1-.13,2.38c-.35.63-1.13.45-1.73.43l-.8,0Zm-2.44-5.49h1.79c0,.2,0,.39,0,.59a23.71,23.71,0,0,0-.39,4.61c0,.13,0,.25,0,.37a9.87,9.87,0,0,1-1.81-.13,1.23,1.23,0,0,1-.39-.16,1.57,1.57,0,0,0,0-.23c.07-.63,0-1.33.09-2a12.54,12.54,0,0,0-.15-3.07C155.34,49.63,155.62,49.62,155.89,49.63Zm-3.25,2.24a12.9,12.9,0,0,0,0-2.24h1.76c-.08.74-.06,1.51-.12,2.25a16.24,16.24,0,0,0-.29,2.83c-.18,0-.37,0-.55,0l-.87-.11c0-.38,0-.78,0-1.1C152.59,52.93,152.62,52.4,152.64,51.87Zm3.43,4.77a21.27,21.27,0,0,0,2.26,0l-.15.67c0,.21-.1.39-.13.58-1.35-.11-2.7-.21-4-.22-.89,0-1.76-.28-2.65-.35l-.56,0a3.56,3.56,0,0,0,0-.92c0-.13,0-.26-.05-.39C152.5,56.23,154.29,56.49,156.07,56.64Zm-7.2-5.2c-.09.9-.21,1.86-.22,2.78-1.44-.4-1.12-2-.72-3.16.18-.53.3-1.18.88-1.34l.12,0C148.86,50.28,148.91,51,148.87,51.44Zm.65,2.92c0-1.06.18-2.13.25-3.18a9.59,9.59,0,0,0,.06-1.56l1,0h1a19,19,0,0,1-.28,3,7.83,7.83,0,0,0-.09,1.82h-.32C150.61,54.44,150.06,54.42,149.52,54.36ZM107.8,49.18v.08a12.4,12.4,0,0,0,0,2.66c0,.79,0,1.57,0,2.35a2.44,2.44,0,0,1-.47,0,7.18,7.18,0,0,0-.8,0c-.14-1.66.21-3.44-.13-5.08C106.91,49.18,107.35,49.16,107.8,49.18Zm-3.54,0a9.72,9.72,0,0,0,1.43,0c0,.67,0,1.34,0,2,0,1-.15,2.08-.14,3.12h0a14.71,14.71,0,0,1-1.88,0,8.67,8.67,0,0,0-.1-2V52a20.8,20.8,0,0,0-.06-2.49v-.08a1.8,1.8,0,0,0-.06-.36h0ZM105.84,56a8.1,8.1,0,0,1,1.39,0,2.12,2.12,0,0,0,0,1,13.71,13.71,0,0,1-2.7.25c-.86,0-1.69.17-2.54.18-.36,0-.73,0-1.09.08a.65.65,0,0,0,0-.24,9.87,9.87,0,0,1-.17-1.33,10.29,10.29,0,0,0,2.09.19A23.7,23.7,0,0,0,105.84,56Zm-3.37-7a1,1,0,0,1,.17,0,19.22,19.22,0,0,0-.13,3.12c0,.53,0,1,0,1.56,0,.29,0,.53,0,.75a5.88,5.88,0,0,1-1.32-.1l-.37-.07a.36.36,0,0,0,0-.1s0-.08,0-.13c0-1,0-2.06,0-3.08a6.8,6.8,0,0,0-.16-1.3c0-.22,0-.44-.08-.66C101.21,49,101.84,49,102.47,49ZM98.67,54a1.81,1.81,0,0,1-.24-1.12v-.09h0c0-.74,0-1.49,0-2.23,0-.3,0-.6,0-.91a1.08,1.08,0,0,1,0-.31.48.48,0,0,0,0-.13h.06a5.08,5.08,0,0,1,.69,0l.73-.1a14.58,14.58,0,0,0-.22,3.16c0,.52,0,1,0,1.54,0,.11,0,.22,0,.33l-.4,0A2.21,2.21,0,0,1,98.67,54ZM94.8,67.49a11.79,11.79,0,0,1,1.25-5.08,9.34,9.34,0,0,1,1.39-2.31,2.69,2.69,0,0,1,1.81-.68c1.52-.13,3-.19,4.55-.32.81-.07,1.63,0,2.45-.11s1.6-.24,2.41-.23a18.8,18.8,0,0,0,2.89-.25,10,10,0,0,0,2.56-.5,5.11,5.11,0,0,0,2.61-3.37,7.79,7.79,0,0,1,1.42-2.72l.72-.6a6.71,6.71,0,0,1,2-1l.61-.15a15.54,15.54,0,0,1,2.36,0c.78,0,1.54-.14,2.32-.15,1,0,2-.06,2.94-.09,1.94-.07,3.89,0,5.83,0,1.3,0,3.18-.36,4,.95.38.61.68,1.26,1.11,1.84a6.49,6.49,0,0,1,1.18,2.29,5,5,0,0,0,2.93,3.23c.73.23,1.51.46,2.26.63s1.71.2,2.55.31,1.7.12,2.55.21a21.58,21.58,0,0,0,2.77.33c1.65,0,3.35.24,5,.35.79,0,1.56.14,2.35.16a6.72,6.72,0,0,1,2.05.34,2.68,2.68,0,0,1,1.45,1.2,4.78,4.78,0,0,1,.57,1.89c.12.87.15,1.73.23,2.6s.08,1.68.17,2.51q.06.48.09.93A1.9,1.9,0,0,0,165,69.5a8,8,0,0,1-1.76.15,29.59,29.59,0,0,1-3.26-.11,27.59,27.59,0,0,0-3.75,0c-1,0-2-.18-3.09-.16-1.22,0-2.42.19-3.64.19a22.52,22.52,0,0,1-3.58,0,19.15,19.15,0,0,0-3.47-.12,4.25,4.25,0,0,0-1.92.19h-.24a14,14,0,0,0-2.79-1.46c-1.26-.5-2.49-1-3.75-1.53a8.71,8.71,0,0,0-1.75-.33,13.65,13.65,0,0,0-1.9-.3,6.62,6.62,0,0,0-1.72,0c-.65.12-1.31,0-2,.15a10.27,10.27,0,0,0-3.7,1.25c-1.07.65-2.19,1.09-3.2,1.84l-.12.08A4.44,4.44,0,0,0,117,69.1c-1.08.09-2.21,0-3.3,0-2,0-4-.33-6.08-.27s-4.4,0-6.59,0H97.52c-.47,0-.94,0-1.4-.08s-.77.08-1.15.09a.67.67,0,0,0-.18-.11C94.79,68.28,94.79,67.89,94.8,67.49Zm-.3,22.43c0-1.89,0-3.78,0-5.67,0-.88,0-1.75-.05-2.63s.14-1.85.19-2.78c.16-2.81.14-5.62.14-8.43.25,0,.51,0,.79-.06a10.17,10.17,0,0,1,1.35.06c1.15,0,2.31,0,3.47,0,2.31,0,4.64,0,6.95,0,2.05-.09,4,.14,6.08.12,1.09,0,2.2,0,3.3,0,.43,0,.86-.12,1.29-.19l0,.05c-.39.48-.82.91-1.21,1.38a18,18,0,0,0-3.28,7.59,18.79,18.79,0,0,0-.07,8.44,12.43,12.43,0,0,0,1.69,4l.19.24c-1.57-.06-3.19,0-4.72.08-1,0-1.88-.17-2.83-.16a23.4,23.4,0,0,1-3.35,0,38.74,38.74,0,0,0-5.48-.39,26.44,26.44,0,0,1-3.07-.24,9.83,9.83,0,0,0-1.35-.07C94.49,90.76,94.49,90.34,94.5,89.92Zm21.92,11.72c-1.85,0-3.7-.17-5.55-.17s-3.81,0-5.72,0a27.5,27.5,0,0,1-5.44-.28c-1.41-.27-3.13-.06-4.24-1.11a2.38,2.38,0,0,1-.62-2c0-1-.15-1.92-.17-2.88s-.08-1.9-.13-2.84c.41,0,.81,0,1.22.1a19.61,19.61,0,0,0,2.85.34,53,53,0,0,1,5.75.53,24,24,0,0,0,3.06.08c1,0,2,.2,3,.21h3.24a23.15,23.15,0,0,0,3.23-.09,15,15,0,0,0,1.58,1.06,33.64,33.64,0,0,0,3.87,1.87,10.57,10.57,0,0,0,2.16.57,7.84,7.84,0,0,0,1.07.14,3,3,0,0,0,.79-.13c.06.5.13,1,.23,1.48.2,1,.5,2.07.76,3.1Zm51,11.5h0a1.08,1.08,0,0,1-.38.17c-.81.3-1.72.36-2.55.61a52.2,52.2,0,0,1-7.13,1.5c-1.19.17-2.38.33-3.56.52-.62.1-1.24.09-1.85.22s-1.26.29-1.9.41c-1.08.19-2.17.14-3.24.41a7.15,7.15,0,0,1-1.46.14c-.58,0-1.11.25-1.69.32-1.08.12-2.16.31-3.25.38a4.58,4.58,0,0,1-1.77-.06,2.89,2.89,0,0,1-1-.88c-.75-.88-1.6-1.64-2.34-2.51a9.66,9.66,0,0,1-.88-1.34c-.32-.54-.76-1-1.08-1.52a37.25,37.25,0,0,1-1.88-3.46,38.31,38.31,0,0,1-1.42-3.88A47.13,47.13,0,0,1,128.36,96a34.66,34.66,0,0,1-.43-4.07c0-.18,0-.37,0-.55,0-.35.09-.7.11-1,0-.5-.13-1.29.13-1.74l0-.06s.05,0,.14,0c.25-.05.53-.07.79-.11.65-.12,1.3-.19,2-.26,1-.1,2-.1,3-.28.54-.09,1.07,0,1.61-.07s1.15-.24,1.74-.29,1.15,0,1.73,0,.93-.16,1.39-.25c1.21-.21,2.5-.19,3.73-.34,2.38-.27,4.77-.42,7.15-.68,1.12-.12,2.23-.06,3.35-.09a4.2,4.2,0,0,0,.94,0h.15l0,.07a5.52,5.52,0,0,0,0,.9c0,.34,0,.69,0,1a10.48,10.48,0,0,0,.18,3.26c.32,1.22.67,2.45,1,3.65a30.16,30.16,0,0,0,1.2,3.16c.23.49.43,1,.68,1.49s.54.76.76,1.18l.37.71a1,1,0,0,0,.36.64c.27.49.55,1,.83,1.47.57,1,1.31,1.89,1.93,2.86s1,1.68,1.61,2.49a26.91,26.91,0,0,1,2,2.67C167,112,167.48,112.76,167.43,113.14Z"/><path d="M120.41,61.91a16.83,16.83,0,0,0,3.39.51c1.42.06,2.86,0,4.29,0a20.77,20.77,0,0,1,4.1.1,19,19,0,0,0,3.7.08,5.8,5.8,0,0,0,2.87-.29c1.85-1,.77-3.79,0-5.17-.5-1-1.15-1.73-1.71-2.63A3.35,3.35,0,0,0,135,52.75a18.94,18.94,0,0,0-3.84-.08c-.72,0-1.44-.09-2.16,0-1.67.11-3.35.13-5,.35a3.58,3.58,0,0,0-2.31,1.22,8.84,8.84,0,0,0-1.85,2c-.64,1.18-1.85,2.88-1.45,4.3C118.67,61.4,119.6,61.7,120.41,61.91Zm-.68-3.44c.19-.4.52-.75.68-1.17a3.92,3.92,0,0,1,.49-1.06,4.59,4.59,0,0,1,2.71-2.08c1.18-.28,2.37-.07,3.54-.29a19.57,19.57,0,0,1,3.51-.17l.91,0c.42,0,.84,0,1.26,0,.95,0,2.09-.16,2.82.56a23.45,23.45,0,0,1,1.4,2c.78.94,2.82,4.56,1,5.31a7.75,7.75,0,0,1-2.59.06,14.77,14.77,0,0,1-3.12-.07,11.53,11.53,0,0,0-2.63-.09H126a17.8,17.8,0,0,1-6-.61C119,60.4,119.32,59.33,119.73,58.47Z"/><path d="M101.3,66.2a3.29,3.29,0,0,0,1.55.27c.81,0,1.53.29,2.33.34,1.39.07,2.73.35,4.13.35A2.3,2.3,0,0,0,111.58,66a4.24,4.24,0,0,0,.13-3.28,2.36,2.36,0,0,0-2.08-1.55,11.11,11.11,0,0,0-2.08,0h-.33a20.55,20.55,0,0,0-2.22,0,8.57,8.57,0,0,0-3.18.44,2.09,2.09,0,0,0-1.29,1.85C100.44,64.41,100.28,65.66,101.3,66.2Zm0-2.67a1.31,1.31,0,0,1,1-1.24,14.44,14.44,0,0,1,3.08-.32,6.5,6.5,0,0,1,.88,0c1.74.19,4.24-.52,4.63,1.5a3,3,0,0,1-.15,2.07c-.38.66-.78.71-1.46.71a12,12,0,0,1-1.89-.08,15.56,15.56,0,0,0-1.64-.27,19.09,19.09,0,0,1-2-.3,8.74,8.74,0,0,1-1.92-.09C101.17,65.23,101.26,64.15,101.33,63.53Z"/><path d="M149.89,67.55c1.5,0,2.94.18,4.44.15l2.54,0a6.8,6.8,0,0,0,2.25-.18A2.58,2.58,0,0,0,160.66,65a4.48,4.48,0,0,0-.24-2.12,1.58,1.58,0,0,0-1.2-.7,7.78,7.78,0,0,0-1.87-.12,13.9,13.9,0,0,0-2.23-.2,12,12,0,0,1-2.68,0,16.61,16.61,0,0,0-2.64-.07c-1.14,0-2.2.15-2.71,1.27a3.86,3.86,0,0,0,.11,3.5A3.12,3.12,0,0,0,149.89,67.55Zm-2.16-3.75c.16-.53.34-.87.88-.94a17.88,17.88,0,0,1,1.95-.18,17.14,17.14,0,0,1,2.37.15,5.42,5.42,0,0,0,1.51-.06,4.48,4.48,0,0,0,.63-.06,9.63,9.63,0,0,1,1.07,0,5,5,0,0,0,1,.08l.71,0a2.71,2.71,0,0,1,1.56.34c.62.47.44,2.28.07,2.94a1.61,1.61,0,0,1-1.52.67l-2.22,0c-.68,0-1.35,0-2,0a13,13,0,0,1-2-.19c-1-.1-2,.13-2.93-.06C147.6,66.22,147.42,64.87,147.73,63.8Z"/><path d="M130.05,54.65a5.09,5.09,0,0,0-1.31.58,14.42,14.42,0,0,0-2.41,1.23l-.85.45a12,12,0,0,0-3.63,2.39c-.11.14,0,.4.16.39a4.18,4.18,0,0,0,1.71-.69c.81-.43,1.61-.88,2.42-1.32s1.77-.9,2.66-1.34c.63-.33,1.42-.57,1.69-1.25C130.6,54.82,130.29,54.59,130.05,54.65Z"/><path d="M133.08,55.52c-.66-.05-1.33.54-1.89.88l-1.68,1h0a17.47,17.47,0,0,0-1.51.88,13.75,13.75,0,0,0-2.82,1.82c-.19.19,0,.44.24.41a6.55,6.55,0,0,0,1.78-.73c.78-.37,1.54-.86,2.29-1.3s1.38-.81,2.08-1.23A5.2,5.2,0,0,0,133.37,56,.34.34,0,0,0,133.08,55.52Z"/><path d="M109.51,95.35a1.72,1.72,0,0,0-1.13-1.11,1.35,1.35,0,0,0-1.25.35A2,2,0,0,0,106,95.65a1.92,1.92,0,0,0-.06,1.56,1.88,1.88,0,0,0,2.71,1.43C110.05,98,110.05,96.61,109.51,95.35Zm-.55.94a1.29,1.29,0,0,1-.09.94,1.16,1.16,0,0,1-1.52.32,1.25,1.25,0,0,1-.65-.82v-.12a.31.31,0,0,0,0-.1l0,0a2,2,0,0,1,1.06-1.14h0a1.27,1.27,0,0,1,1,.65h0C108.9,96.09,108.93,96.2,109,96.29Z"/><path id="MaLune" class="cls-25" d="M151.07,97.6a2.58,2.58,0,0,1-2.09.48,3.56,3.56,0,0,1-1.43-.4,1.67,1.67,0,0,1-.87-1.17,2,2,0,0,1,.07-.8,3.83,3.83,0,0,1,1.91-2.35,5.27,5.27,0,0,0-.68,1.79,1.78,1.78,0,0,0,.6,1.7,2.67,2.67,0,0,0,1.2.4C150.22,97.31,150.64,97.53,151.07,97.6Z"/><circle class="cls-26" cx="135.38" cy="93.38" r="0.5"/><circle class="cls-26" cx="140.38" cy="94.38" r="0.5"/><circle class="cls-26" cx="139.38" cy="98.38" r="0.5"/><circle class="cls-27" cx="134.38" cy="96.38" r="0.5"/><polyline class="cls-28" points="143.35 106.42 143.47 106.34 143.53 106.31 143.67 106.24 143.87 106.17 143.96 106.15 144.03 106.14 144.21 106.13 144.47 106.18 144.73 106.26 144.96 106.33 145.88 106.64 145.88 106.88 144.88 107.88 143.88 107.88 142.28 107.26 142.26 107.26"/></g><text class="cls-29" transform="matrix(0.67, -0.74, 0.74, 0.67, 23, 85.32)">M</text><text class="cls-29" transform="translate(34.88 72.32) rotate(-39.28)">O</text><text class="cls-29" transform="translate(46.15 63.02) rotate(-31.34)">R</text><text class="cls-29" transform="translate(58.72 55.31) rotate(-23.3)">G</text><text class="cls-29" transform="translate(72.06 49.58) rotate(-15.85)">A</text><text class="cls-29" transform="translate(85.19 45.84) rotate(-9.87)">N</text><text class="cls-29" transform="translate(99.26 43.52) rotate(-6.26)"> </text><text class="cls-29" transform="matrix(1, -0.06, 0.06, 1, 105.62, 42.72)">P</text><text class="cls-29" transform="translate(120.02 41.89) rotate(-0.4)">H</text><text class="cls-29" transform="translate(135.71 41.79) rotate(1.37)">O</text><text class="cls-29" transform="translate(150.57 42.15) rotate(3.55)">T</text><text class="cls-29" transform="translate(161.64 42.75) rotate(6.83)">O</text><text class="cls-29" transform="matrix(0.98, 0.21, -0.21, 0.98, 176.35, 44.46)">G</text><text class="cls-29" transform="translate(190.62 47.41) rotate(18.85)">R</text><text class="cls-29" transform="translate(204.76 52.2) rotate(27.09)">A</text><text class="cls-29" transform="translate(216.78 58.22) rotate(35.82)">P</text><text class="cls-29" transform="matrix(0.69, 0.72, -0.72, 0.69, 228.08, 66.16)">H</text><text class="cls-29" transform="translate(238.39 76.98) rotate(57.7)">Y</text></g></g></g></svg>