<svg xmlns="http://www.w3.org/2000/svg" xmlns:xlink="http://www.w3.org/1999/xlink" viewBox="0 0 76.83 72.46"><defs><style>.cls-1{fill:url(#Áåçûìÿííûé_ãðàäèåíò_575);}.cls-2{fill:url(#Áåçûìÿííûé_ãðàäèåíò_575-2);}.cls-3{fill:url(#Áåçûìÿííûé_ãðàäèåíò_575-3);}.cls-4{fill:url(#Áåçûìÿííûé_ãðàäèåíò_575-4);}.cls-5{isolation:isolate;}.cls-6{fill:#282828;}.cls-7{fill:#637079;}.cls-8{fill:#3b464e;}.cls-9{fill:#7c4124;}.cls-10{fill:#aaa;}.cls-11{fill:#ebebec;}.cls-12{fill:#03324c;}.cls-13{fill:#03224c;}.cls-14{mask:url(#mask);}.cls-15{fill:#7777ef;}.cls-16{fill:#a550d3;}.cls-17{fill:url(#Áåçûìÿííûé_ãðàäèåíò_578);}.cls-18{fill:#fabcff;opacity:0.6;}.cls-18,.cls-20,.cls-21,.cls-22,.cls-23{mix-blend-mode:screen;}.cls-19{fill:#abffff;}.cls-20{fill:#c2f7ff;opacity:0.8;}.cls-21,.cls-22,.cls-23,.cls-24{fill:#fff;}.cls-21{opacity:0.2;}.cls-22{opacity:0.25;}.cls-23{opacity:0.1;}.cls-25{fill:#ffe436;}.cls-26{fill:#f4f4f4;}.cls-27{fill:#fcfcfc;}.cls-28{fill:#e2e2e2;}</style><linearGradient id="Áåçûìÿííûé_ãðàäèåíò_575" x1="47.74" y1="61.55" x2="47.74" y2="50.55" gradientUnits="userSpaceOnUse"><stop offset="0" stop-color="#fff"/><stop offset="0.37" stop-color="#fdfdfd"/><stop offset="0.5" stop-color="#f6f6f6"/><stop offset="0.6" stop-color="#ebebeb"/><stop offset="0.67" stop-color="#dadada"/><stop offset="0.74" stop-color="#c4c4c4"/><stop offset="0.8" stop-color="#a8a8a8"/><stop offset="0.85" stop-color="#888"/><stop offset="0.9" stop-color="#646464"/><stop offset="0.93" stop-color="#4a4a4a"/><stop offset="1"/></linearGradient><linearGradient id="Áåçûìÿííûé_ãðàäèåíò_575-2" x1="62.41" y1="61.55" x2="62.41" y2="50.55" xlink:href="#Áåçûìÿííûé_ãðàäèåíò_575"/><linearGradient id="Áåçûìÿííûé_ãðàäèåíò_575-3" x1="53.56" y1="61.55" x2="53.56" y2="50.55" xlink:href="#Áåçûìÿííûé_ãðàäèåíò_575"/><linearGradient id="Áåçûìÿííûé_ãðàäèåíò_575-4" x1="51.19" y1="61.55" x2="51.19" y2="50.55" xlink:href="#Áåçûìÿííûé_ãðàäèåíò_575"/><mask id="mask" x="40.28" y="50.46" width="24" height="11.06" maskUnits="userSpaceOnUse"><path class="cls-1" d="M53.66,61.52l-.21,0h0C52.79,61.38,51,61,51,60c0-1.25,4.61-2.08,4.17-3.25s-12.93,1.38-14.89-3.07V56.4s.8,1,3.64,1.16c5.52.26,9.27-1.16,9.43-.41S50,58.77,50.19,60.21c.16,1.18,2.41,1.31,3.21,1.31h.26Z"/><path class="cls-2" d="M64.14,56a2.64,2.64,0,0,1-.85,2.12,6.65,6.65,0,0,1-2.76,1.19,4.9,4.9,0,0,0,3.07-1A2.08,2.08,0,0,0,64.14,56Z"/><path class="cls-3" d="M55.62,59.75c2.27-.26,5.37-.49,7-1.52h0A2.48,2.48,0,0,0,62.9,58h0L63,58h0L63,58h0a1,1,0,0,0,.15-.14l0,0,0,0v0l0,0,0,0,0,0h0l.07-.1v0l0,0,0,0,0,0,0,0,0,0,0,0,0-.06,0,0,0,0v0l0,0V57l0,0v0s0,0,0-.07v-.29a.22.22,0,0,0,0-.08v-.22a.15.15,0,0,0,0-.07v0s0-.06,0-.1v0a.17.17,0,0,0,0-.07v-.14l0-.08v0l0-.1v0l0-.09v0l0-.07v0l0-.08,0,0-.05-.12-.21-.41q-.12-.2-.24-.36T62.72,54l-.24-.25h0l.19.18S61,51.72,57.06,52s-7.46,2-8.92,1c-1.06-.72-.58-2.56-.58-2.56H46.41s-.37,3,2.19,3.22a6.94,6.94,0,0,0,.79,0h.36l.22,0H50l.28,0h.11l.12,0,.12,0h.11l.13,0,.11,0,.23,0,.1,0,.13,0h.1l.14,0,.09,0,.15,0h0l.37-.08h0l.19,0h0l1.74-.39h0l.24-.05h0l.22-.05h.05l.26,0h0l.24-.05h.07l.19,0,.08,0,.21,0h0l.26,0h.06l.19,0h.09l.18,0h.07l.26,0,.26,0h1.69l.1,0h.12l.09,0,.13,0h.08l.13,0h.07l.17,0h0l.17,0,.08,0,.11,0,.08,0,.09,0,.09,0,.08,0,.09,0,.08,0,.08,0,.07,0,.09,0,.06,0h0a5.08,5.08,0,0,0-.51-.17,7.14,7.14,0,0,0-1.42-.23l-.7,0a25.91,25.91,0,0,0-4.87.68l-.25,0-1.92.4c-.54.11-1.07.2-1.56.27l-.19,0h-.17a5.12,5.12,0,0,1-1.51-.08c-2.53-.58-2.22-3.43-2.22-3.43H43.36c.36,3.58,4.49,4.53,6.92,4.4,3.32-.18,9.79-1.46,10.6,1s-5.25,2.79-7.64,3.84c-2.11.93.45,1.85.45,1.85-.68-.45-.9-.77-.8-1s1-.55,2.25-.7c-.7.11-1.8.34-2,.74s.57,1,.57,1-.49-.53-.14-1A5.47,5.47,0,0,1,55.62,59.75Z"/><path class="cls-4" d="M48.37,55.12c4,.43,10.38-.32,10.71,1.09.37,1.59-5.43,2.37-6.51,3.13s-.39,1.12-.39,1.12c-.53-.89,2-1.39,4.41-2,1.91-.52,3.72-1.07,3.88-2.06a1,1,0,0,0-.09-.58c-.26-.63-1-1-2-1.07h-.12a12.69,12.69,0,0,0-1.88,0h-.19l-1.44.09a33.65,33.65,0,0,1-6.39.18c-5-.61-5.61-4.48-5.61-4.48H41.9C41.85,51,42.55,54.49,48.37,55.12Z"/></mask><linearGradient id="Áåçûìÿííûé_ãðàäèåíò_578" x1="55.42" y1="60.08" x2="52.25" y2="48.69" gradientUnits="userSpaceOnUse"><stop offset="0" stop-color="#47defc"/><stop offset="0.08" stop-color="#49d9fc"/><stop offset="0.18" stop-color="#4eccfa"/><stop offset="0.28" stop-color="#58b5f8"/><stop offset="0.38" stop-color="#6596f4"/><stop offset="0.49" stop-color="#756ef0"/><stop offset="0.57" stop-color="#844aec"/><stop offset="0.67" stop-color="#8b4aec"/><stop offset="0.81" stop-color="#9f4aec"/><stop offset="0.99" stop-color="#c04aec"/><stop offset="1" stop-color="#c24aec"/></linearGradient></defs><title>Fichier 4</title><g class="cls-5"><g id="Calque_2" data-name="Calque 2"><g id="Logo_1"><g id="APN_aurore" data-name="APN + aurore"><path class="cls-6" d="M42.75,1.37c-1.57.06-3.25,0-4.81-.08-1.75-.09-3.5.18-5.24.25A16.29,16.29,0,0,0,27,2.43c-2,.9-2.64,2.64-3.66,4.42a9.12,9.12,0,0,1-.95,1.6,4.55,4.55,0,0,1-2.18,1.09c-3.55,1-7.12,1.11-10.77,1.55-2.52.3-5,.37-6.14,2.95a24.6,24.6,0,0,0-1.8,8C1.16,26.1,1,30.17,1,34.21c0,4.81-.25,9.64.08,14.44.1,1.37.24,3.71,1.33,4.69a5.07,5.07,0,0,0,2.2.76,19.45,19.45,0,0,0,3.2.62c3.05.3,6.14.27,9.19.39,3.68.14,7.4.24,11.08.13,2-.07,4.4.66,6.39.22,1.3-.29,1-2,1-3.18a26.45,26.45,0,0,0-1-5.79c-.35-1.59-.61-4.07.52-5.39,1.48-1.75,4.58-1.5,6.64-1.6,4.72-.24,9.44-.65,14.16-.94,1.93-.11,3.87-.32,5.81-.37a4.63,4.63,0,0,1,2.42.52c.79.54.72,1.69.7,2.54,0,2.07.76,4,.8,6a8.38,8.38,0,0,0,2.26,5.37c1.25,1.21,3.77,1.93,5.07.41a8.37,8.37,0,0,0,1.29-3.51,29.89,29.89,0,0,0,.5-5.43c.12-3.42-.05-6.85-.13-10.27-.14-6.11.72-12.45-.39-18.51-.4-2.21-2.3-3.08-4.29-3.71-5.06-1.59-10.63.71-15.6-1.48a14.61,14.61,0,0,1-4-2.24,14.86,14.86,0,0,1-2.73-4.22C46.45,1.55,44.44,1.58,42.75,1.37Z"/><path class="cls-6" d="M63.09,1.37c-1.19,0-2.38-.06-3.56-.07s-2.78-.29-3.8.36c-1.53,1-2.38,3.91-.85,5.11a6.9,6.9,0,0,0,3.59,1.14c2,.23,4,.41,6,.46,1.28,0,3.09.35,4.19-.49s.84-2.12.77-3.22a3.48,3.48,0,0,0-1.57-3A7.54,7.54,0,0,0,63.09,1.37Z"/><path class="cls-6" d="M13.14.64a40.42,40.42,0,0,0-4.52.2c-.95,0-2.29-.31-3.18.1-1.09.5-.68,2-.64,3,0,.78,0,2.2.6,2.81s2.71.78,3.67.93a25.29,25.29,0,0,0,5.57.13c2.63-.18,3.6-1.23,3.83-3.89.11-1.22.16-2.27-1.12-2.71A9.72,9.72,0,0,0,13.14.64Z"/><path class="cls-7" d="M57.62,8.5a4.39,4.39,0,0,0-.14,1.61c.2.84,1.19.66,1.89.71a37.31,37.31,0,0,0,4.33.42c.66,0,1.47.08,1.94-.33s1-1.93.29-2.33a7.71,7.71,0,0,0-2.37-.21c-.92-.08-1.85-.15-2.77-.2C59.71,8.11,57.82,7.43,57.62,8.5Z"/><path class="cls-7" d="M11.4,7.7c-1,.35-2.67-.38-3.56.34-.49.39-.37,1.64-.17,2.2s.5.66,1.23.67c1.39,0,2.77-.34,4.16-.4s2.38,0,2.14-1.61c-.09-.63-.2-.93-.88-1.08a3.72,3.72,0,0,0-1.2,0A8,8,0,0,1,11.4,7.7Z"/><path class="cls-6" d="M31.28,20.24A32,32,0,0,0,27.77,22,15.27,15.27,0,0,0,21.36,34c-.16,3.54.26,7.51,2.48,10.4,1.59,2.06,4.33,3.32,6.7,4.22a6.88,6.88,0,0,0,2.86.55c1.45-.12,1.1-1.9,1-3-.17-1.67-.63-3.34.06-5S36.52,39.86,38,39.9c2.71.08,5.59-.21,8.29-.4a17.68,17.68,0,0,0,4.09-.83c2.42-.77,2.64-4.26,2.45-6.43A15.25,15.25,0,0,0,50,25.71a13.64,13.64,0,0,0-5.88-4.59,18.06,18.06,0,0,0-7.75-1.88A16.11,16.11,0,0,0,31.28,20.24Z"/><path class="cls-8" d="M29.34,25.31c-1.37.82-2.4,2.86-3.07,4.3a12.16,12.16,0,0,0-.93,5.75,12.26,12.26,0,0,0,4.2,8.76,5.28,5.28,0,0,0,2.19,1.4,3.88,3.88,0,0,0,1.95.2c1.28-.61.63-3.51,1-4.56.45-1.23,2.93-1.28,4-1.38,2.71-.24,6.69,1,8.18-1.93a10.23,10.23,0,0,0-.2-8.62A11.79,11.79,0,0,0,38,23.31a16.57,16.57,0,0,0-5.07.18A11.12,11.12,0,0,0,29.34,25.31Z"/><path class="cls-9" d="M26.54,22.71c-1.6,1.89-3.43,3.71-4.35,6.1-1.11,2.86-1,5.94-.67,8.92a19.65,19.65,0,0,0,.82,3.8c.32,1,1.13,2,1.36,3,.25,1.19-.92,1-1.79.85a33,33,0,0,0-5.26,0A84,84,0,0,1,6,44.83c-1.31-.12-2.65-.07-3.94-.3-1-.18-.87-.44-1-1.45C.49,39.44.86,35.59,1,31.91c.09-2.11.08-4.23.17-6.35,0-1-.4-3,.68-3.52a3.63,3.63,0,0,1,1.64,0c1.39.12,2.75.15,4.15.14,3.09,0,6.15-.29,9.24-.07,2.58.18,5.15-.15,7.71-.07C25,22.05,27.48,22.19,26.54,22.71Z"/><path class="cls-9" d="M48.68,22.78c4.22,0,8.4,0,12.62.06,2.2.05,4.41.2,6.61.2,1.66,0,3.33-.14,5-.06.84,0,1.14,0,1.4.76A13.88,13.88,0,0,1,74.83,28a98.64,98.64,0,0,1-.52,11.4c-.18,1.53-.22,3.08-.35,4.61-.07.74.07,1.65-.74,1.89a10.79,10.79,0,0,1-2.66,0c-1.41,0-2.81.19-4.23.13a1.6,1.6,0,0,1-1.75-1.37,24.88,24.88,0,0,1-.76-4.39c-.18-1.52,0-2.57-1.81-2.57-3,0-6,.69-9,.85-2,.11-.85-1-.52-2.25a8.38,8.38,0,0,0,.32-3.94,16,16,0,0,0-2.19-5.24,17.63,17.63,0,0,0-1.73-2.29c-.28-.3-.87-.76-.92-1.2S48.44,22.85,48.68,22.78Z"/><path class="cls-10" d="M37.48,5.84A16.31,16.31,0,0,0,35,5.71a12.21,12.21,0,0,0-2.18,0,5.15,5.15,0,0,0-3.38,1.41c-.39.44-.85.79-1.24,1.21A8.77,8.77,0,0,0,27.09,10c-.48.86-1.32,2.32-.53,3.26,1.17,1.39,3.93,1.08,5.48,1.14,3,.11,5.94.3,8.9.44a10.28,10.28,0,0,0,4.81-.52c1.23-.6,1-1.55.62-2.7A18.66,18.66,0,0,0,43.83,7a2.2,2.2,0,0,0-2-1.13A16.62,16.62,0,0,0,37.48,5.84Z"/><path class="cls-10" d="M14.21,14.11c-1.55.29-3.32-.06-4.87.41-1.14.35-1.64,3-.6,3.77.51.38,1.66.21,2.32.27a23.3,23.3,0,0,1,3.11.45c1.58.34,4.27.94,4.64-1.14.17-1,.29-2.56-.59-3.25S15.22,14.05,14.21,14.11Z"/><path class="cls-10" d="M60.69,15c-1.56,0-3.92-.54-5.22.52a2.37,2.37,0,0,0-.78,2c-.06,1.16.24,1.47,1.33,1.78a19.13,19.13,0,0,0,4.47.47,34.66,34.66,0,0,0,4.67,0c.73-.07,1.61,0,2.08-.65a3.15,3.15,0,0,0,.38-2.29c-.17-1.14-.61-1.42-1.79-1.6C64.13,14.92,62.38,15.08,60.69,15Z"/><path class="cls-10" d="M14.54,47.78c-.48-.13-.83,1.38-.66,1.83a1.72,1.72,0,0,0,1.34,1,1.5,1.5,0,0,0,1.27-2.52C16,47.46,15.32,47.5,14.54,47.78Z"/><path class="cls-11" d="M35,50.92a49.45,49.45,0,0,0,2.4,8.53,30.14,30.14,0,0,0,4.52,8.92,6.81,6.81,0,0,0,4.71,3c5.3.28,10.62-1.16,15.84-1.87,3.11-.43,6.24-.73,9.3-1.42a10.45,10.45,0,0,0,2.73-.86,2.7,2.7,0,0,0,1-.81c.13-.28,0-.58.17-.76-1.83-3.3-3.79-6.56-5.92-9.67a46.22,46.22,0,0,1-3-4.8,24.9,24.9,0,0,1-2.29-11.42c0-1.45-.54-1.81-1.91-1.81-2.7,0-5.39.14-8.08.14a97.45,97.45,0,0,0-10.9,1.11c-2.37.26-4.76.38-7.13.62-1.76.18-1.76,2-1.85,3.48A25.09,25.09,0,0,0,35,50.92Z"/><path class="cls-12" d="M54.49,42.85a34,34,0,0,0-4,.47c-1.48.08-3,.19-4.47.13a39.27,39.27,0,0,0-4.06,0,7,7,0,0,0-2.33.21c-.81.39-.74,1.47-.78,2.27a14.55,14.55,0,0,0,.43,3.52c.24,1.28.6,2.53.78,3.82a33.51,33.51,0,0,0,.67,4.55,23.78,23.78,0,0,0,3.4,7.24c1.6,2.23,4.44,1.94,6.87,1.71,5-.45,10-.86,14.9-1.65,1-.16,2.63-.18,3.12-1.26s-.79-2.75-1.3-3.67a47.71,47.71,0,0,0-4.11-5.53,14.33,14.33,0,0,1-2.21-5.24,14.73,14.73,0,0,1-.4-3.86,12.64,12.64,0,0,0,0-2.75c-.31-1.26-2.71-.32-3.66-.17S55.11,42.78,54.49,42.85Z"/><path class="cls-13" d="M56.62,54.52a7.26,7.26,0,0,1-4.14.53,19,19,0,0,0-5,0c-1.66.25-3.41.2-5.07.38-.37,0-1.63,0-1.86.31-.48.62.48,2.64.73,3.24a23.14,23.14,0,0,0,1.47,3.1c.56.94.74.78,1.6.18a17,17,0,0,1,2.93-1.46,16.46,16.46,0,0,0,3.07-1.89,2.09,2.09,0,0,1,2.5-.22c1.33.51,2.64,1,4,1.47a29.81,29.81,0,0,0,5.14.94,19.56,19.56,0,0,0,4.5.48c1.72-.17.67-1.29.17-2.44-.74-1.72-2.07-3-3.16-4.49-.61-.83-.78-.86-1.78-.81a22.59,22.59,0,0,0-3.68.34A4.85,4.85,0,0,0,56.62,54.52Z"/><g class="cls-14"><g id="Aurores"><path class="cls-15" d="M53.69,61.52S51,61.21,51,60s4.61-2.08,4.17-3.25-12.93,1.38-14.89-3.07V56.4s.8,1,3.64,1.16c5.52.26,9.27-1.16,9.43-.41S50,58.77,50.19,60.21,53.69,61.52,53.69,61.52Z"/><path class="cls-16" d="M46.41,50.46s-.37,3,2.19,3.22,5.56-1,8.53-1.3S62,53.19,62.67,54c0,0-1.67-2.23-5.61-1.93s-7.46,2-8.92,1c-1.06-.72-.58-2.56-.58-2.56Z"/><path class="cls-16" d="M64.14,56a2.64,2.64,0,0,1-.85,2.12,6.65,6.65,0,0,1-2.76,1.19,4.9,4.9,0,0,0,3.07-1A2.08,2.08,0,0,0,64.14,56Z"/><path class="cls-17" d="M53.69,61.52s-2.56-.92-.45-1.85c2.39-1.05,8.45-1.41,7.64-3.84s-7.28-1.15-10.6-1c-2.43.13-6.56-.82-6.92-4.4h2.47s-.45,4.09,4.09,3.47,11.4-3.39,13.52,1.19c2.49,5.37-9.93,3.94-10.55,5.39C52.79,60.75,53,61.07,53.69,61.52Z"/><path class="cls-18" d="M49.92,53.93a5.16,5.16,0,0,1-2.23-.13s.58.54,2.73.21,9-2.12,11.39-.3c2.54,1.94,1.86,4.33-.89,5.23,2.1-.59,3.52-1.65,2.52-3.82C61.32,50.54,54.45,53.31,49.92,53.93Z"/><path class="cls-19" d="M53.69,61.52s-.77-.61-.57-1c.32-.58,2.58-.82,2.58-.82a6,6,0,0,0-2.15.84C53.2,61,53.69,61.52,53.69,61.52Z"/><path class="cls-20" d="M42.78,50.46s.58,3.87,5.61,4.48c4.45.55,10.94-1.48,12,.84,1.22,2.67-9.22,3-8.2,4.68,0,0-.69-.36.39-1.12s6.88-1.54,6.51-3.13c-.33-1.41-6.74-.66-10.71-1.09-5.82-.63-6.52-4.08-6.47-4.66Z"/><path class="cls-16" d="M53.72,54.86s5.63-.51,6.31,1c.5,1.12-2.11,2.13-3.46,2.57,2.26-.61,4.39-1.26,3.81-2.64S57.14,54.54,53.72,54.86Z"/><path class="cls-21" d="M40.63,55.44a5.7,5.7,0,0,0,1,.63,7.73,7.73,0,0,0,1.5.52c.29.07.58.12.89.17l1,.13c.66.06,1.35.1,2.08.11s1.46,0,2.21,0,1.52-.09,2.29-.15l1.14-.08c.38,0,.75,0,1.12,0a3,3,0,0,1,.53.06.46.46,0,0,1,.2.08l0,0h0v0a.47.47,0,0,1-.12.16l-.2.15a4,4,0,0,1-.44.27c-.61.34-1.23.64-1.79,1a6.27,6.27,0,0,0-.77.55,2.5,2.5,0,0,0-.33.32,1.25,1.25,0,0,0-.22.37.8.8,0,0,0-.05.21v.11s0,.07,0,.1a1,1,0,0,0,.17.37,1.69,1.69,0,0,0,.58.46,3.33,3.33,0,0,0,.6.25,4.32,4.32,0,0,0,.54.14l.47.09.31,0h0c-.18,0-.43-.08-.76-.16a5.25,5.25,0,0,1-1.1-.43,1.67,1.67,0,0,1-.52-.44.7.7,0,0,1-.09-.67,1,1,0,0,1,.21-.33,2.76,2.76,0,0,1,.3-.29,6.42,6.42,0,0,1,.77-.51c.28-.16.57-.31.87-.46l.93-.48.46-.28.23-.17a.52.52,0,0,0,.1-.11.38.38,0,0,0,.09-.15.28.28,0,0,0,0-.09v-.06h0v0h0a.38.38,0,0,0-.11-.16,1,1,0,0,0-.31-.13,2.86,2.86,0,0,0-.58-.06c-.39,0-.77,0-1.15,0l-1.14.08-2.28.15c-.75,0-1.49.05-2.2,0s-1.4,0-2.05-.12a12.68,12.68,0,0,1-1.8-.31,5.21,5.21,0,0,1-.76-.25,5.72,5.72,0,0,1-.65-.29,5.38,5.38,0,0,1-1-.63,3.61,3.61,0,0,1-.49-.51,1.27,1.27,0,0,1-.12-.18v.68A3.85,3.85,0,0,0,40.63,55.44Z"/><path class="cls-21" d="M53.39,61.5l-.3,0-.42-.05a6.38,6.38,0,0,1-1.12-.23,3.76,3.76,0,0,1-.65-.25,2,2,0,0,1-.3-.21.8.8,0,0,1-.23-.29.83.83,0,0,1,.05-.75A2,2,0,0,1,51,59a11.38,11.38,0,0,1,1.64-1c.3-.16.6-.31.89-.5l.21-.16a.6.6,0,0,0,.16-.19.28.28,0,0,0,0-.12.14.14,0,0,0-.06-.12.55.55,0,0,0-.25-.1,4.87,4.87,0,0,0-.54,0l-.54,0L51.44,57c-.72.09-1.44.18-2.15.25s-1.42.14-2.1.18a20.53,20.53,0,0,1-3.72-.06A7.09,7.09,0,0,1,42,57,6.92,6.92,0,0,1,41,56.59a4.72,4.72,0,0,1-.61-.37l-.08-.06v.07l0,0a6.27,6.27,0,0,0,.63.37,8,8,0,0,0,1,.43,9.1,9.1,0,0,0,1.46.31,20.79,20.79,0,0,0,3.73,0c.68,0,1.39-.1,2.1-.18L51.45,57l1.08-.12.54,0a4.87,4.87,0,0,1,.54,0,.57.57,0,0,1,.24.09.16.16,0,0,1,0,.11.2.2,0,0,1,0,.11.75.75,0,0,1-.17.19,1.49,1.49,0,0,1-.2.15,8.74,8.74,0,0,1-.89.5A10.11,10.11,0,0,0,51,59a2.09,2.09,0,0,0-.58.65.9.9,0,0,0,0,.78,1,1,0,0,0,.23.31,2.82,2.82,0,0,0,.31.21,3,3,0,0,0,.66.26,6.38,6.38,0,0,0,1.12.23c.25,0,.45.06.61.07h.39Z"/><path class="cls-21" d="M53.66,61.52h0l-.21,0h0Z"/><path class="cls-21" d="M53.09,61.46l.3,0,.27,0-.24,0h0Z"/><path class="cls-21" d="M53.09,61.46l.3,0,.27,0-.24,0h0Z"/><path class="cls-22" d="M53.6,61.47h0l.08,0h0l-.09,0-.12-.07-.11-.07-.06,0-.3-.22a.85.85,0,0,1-.17-.16l0,0a1.08,1.08,0,0,1-.18-.23.35.35,0,0,1-.05-.3.29.29,0,0,1,.08-.14l.14-.13a2.81,2.81,0,0,1,.75-.41,14.11,14.11,0,0,1,2-.57l1.19-.24c.41-.09.83-.17,1.26-.28a11.32,11.32,0,0,0,1.31-.38,4.68,4.68,0,0,0,1.26-.64,1.87,1.87,0,0,0,.48-.53,1.48,1.48,0,0,0,.22-.67,2.17,2.17,0,0,0,0-.36,2.21,2.21,0,0,0-.08-.35,1.7,1.7,0,0,0-.36-.64,2.3,2.3,0,0,0-.61-.45,3.73,3.73,0,0,0-.73-.26A8.14,8.14,0,0,0,58,54.12q-.78,0-1.56,0c-.52,0-1,.06-1.54.1-1,.07-2,.18-3,.25-.48,0-1,.07-1.42.08l-.69,0c-.23,0-.45,0-.67,0a7.6,7.6,0,0,1-2.42-.48A5,5,0,0,1,44.94,53a4.56,4.56,0,0,1-.89-1.25,4,4,0,0,1-.33-.92,2.16,2.16,0,0,1,0-.25.44.44,0,0,1,0-.09h0a.62.62,0,0,0,0,.09s0,.14.05.25a4.84,4.84,0,0,0,.33.93A5,5,0,0,0,44.89,53a4.8,4.8,0,0,0,.75.63,5,5,0,0,0,1,.53,4.61,4.61,0,0,0,.56.2,5.25,5.25,0,0,0,.6.16c.1,0,.21,0,.31.06l.32,0c.22,0,.44.05.67.06s.45,0,.68,0h.7l1.43-.09,3-.27c.51,0,1-.08,1.54-.1s1,0,1.54,0a7.81,7.81,0,0,1,1.53.19,3.75,3.75,0,0,1,.71.25,1.91,1.91,0,0,1,.58.43,1.46,1.46,0,0,1,.35.6,2,2,0,0,1,.08.33,2,2,0,0,1,0,.34A1.3,1.3,0,0,1,61,57a1.87,1.87,0,0,1-.46.51,4.54,4.54,0,0,1-1.23.65,10.63,10.63,0,0,1-1.3.38c-.86.21-1.69.36-2.45.52a11.94,11.94,0,0,0-2,.56,3.06,3.06,0,0,0-.76.42l-.15.14a.59.59,0,0,0-.1.17.54.54,0,0,0,0,.18.46.46,0,0,0,.07.16,1.33,1.33,0,0,0,.41.41,3.18,3.18,0,0,0,.37.24l.33.16-.08,0Z"/><path class="cls-22" d="M53,61.09l.06,0L53,61.08l0,0-.06,0Z"/><path class="cls-22" d="M53.22,61.25l.09.06-.2-.15L53,61.09l0,0h0A1.63,1.63,0,0,0,53.22,61.25Z"/><path class="cls-23" d="M44.3,50.55c0,.06,0,.15,0,.27a4.39,4.39,0,0,0,.24,1,3.75,3.75,0,0,0,.86,1.3,4,4,0,0,0,.78.6,4.76,4.76,0,0,0,1,.45,8.15,8.15,0,0,0,2.49.35,27.73,27.73,0,0,0,2.81-.18c1-.09,2-.21,3-.29.51,0,1-.07,1.55-.09a13.55,13.55,0,0,1,1.56,0,5.57,5.57,0,0,1,1.51.32,2.82,2.82,0,0,1,.66.36,1.65,1.65,0,0,1,.49.53,2,2,0,0,1,.27.65c0,.12,0,.23,0,.35a1.93,1.93,0,0,1,0,.34,1.62,1.62,0,0,1-.25.64,2.07,2.07,0,0,1-.48.5,4.57,4.57,0,0,1-1.23.66,11.49,11.49,0,0,1-1.31.4c-.86.22-1.7.37-2.46.52s-1.47.28-2.08.46A3.52,3.52,0,0,0,53,60a.87.87,0,0,0-.27.27.52.52,0,0,0-.06.16.29.29,0,0,0,0,.16.58.58,0,0,0,.14.27l0,0,.06.06-.08-.09a.79.79,0,0,1-.15-.27.43.43,0,0,1,0-.16.35.35,0,0,1,.06-.16.82.82,0,0,1,.27-.25,3.13,3.13,0,0,1,.81-.34c.6-.17,1.31-.3,2.08-.44s1.6-.29,2.47-.51a9.78,9.78,0,0,0,1.31-.4,4.84,4.84,0,0,0,1.25-.66,2.47,2.47,0,0,0,.5-.52,1.61,1.61,0,0,0,.25-.66,2.17,2.17,0,0,0,0-.36,2.53,2.53,0,0,0-.33-1,2.05,2.05,0,0,0-.51-.55,3,3,0,0,0-.68-.36,5.35,5.35,0,0,0-1.53-.32,11.61,11.61,0,0,0-1.56,0c-.52,0-1,0-1.55.09-1,.08-2,.2-3,.3a27.92,27.92,0,0,1-2.81.18,9.08,9.08,0,0,1-1.3-.08,6,6,0,0,1-1.18-.26,5.52,5.52,0,0,1-1-.46,3.37,3.37,0,0,1-.77-.6,3.68,3.68,0,0,1-.83-1.29,4,4,0,0,1-.21-.95c0-.11,0-.2,0-.26v-.08h-.1Z"/><path class="cls-22" d="M53.34,61.33l0,0-.09-.06Z"/><path class="cls-23" d="M53.34,61.33l0,0-.09-.06Z"/><path class="cls-22" d="M53,61.09l-.11-.1-.06-.06a.85.85,0,0,0,.17.16l.3.22-.24-.18Z"/><path class="cls-23" d="M53,61.09l-.11-.1-.06-.06a.85.85,0,0,0,.17.16l.3.22-.24-.18Z"/><path class="cls-23" d="M45,50.82a4.32,4.32,0,0,0,.23,1,3.78,3.78,0,0,0,.3.66,3.82,3.82,0,0,0,.51.69,3.52,3.52,0,0,0,.78.61,4,4,0,0,0,1,.42,5.88,5.88,0,0,0,1.22.17,11.62,11.62,0,0,0,1.32,0c.45,0,.92-.06,1.39-.1l1.45-.13c1-.1,2-.2,3-.26q.78,0,1.56,0a11.43,11.43,0,0,1,1.55.12,4.88,4.88,0,0,1,1.43.45,3,3,0,0,1,.57.42,2.17,2.17,0,0,1,.39.56,2.38,2.38,0,0,1,.2.64v.33a1.12,1.12,0,0,1-.05.31,1.83,1.83,0,0,1-.79,1,5.49,5.49,0,0,1-1.22.65,13.17,13.17,0,0,1-1.3.43c-.86.25-1.69.43-2.46.59L55,59.58c-.35.07-.68.15-1,.23a4.71,4.71,0,0,0-.85.28,1.08,1.08,0,0,0-.33.2.36.36,0,0,0-.11.14.3.3,0,0,0,0,.16.56.56,0,0,0,.1.29L53,61l0,0a1,1,0,0,1-.17-.19.57.57,0,0,1-.11-.29.5.5,0,0,1,0-.16.69.69,0,0,1,.11-.13,1.24,1.24,0,0,1,.33-.21,4.72,4.72,0,0,1,.85-.26c.31-.08.65-.14,1-.2l1.12-.19c.78-.14,1.62-.27,2.51-.48A11.85,11.85,0,0,0,60,58.57c.23-.08.45-.17.68-.27a6,6,0,0,0,.65-.37,3,3,0,0,0,.57-.51,1.78,1.78,0,0,0,.37-.69,2.32,2.32,0,0,0,.06-.38,1.34,1.34,0,0,0,0-.2v-.07h0V56a2.7,2.7,0,0,0-.23-.73,2.26,2.26,0,0,0-.46-.65,2.61,2.61,0,0,0-.67-.47,4.47,4.47,0,0,0-1.55-.46,9.6,9.6,0,0,0-1.6-.09c-.53,0-1.06,0-1.57.09-1,.09-2,.22-3,.35l-1.45.17c-.47,0-.93.1-1.38.13s-.89,0-1.32,0a6.2,6.2,0,0,1-.62-.06,3.63,3.63,0,0,1-.59-.11,4.19,4.19,0,0,1-1-.42,3.4,3.4,0,0,1-.77-.61,3.74,3.74,0,0,1-.5-.69,4.9,4.9,0,0,1-.28-.65,4.49,4.49,0,0,1-.2-1c0-.11,0-.2,0-.26v-.08h-.09v.1C44.94,50.62,44.94,50.7,45,50.82Z"/><path class="cls-22" d="M53.68,61.52h0Z"/><path class="cls-23" d="M53.68,61.52h0Z"/><path class="cls-22" d="M53.36,61.35l-.06,0,.06,0,.11.07-.06,0Z"/><path class="cls-23" d="M53.36,61.35l-.06,0,.06,0,.11.07-.06,0Z"/><path class="cls-22" d="M53.06,61.13a.61.61,0,0,0,.16.12,1.63,1.63,0,0,1-.22-.17h0l0,0,0,0Z"/><path class="cls-23" d="M53.06,61.13a.61.61,0,0,0,.16.12,1.63,1.63,0,0,1-.22-.17h0l0,0,0,0Z"/><path class="cls-22" d="M53.41,61.37l-.07,0h0l-.12-.08a.61.61,0,0,1-.16-.12l.24.18.06,0Z"/><path class="cls-23" d="M53.41,61.37l-.07,0h0l-.12-.08a.61.61,0,0,1-.16-.12l.24.18.06,0Z"/><path class="cls-23" d="M53.41,61.37l-.07,0h0l-.12-.08a.61.61,0,0,1-.16-.12l.24.18.06,0Z"/><path class="cls-22" d="M45.38,50.55c0,.06,0,.16,0,.28a4.2,4.2,0,0,0,0,.44,3.83,3.83,0,0,0,.14.59,3.43,3.43,0,0,0,.3.7,3,3,0,0,0,.56.7,3.2,3.2,0,0,0,.87.57,4.87,4.87,0,0,0,1.12.33c.21,0,.41.05.63.06h.65c.44,0,.9-.07,1.36-.13C52,54,53,53.82,54,53.67s2.06-.28,3.13-.34a12.51,12.51,0,0,1,1.62,0,7.34,7.34,0,0,1,1.61.22,3.71,3.71,0,0,1,1.42.66,2.51,2.51,0,0,1,.52.56,2.78,2.78,0,0,1,.33.67,2,2,0,0,1,.09.35,1.16,1.16,0,0,1,0,.18s0,.06,0,.09v.09a2.13,2.13,0,0,1-.09.71,2.08,2.08,0,0,1-.34.62,3.12,3.12,0,0,1-.53.5,5.4,5.4,0,0,1-1.31.67,11.25,11.25,0,0,1-1.37.4c-.9.21-1.78.35-2.59.46s-1.56.21-2.21.33a5.77,5.77,0,0,0-.91.22,1.53,1.53,0,0,0-.37.16.64.64,0,0,0-.15.13.36.36,0,0,0-.1.15.52.52,0,0,0,0,.33.81.81,0,0,0,.17.24l.12.11.26.18.23.13-.24-.15A1.78,1.78,0,0,1,53,61a.61.61,0,0,1-.15-.23.41.41,0,0,1,0-.29.46.46,0,0,1,.23-.25,1.33,1.33,0,0,1,.36-.17,5.37,5.37,0,0,1,.9-.23c.65-.12,1.4-.2,2.21-.31s1.69-.23,2.61-.43a10.61,10.61,0,0,0,1.38-.39,5.24,5.24,0,0,0,.69-.28,3.81,3.81,0,0,0,.65-.38,2.77,2.77,0,0,0,.56-.52,2.2,2.2,0,0,0,.37-.67,2.34,2.34,0,0,0,.1-.75V56s0-.07,0-.1l0-.18c0-.13-.06-.25-.1-.37a3.27,3.27,0,0,0-.35-.7,2.73,2.73,0,0,0-.55-.58,3.88,3.88,0,0,0-1.47-.68,8.27,8.27,0,0,0-1.63-.21,14.72,14.72,0,0,0-1.63,0c-1.08.08-2.12.23-3.14.38s-2,.32-2.91.44c-.47.06-.92.1-1.36.12a5.89,5.89,0,0,1-1.27-.06,4.23,4.23,0,0,1-1.11-.34,2.85,2.85,0,0,1-.84-.58,2.71,2.71,0,0,1-.51-.7,3.16,3.16,0,0,1-.25-.68,3.68,3.68,0,0,1-.1-1c0-.12,0-.21,0-.26V50.5s0,0,0,0h-.27v.09Z"/><path class="cls-22" d="M53.68,61.52h0Z"/><path class="cls-22" d="M53.68,61.52h0Z"/><path class="cls-22" d="M53.6,61.48l-.13-.07.12.07.09,0,0,0Z"/><path class="cls-22" d="M53.6,61.48l-.13-.07.12.07.09,0,0,0Z"/><path class="cls-22" d="M53.11,61.16l.2.15,0,0a1.75,1.75,0,0,0,.24.14l0,0h0l-.08,0h0l-.23-.13Z"/><path class="cls-22" d="M53.11,61.16l.2.15,0,0a1.75,1.75,0,0,0,.24.14l0,0h0l-.08,0h0l-.23-.13Z"/><path class="cls-22" d="M53.63,61.49l0,0,0,0Z"/><path class="cls-23" d="M53.63,61.49l0,0,0,0Z"/><path class="cls-22" d="M53.63,61.49l0,0,0,0Z"/><path class="cls-22" d="M53.36,61.34a1.75,1.75,0,0,0,.24.14l0,0,0,0a1.75,1.75,0,0,1-.24-.14l0,0,0,0Z"/><path class="cls-23" d="M53.36,61.34a1.75,1.75,0,0,0,.24.14l0,0,0,0a1.75,1.75,0,0,1-.24-.14l0,0,0,0Z"/><path class="cls-22" d="M53.36,61.34a1.75,1.75,0,0,0,.24.14l0,0,0,0a1.75,1.75,0,0,1-.24-.14l0,0,0,0Z"/><path class="cls-22" d="M53.65,61.5h0Z"/><path class="cls-23" d="M53.65,61.5h0Z"/><path class="cls-22" d="M53.65,61.5h0Z"/><path class="cls-22" d="M53.63,61.49h0l-.19-.11.06,0,.13.07Z"/><path class="cls-23" d="M53.63,61.49h0l-.19-.11.06,0,.13.07Z"/><path class="cls-22" d="M53.63,61.49h0l-.19-.11.06,0,.13.07Z"/><path class="cls-22" d="M53.36,61.34h0l.07,0,.19.11h0l0,0A1.75,1.75,0,0,1,53.36,61.34Z"/><path class="cls-23" d="M53.36,61.34h0l.07,0,.19.11h0l0,0A1.75,1.75,0,0,1,53.36,61.34Z"/><path class="cls-23" d="M53.36,61.34h0l.07,0,.19.11h0l0,0A1.75,1.75,0,0,1,53.36,61.34Z"/><path class="cls-22" d="M53.36,61.34h0l.07,0,.19.11h0l0,0A1.75,1.75,0,0,1,53.36,61.34Z"/><path class="cls-21" d="M61.9,53.27a5.23,5.23,0,0,0-.78-.45,6.48,6.48,0,0,0-1.11-.4,8.33,8.33,0,0,0-1.4-.24l-.38,0h-.79l-.41,0a23,23,0,0,0-3.39.55L52,53.11c-.56.11-1.11.22-1.64.28a6.12,6.12,0,0,1-1.54,0l-.34-.07-.31-.11a1.93,1.93,0,0,1-.52-.33,1.83,1.83,0,0,1-.53-.88A2.84,2.84,0,0,1,47,51.2a3.22,3.22,0,0,1,0-.52.46.46,0,0,1,0-.14.29.29,0,0,1,0-.08h-.39v0a1.57,1.57,0,0,0,0,.16,4.38,4.38,0,0,0,0,.57,2.84,2.84,0,0,0,.14.88,2.13,2.13,0,0,0,.23.52,2.07,2.07,0,0,0,1,.86,2.17,2.17,0,0,0,.36.12,2.53,2.53,0,0,0,.38.07l.38,0c.4,0,.8,0,1.21-.07h0c.55-.08,1.1-.19,1.66-.32l1.69-.41A22.77,22.77,0,0,1,57,52.29l.4,0H58.6a8.12,8.12,0,0,1,1.39.21,5.87,5.87,0,0,1,1.12.38,5,5,0,0,1,.78.43,3,3,0,0,1,.45.36l.14.13h0l-.13-.14A3.65,3.65,0,0,0,61.9,53.27Z"/></g></g><path class="cls-9" d="M53.62,66.79a8.55,8.55,0,0,1,2.58-.13,27,27,0,0,0,4.38-.52,56.38,56.38,0,0,0,6.7-1.23c1.56-.47,1.85-1.46,1.06-2.85-.34-.61-.47-.8-1.18-.8s-1.28,0-2,0a44.4,44.4,0,0,1-10.95-1.88c-1.18-.39-2.31-1.25-3.48-.66-1.4.7-2.76,1.58-4.1,2.37-.72.42-1.41.8-2.16,1.17s-1.32.46-1,1.23c.23.56,1,1.14,1.43,1.59a9.18,9.18,0,0,0,1.3,1.27c1.09.78,2.51.64,3.78.64A15,15,0,0,0,53.62,66.79Z"/><path class="cls-24" d="M42.69,28.48A7.06,7.06,0,0,0,39.52,26h0a3.27,3.27,0,0,0-2.1.06,3,3,0,0,0-1.85,2.38,3.47,3.47,0,0,0,1.68,2.51c1.17.84,2.64,1.7,2.39,3.37-.14,1-.31,1.94.85,2.3A2.71,2.71,0,0,0,42.94,36,4.88,4.88,0,0,0,44,32.8,7.33,7.33,0,0,0,42.69,28.48Z"/><path d="M68.77,61.21a21.08,21.08,0,0,0-1.23-2c-.47-.76-1-1.42-1.54-2.15a35.56,35.56,0,0,1-3-4.25,15,15,0,0,1-1.49-6.58c0-1.1,0-2.19,0-3.29,0-.67-.24-1.25-1-1.31a3.4,3.4,0,0,0-1.12.27,5.51,5.51,0,0,1-1.67.1,9.89,9.89,0,0,0-1.44,0,10.9,10.9,0,0,1-1.51.17,23.61,23.61,0,0,0-3.13.27,6.58,6.58,0,0,0-1.4.21l-.2.07a7.84,7.84,0,0,1-1,.11c-.93,0-1.87,0-2.81,0s-2,.21-3,.2-2,0-3,0a1.59,1.59,0,0,0-1.47.87c-.75,1.45-.31,3.32-.22,4.84a19.8,19.8,0,0,0,.58,2.73,24.54,24.54,0,0,1,.4,3.2A16.29,16.29,0,0,0,41,60c.32.75.72,1.48,1.09,2.22.2.41.41.84.65,1.24s.54.66.77,1a4.78,4.78,0,0,0,.53.82c.28.32.63.49.9.84a3,3,0,0,0,1.73,1.21,12,12,0,0,0,2.61.17,21.62,21.62,0,0,0,3.22-.08c.84-.11,1.69-.09,2.53-.2.52-.07,1,0,1.54-.1s.81-.2,1.21-.26c2-.3,4-.41,5.95-.86,1.66-.37,3.78-.44,5.24-1.4S69.3,62.28,68.77,61.21Zm-28.13-6s-.23-2.29-.38-3.4c-.14-.92-.5-1.79-.64-2.71a18.25,18.25,0,0,1-.23-2.66c0-.77,0-2.24.92-2.36a22.2,22.2,0,0,1,3,0c1,0,2-.2,3-.2s1.88.08,2.81,0,1.88-.15,2.82-.19c.5,0,1-.14,1.47-.18s.8.05,1.21,0c.84-.14,1.68-.3,2.53-.37a1.69,1.69,0,0,0,.38-.07c.32,0,.65,0,1,0a5,5,0,0,0,1-.1,6.66,6.66,0,0,1,.88-.28,4.82,4.82,0,0,1,0,.93v1.58a16.47,16.47,0,0,0,.56,5c.28.92,1.71,4.15,1.82,4.3.88,1.23,1.81,2.46,2.76,3.63a9.3,9.3,0,0,1,1.35,2,4,4,0,0,0,.27.5c-.77-.14-1.6-.15-2.34-.21-1.08-.07-2.15-.28-3.22-.42-1.3-.17-2.6-.25-3.89-.5a24.75,24.75,0,0,1-3.48-1.12c-.95-.32-2.19-1-3.2-.63a16.83,16.83,0,0,0-2.79,1.59c-1,.58-2.06,1.22-3.07,1.84a8.66,8.66,0,0,0-1.75,1.13c-.16-.27-.32-.55-.47-.85a32.47,32.47,0,0,1-2-4.8c-.07-.23-.18-.69-.18-.69Zm27.73,8.52a7.24,7.24,0,0,1-2.68.79c-1.79.36-3.55.7-5.36.9-1.63.18-3.22.58-4.85.69s-3.43.38-5.17.36c-.88,0-1.78,0-2.66,0a2.8,2.8,0,0,1-1.27-.31c-.41-.25-.58-.73-.93-1a4.51,4.51,0,0,1-.71-.6c-.19-.26-.31-.57-.5-.83s-.24-.35-.36-.53a7.51,7.51,0,0,0,1.48-.84c.43-.27.87-.53,1.31-.78.62-.31,1.23-.63,1.83-1s1-.51,1.41-.82.6-.53.93-.75a2.11,2.11,0,0,1,.45-.18l.32,0a11.32,11.32,0,0,1,1.35.41c.52.14,1,.4,1.54.58l.94.31c.5.17,1,.3,1.52.42,1.52.37,3,.63,4.6.9,1,.19,2.06.25,3.1.34a10.37,10.37,0,0,0,1.47.19c.35,0,.7-.08,1.05-.13l.25.07a.43.43,0,0,0,.46.08h0L68,62C68.2,62.46,68.86,63.35,68.37,63.72Z"/><path d="M74.62,61.44a19.22,19.22,0,0,1-2-2.81c-.64-1.08-1.44-2-2.09-3.11-.1-.16-.19-.32-.28-.48a6.43,6.43,0,0,0,2-.26,3.22,3.22,0,0,0,2.2-3c0-.39,0-.78.06-1.16a8,8,0,0,0,.13-1.08,8.66,8.66,0,0,1,.16-1,10.73,10.73,0,0,0,0-1.5c0-1.94.1-3.85.16-5.79,0-1,.23-1.91.32-2.87s0-1.68.09-2.52a42.07,42.07,0,0,0,.26-5.61c0-2,0-4,0-6a15.23,15.23,0,0,0,0-2.34c-.13-.82-.1-1.62-.2-2.45-.11-1-.13-2-.26-2.94A7.65,7.65,0,0,0,74.59,14a5.11,5.11,0,0,0-3-2.82A19.4,19.4,0,0,0,67,10.65h-.13a3.62,3.62,0,0,0-.06-1.35,3.12,3.12,0,0,0,2.07-.43c1.53-1.13,1.07-3.74.75-5.33a3.24,3.24,0,0,0-.9-2A4.52,4.52,0,0,0,66.26.78c-2.3-.13-4.65,0-7,0-1.36,0-3.71-.45-4.68.82a6.79,6.79,0,0,0-.86,2.1,5,5,0,0,0-.2,2.51C53.94,7.86,55.47,8.34,57,8.5c0,.15,0,.31-.07.47a5.49,5.49,0,0,0,0,.81l-1-.11a13.16,13.16,0,0,1-2.42-.41c-.43-.14-1-.19-1.37-.36A3.29,3.29,0,0,1,51,8a8.9,8.9,0,0,1-1-2.25c-.4-.81-1-1.46-1.47-2.24A7.61,7.61,0,0,0,47.36,1.6,4.23,4.23,0,0,0,45.5.68,11.49,11.49,0,0,0,42.69.57l-3.5,0c-1.16,0-2.31,0-3.47.1s-2.21,0-3.29.19-2,.13-3,.23A7.86,7.86,0,0,0,26.63,2a5.41,5.41,0,0,0-.59.35l-.2.1a6.24,6.24,0,0,0-1.78,1.73,9.86,9.86,0,0,0-1.31,2,12.6,12.6,0,0,1-1,1.88A2.07,2.07,0,0,1,20.19,9c-1,.15-2,.25-2.93.42a9.72,9.72,0,0,1-1.43.07,4.68,4.68,0,0,0-.09-.83.5.5,0,0,0,0-.12h.08c.36-.06.68-.13,1-.18a1.57,1.57,0,0,0,.93-.45A4.83,4.83,0,0,0,19.1,6.07a8.56,8.56,0,0,0,.14-1.24,5.74,5.74,0,0,0,.13-1.49,5.45,5.45,0,0,0-.53-2.16c-.49-.78-1.19-.77-2-.82S15.27.19,14.45.19A17.74,17.74,0,0,1,11.27.08a15,15,0,0,0-2.6,0C7.73.05,6.83.16,5.9.21S4.44.56,4.31,1.47a21.59,21.59,0,0,0,0,2.9c0,.16,0,.33,0,.49a7,7,0,0,0,0,1.58A1.72,1.72,0,0,0,5.46,8a1.87,1.87,0,0,0,.81.21l.9.14a3.91,3.91,0,0,0,0,1.83l0,0-.19,0a4.6,4.6,0,0,0-3.72,1.66A16.11,16.11,0,0,0,.94,16.79C-.17,20.6.79,24.7.28,28.58c-.12.89,0,1.79-.07,2.68S0,33.31,0,34.36c0,2,.05,4,.05,6.07,0,1,0,1.9,0,2.86s.17,1.9.21,2.86c.07,1.84,0,3.71.2,5.54a4.14,4.14,0,0,0,3,3.43,9.12,9.12,0,0,0,2.14.29c.94.05,1.87.34,2.81.44a61.29,61.29,0,0,0,6.5.09c2.23,0,4.48-.09,6.71.1s4.5.07,6.74.07h7.08c.18.38.37.76.58,1.14a37.94,37.94,0,0,0,2.4,6.16c.29.59.65,1.15,1,1.73s.67.91,1,1.41a15.45,15.45,0,0,0,2.07,2.78c.69.72,1.28,1.58,2,2.23a4.18,4.18,0,0,0,3.13.89c1.3,0,2.59-.3,3.87-.42.57-.05,1.09-.3,1.66-.3a7.34,7.34,0,0,0,1.74-.22,17.55,17.55,0,0,1,1.92-.17c.63-.09,1.26-.23,1.89-.34s1.19-.31,1.82-.37,1.37-.19,2.07-.28c2.76-.35,5.48-.91,8.22-1.41,1.17-.21,2.29-.66,3.45-.9a4,4,0,0,0,2.15-.93C77.84,65.53,75.67,62.7,74.62,61.44ZM17.5,2.08a3.83,3.83,0,0,1,.27,1.85,5.07,5.07,0,0,1-.43,2c-.12.17-.31.32-.45.48-.28.32-.14.25-.43.29l-.31.06,0-.43c0-.55,0-1.11,0-1.67,0-.72-.09-1.43-.11-2.15,0-.23,0-.44,0-.65C16.41,1.86,17.29,1.87,17.5,2.08ZM72.74,48.45a5.6,5.6,0,0,0-.14,1.08c0,.4-.14.76-.17,1.16,0,.61.13,1.51-.41,2s-2,.41-2.94.33l-.27-.52c-.25-.46-.59-.83-.82-1.3s-.53-1.14-.76-1.71c-.43-1.06-.8-2.14-1.12-3.23a3.38,3.38,0,0,1,.72-.1c.34,0,.68.13,1,.17.77.09,1.54,0,2.32.16a10,10,0,0,0,2.25.07.81.81,0,0,0,.39-.12A8.71,8.71,0,0,1,72.74,48.45Zm.92-22.35v5.65c0,1.65-.32,3.27-.35,4.91,0,2-.23,4-.41,5.93-.07.85-.11,1.68-.12,2.52a.69.69,0,0,0-.36-.1c-1.54,0-3.13,0-4.66-.18a4.68,4.68,0,0,0-1.9,0l-.14,0a10.61,10.61,0,0,1-.55-3.18A12.07,12.07,0,0,0,65.08,38c-.31-1.08-1.29-1.31-2.3-1.3-2.65,0-5.27.21-7.91.42-.75.05-1.5.15-2.25.25a3.51,3.51,0,0,0,.31-.61,15.72,15.72,0,0,0,.68-3.91,9.83,9.83,0,0,0-.92-4,10.58,10.58,0,0,0-1.86-3.51c-.39-.43-.7-.92-1.07-1.37a6.92,6.92,0,0,0-.6-.61h.49c.61,0,1.21,0,1.82,0,1.1,0,2.15.24,3.25.24s2.22.05,3.33,0a17.23,17.23,0,0,1,3.44-.13c2,.32,4.1,0,6.16.27a32.49,32.49,0,0,0,3.28.1,7.42,7.42,0,0,0,2.73-.36C73.65,24.36,73.66,25.23,73.66,26.1ZM48.53,32.8a15.48,15.48,0,0,0-.3-1.91c-.49-2.45-2.28-4.14-4-5.8a9,9,0,0,0-3-1.64,12.56,12.56,0,0,0-3.63-.75,11.61,11.61,0,0,0-3.38.13,12.78,12.78,0,0,0-2.61.82c-.25.07-.49.16-.74.25a6.46,6.46,0,0,0-2.79,1.79,10.15,10.15,0,0,0-.88,1.39c-.32.52-.73,1-1,1.49-1.3,2.24-1.35,4.9-1.35,7.42a8.43,8.43,0,0,0,.73,3.87,13.09,13.09,0,0,0,.79,1.48c.28.46.69.79,1,1.26a13,13,0,0,0,.9,1.09,9,9,0,0,0,1.67,1.46,6.79,6.79,0,0,0,1.71.89,13.43,13.43,0,0,1,1.77.43c0,.45.09.91.16,1.37a3,3,0,0,1-1,.06,11.29,11.29,0,0,1-1.72-.4,21.59,21.59,0,0,1-3-1.33c-2.14-1-4-2.44-4.75-4.76a16.4,16.4,0,0,1-.81-3.3,21,21,0,0,1,0-3.72,19.52,19.52,0,0,1,2-7,11.74,11.74,0,0,1,4.63-4.89c1.94-1,3.91-2.1,6.16-2.14.52,0,1-.15,1.52-.13s1.1.05,1.59.12a14.64,14.64,0,0,1,3.12.82,22.06,22.06,0,0,1,6.22,3.09,18.58,18.58,0,0,1,2.31,2.54,11.1,11.1,0,0,1,1.67,3.82,9.64,9.64,0,0,1,.47,1.81,11,11,0,0,1-.46,3.65c-.17.6-.24,1.47-.92,1.63-.33.07-2.69-.1-2.77.19a20.12,20.12,0,0,0,.89-3.17A10.29,10.29,0,0,0,48.53,32.8Zm-2.28,5.25a.22.22,0,0,0,0,.08c-1,.09-1.91.07-2.86.24-.62.11-1.21.05-1.83.11s-1,.16-1.61.17a22.06,22.06,0,0,0-3.71.41c-1,.2-2.13.14-2.49,1.37a6.39,6.39,0,0,0-.22,1.62c0,.68-.1,1.32-.16,2,0,.32,0,.64,0,1l-.49-.08a5.12,5.12,0,0,1-2-.77,8.69,8.69,0,0,1-2.54-2.55c-.34-.54-.84-.9-1.16-1.48a7.89,7.89,0,0,1-1-2.29,17.5,17.5,0,0,1-.05-5.11,8.67,8.67,0,0,1,1.26-3.93c.25-.38.5-.78.75-1.18a2.61,2.61,0,0,0,.22-.27,1.83,1.83,0,0,0,.14-.28,7.81,7.81,0,0,1,.71-.9,11.36,11.36,0,0,1,3.08-1.53,11.56,11.56,0,0,1,4-.77,15.46,15.46,0,0,1,3.86.66,7.8,7.8,0,0,1,3.56,2c.47.48,1,.86,1.48,1.35a8.07,8.07,0,0,1,1.12,1.7,11.07,11.07,0,0,1,1,3.89C47.39,35.15,46.59,36.43,46.25,38.05ZM65.73,7.7a12.71,12.71,0,0,0,.14-2.63A11.92,11.92,0,0,0,66,2.2c.67,0,1.61.07,2,.57A5.35,5.35,0,0,1,68.37,5a4.56,4.56,0,0,1-.13,2.38c-.35.63-1.13.46-1.73.43l-.8,0ZM63.29,2.21h1.79c0,.2,0,.39,0,.59a23.75,23.75,0,0,0-.39,4.62c0,.12,0,.24,0,.36a9.87,9.87,0,0,1-1.81-.13,1.14,1.14,0,0,1-.39-.16,1.57,1.57,0,0,0,0-.23c.07-.63,0-1.33.08-2a12.54,12.54,0,0,0-.14-3.07ZM60,4.45a12.9,12.9,0,0,0,0-2.24h1.76c-.08.74-.06,1.51-.12,2.25a15.32,15.32,0,0,0-.29,2.83c-.18,0-.37,0-.55,0L60,7.15c0-.37,0-.78,0-1.1C60,5.52,60,5,60,4.45Zm3.43,4.78c.75.06,1.5,0,2.26,0l-.15.67c0,.21-.1.4-.13.59-1.35-.12-2.7-.21-4-.23-.89,0-1.76-.28-2.65-.34l-.56,0a3.56,3.56,0,0,0,0-.92c0-.13,0-.26,0-.39C59.9,8.81,61.69,9.07,63.47,9.23ZM56.27,4c-.09.9-.21,1.86-.22,2.78-1.44-.4-1.12-2-.72-3.16.18-.53.3-1.18.88-1.34l.12,0C56.26,2.86,56.31,3.53,56.27,4Zm.65,2.92c0-1.06.18-2.12.25-3.18a9.59,9.59,0,0,0,.06-1.56l1,0h1a19,19,0,0,1-.28,3A8.41,8.41,0,0,0,58.85,7h-.31C58,7,57.46,7,56.92,6.94ZM15.2,1.76v.08a12.39,12.39,0,0,0,0,2.66c0,.79,0,1.57,0,2.36h-.48a7,7,0,0,0-.79,0c-.14-1.66.2-3.44-.13-5.08C14.31,1.76,14.75,1.74,15.2,1.76Zm-3.54,0a9.72,9.72,0,0,0,1.43.05c-.05.68,0,1.34-.05,2,0,1-.15,2.08-.14,3.13h0A14.71,14.71,0,0,1,11,7a8.67,8.67,0,0,0-.1-2v-.4a20.8,20.8,0,0,0-.06-2.49V2a1.28,1.28,0,0,0-.07-.36h0Zm1.58,6.81a7.19,7.19,0,0,1,1.39,0,2.08,2.08,0,0,0,0,1,14.55,14.55,0,0,1-2.71.26c-.85,0-1.68.16-2.53.17-.36,0-.73,0-1.09.08a.65.65,0,0,0,0-.24,9.87,9.87,0,0,1-.17-1.33,9.62,9.62,0,0,0,2.09.19A23.7,23.7,0,0,0,13.24,8.56Zm-3.37-7H10a19.29,19.29,0,0,0-.13,3.13c0,.52,0,1,0,1.55,0,.29,0,.53,0,.76a7.34,7.34,0,0,1-1.32-.1l-.37-.08s0-.06,0-.1,0-.08,0-.13c0-1,0-2,0-3.08a6.8,6.8,0,0,0-.16-1.3C8,2,8,1.81,8,1.59,8.61,1.59,9.24,1.61,9.87,1.6ZM6.07,6.55a1.81,1.81,0,0,1-.24-1.12V5.34h0c0-.74,0-1.49,0-2.23,0-.3,0-.6,0-.9a1.16,1.16,0,0,1,0-.32.43.43,0,0,0,0-.13H5.9a5.08,5.08,0,0,1,.69,0l.73-.1A14.62,14.62,0,0,0,7.1,4.79c0,.51,0,1,0,1.53,0,.11,0,.22,0,.33l-.4,0A2.21,2.21,0,0,1,6.07,6.55ZM2.2,20.07A11.69,11.69,0,0,1,3.45,15a9.34,9.34,0,0,1,1.39-2.31A2.69,2.69,0,0,1,6.65,12c1.52-.13,3-.19,4.55-.32.81-.07,1.63,0,2.45-.11s1.6-.24,2.41-.23a18.55,18.55,0,0,0,2.88-.24,10.1,10.1,0,0,0,2.57-.51,5.11,5.11,0,0,0,2.61-3.37A7.79,7.79,0,0,1,25.54,4.5l.72-.6a6.71,6.71,0,0,1,2-1l.61-.15a15.54,15.54,0,0,1,2.36,0c.78,0,1.54-.14,2.32-.15,1,0,2-.06,2.94-.09,1.94-.07,3.89,0,5.83,0,1.3,0,3.18-.36,4,.95.38.61.68,1.26,1.11,1.85a6.45,6.45,0,0,1,1.18,2.28,5,5,0,0,0,2.93,3.24c.73.22,1.51.45,2.26.62s1.71.2,2.55.31,1.7.12,2.55.21a21.64,21.64,0,0,0,2.76.33c1.66,0,3.36.24,5,.35.79,0,1.57.14,2.36.16a6.72,6.72,0,0,1,2,.34,2.68,2.68,0,0,1,1.45,1.2,4.78,4.78,0,0,1,.57,1.89c.12.87.15,1.73.23,2.6s.07,1.68.17,2.51q.06.48.09.93a1.9,1.9,0,0,0-1.25-.12,8,8,0,0,1-1.76.15,29.59,29.59,0,0,1-3.26-.11,27.59,27.59,0,0,0-3.75,0c-1.05,0-2-.17-3.09-.16-1.22,0-2.42.19-3.64.19a22.52,22.52,0,0,1-3.58,0A19.15,19.15,0,0,0,49.82,22a4.25,4.25,0,0,0-1.92.19h-.24a13.53,13.53,0,0,0-2.79-1.47c-1.26-.5-2.49-1-3.75-1.53a8.85,8.85,0,0,0-1.75-.33,13.56,13.56,0,0,0-1.91-.3,7,7,0,0,0-1.71-.05c-.65.12-1.31,0-2,.15a10.46,10.46,0,0,0-3.7,1.25c-1.07.65-2.19,1.09-3.2,1.84l-.12.08a4.54,4.54,0,0,0-2.32-.13c-1.08.09-2.21,0-3.3,0-2,0-4-.33-6.08-.27-2.19.07-4.4,0-6.6,0H4.92c-.47,0-.94,0-1.4-.08s-.77.08-1.15.09a.87.87,0,0,0-.18-.11C2.19,20.86,2.19,20.47,2.2,20.07ZM1.9,42.5c0-1.89,0-3.78,0-5.67,0-.88,0-1.75-.06-2.62s.15-1.86.2-2.79c.16-2.81.14-5.62.13-8.43.26,0,.52,0,.8-.06A10.17,10.17,0,0,1,4.33,23c1.15.05,2.31,0,3.47,0,2.31,0,4.64.05,7,0,2-.08,4,.14,6.08.12,1.09,0,2.2,0,3.3,0,.43,0,.86-.12,1.29-.19l0,.05c-.39.48-.82.91-1.21,1.38a18,18,0,0,0-3.28,7.59,18.79,18.79,0,0,0-.07,8.44,12.43,12.43,0,0,0,1.69,4l.18.24c-1.56-.06-3.18,0-4.71.08-.95,0-1.88-.17-2.83-.16a25,25,0,0,1-3.35,0,38.75,38.75,0,0,0-5.48-.4,26.27,26.27,0,0,1-3.07-.24,9.83,9.83,0,0,0-1.35-.07C1.89,43.34,1.89,42.92,1.9,42.5ZM23.82,54.22c-1.85,0-3.7-.17-5.55-.17s-3.81,0-5.72,0a27.5,27.5,0,0,1-5.44-.28C5.7,53.51,4,53.72,2.87,52.67a2.38,2.38,0,0,1-.62-2c0-1-.16-1.92-.17-2.88S2,45.91,2,45c.41.05.81,0,1.22.1A19.63,19.63,0,0,0,6,45.42a50.54,50.54,0,0,1,5.75.52,24,24,0,0,0,3.06.08c1,0,2,.2,3,.21h3.24a26.75,26.75,0,0,0,3.23-.09,17.88,17.88,0,0,0,1.57,1,35.32,35.32,0,0,0,3.87,1.87,10.21,10.21,0,0,0,2.17.57,7.64,7.64,0,0,0,1.07.14,3,3,0,0,0,.79-.13c.06.5.13,1,.23,1.48.2,1,.5,2.07.76,3.1Zm51,11.5h0a1.08,1.08,0,0,1-.38.17c-.81.3-1.72.37-2.55.61A52.52,52.52,0,0,1,64.77,68c-1.19.18-2.38.33-3.56.52-.62.1-1.24.09-1.85.22s-1.26.29-1.9.41c-1.08.19-2.17.15-3.24.41a6.51,6.51,0,0,1-1.46.14c-.58,0-1.12.25-1.69.32-1.08.13-2.16.31-3.25.38a4.21,4.21,0,0,1-1.77-.06,2.89,2.89,0,0,1-1-.88c-.75-.88-1.6-1.64-2.34-2.51a9.66,9.66,0,0,1-.88-1.34c-.32-.54-.76-1-1.08-1.52a37.25,37.25,0,0,1-1.88-3.46,38.31,38.31,0,0,1-1.42-3.88,47.13,47.13,0,0,1-1.73-8.22,34.72,34.72,0,0,1-.43-4.06c0-.19,0-.38,0-.56,0-.35.09-.7.11-1.05s-.14-1.29.13-1.74l0-.06s0,0,.14,0c.25-.05.53-.06.79-.11.65-.12,1.3-.19,2-.26,1-.1,2-.1,3-.27.54-.1,1.07,0,1.61-.08s1.15-.23,1.74-.29,1.15,0,1.73,0,.93-.16,1.39-.24c1.21-.22,2.5-.2,3.73-.35,2.38-.27,4.77-.42,7.15-.68,1.12-.11,2.23-.06,3.35-.09a4.21,4.21,0,0,0,.94,0h.15l0,.07a5.52,5.52,0,0,0,0,.9c0,.35,0,.69,0,1A10.79,10.79,0,0,0,63.44,44c.33,1.22.68,2.45,1.06,3.65a29.34,29.34,0,0,0,1.2,3.16c.23.49.43,1,.68,1.49s.54.76.76,1.18c.12.24.24.48.37.71a1,1,0,0,0,.36.65l.83,1.46c.57,1,1.31,1.89,1.93,2.86s1,1.68,1.61,2.49a26.91,26.91,0,0,1,2,2.67C74.38,64.6,74.88,65.34,74.83,65.72Z"/><path d="M27.81,14.49A16.83,16.83,0,0,0,31.2,15c1.42.06,2.86,0,4.29,0a20.77,20.77,0,0,1,4.1.1,19,19,0,0,0,3.7.08,5.81,5.81,0,0,0,2.87-.29c1.85-1,.77-3.78,0-5.17-.5-1-1.15-1.73-1.71-2.63a3.35,3.35,0,0,0-2.05-1.75,18.94,18.94,0,0,0-3.84-.08c-.72,0-1.44-.09-2.16,0-1.67.11-3.35.13-5,.35a3.58,3.58,0,0,0-2.31,1.22,8.62,8.62,0,0,0-1.85,2c-.64,1.18-1.85,2.88-1.45,4.3C26.07,14,27,14.28,27.81,14.49Zm-.68-3.44c.19-.4.52-.74.68-1.17a3.92,3.92,0,0,1,.49-1.06A4.59,4.59,0,0,1,31,6.74c1.18-.28,2.37-.06,3.54-.29a19.53,19.53,0,0,1,3.51-.17l.91,0c.42,0,.84,0,1.26,0,1,0,2.09-.16,2.81.56a21.47,21.47,0,0,1,1.41,2c.78.94,2.82,4.56,1,5.31a7.75,7.75,0,0,1-2.59.06,14.77,14.77,0,0,1-3.12-.07A12.15,12.15,0,0,0,37.11,14H33.44a17.8,17.8,0,0,1-5.95-.61C26.37,13,26.72,11.91,27.13,11.05Z"/><path d="M8.7,18.78a3.17,3.17,0,0,0,1.55.27c.81,0,1.53.3,2.33.34,1.39.07,2.73.35,4.13.35A2.28,2.28,0,0,0,19,18.57a4.24,4.24,0,0,0,.13-3.28A2.37,2.37,0,0,0,17,13.74a11.12,11.12,0,0,0-2.08,0h-.33a20.74,20.74,0,0,0-2.23,0,8.55,8.55,0,0,0-3.17.44A2.09,2.09,0,0,0,7.93,16C7.84,17,7.68,18.24,8.7,18.78Zm0-2.67a1.31,1.31,0,0,1,1-1.24,15.12,15.12,0,0,1,3.08-.32,6.5,6.5,0,0,1,.88,0c1.74.19,4.24-.52,4.63,1.5a3,3,0,0,1-.15,2.07c-.38.66-.78.71-1.46.71a12,12,0,0,1-1.89-.08,15.56,15.56,0,0,0-1.64-.27,19.09,19.09,0,0,1-2-.3,8.74,8.74,0,0,1-1.92-.09C8.57,17.81,8.66,16.73,8.73,16.11Z"/><path d="M57.29,20.13c1.5,0,2.94.18,4.44.15.84,0,1.69,0,2.54,0a6.54,6.54,0,0,0,2.25-.18,2.58,2.58,0,0,0,1.54-2.51,4.36,4.36,0,0,0-.25-2.12,1.56,1.56,0,0,0-1.19-.7,7.78,7.78,0,0,0-1.87-.12,13.9,13.9,0,0,0-2.23-.2,12,12,0,0,1-2.68,0,15.53,15.53,0,0,0-2.64-.06c-1.14,0-2.2.14-2.71,1.26a3.89,3.89,0,0,0,.1,3.5A3.12,3.12,0,0,0,57.29,20.13Zm-2.16-3.75c.16-.53.34-.87.88-.93a15.7,15.7,0,0,1,2-.19,16.9,16.9,0,0,1,2.36.15,5.49,5.49,0,0,0,1.52-.06,4.48,4.48,0,0,0,.63-.06c.35,0,.71,0,1.07,0a5,5,0,0,0,1,.08l.71,0a2.71,2.71,0,0,1,1.56.34c.62.47.44,2.28.07,2.94a1.62,1.62,0,0,1-1.52.67l-2.22,0c-.68,0-1.35,0-2,0a14.45,14.45,0,0,1-2-.2,26,26,0,0,1-2.93-.06C55,18.8,54.82,17.45,55.13,16.38Z"/><path d="M37.45,7.23a5.09,5.09,0,0,0-1.31.58A14.42,14.42,0,0,0,33.73,9l-.85.45a12.18,12.18,0,0,0-3.63,2.39c-.11.14-.05.4.16.39a4.16,4.16,0,0,0,1.71-.68l2.42-1.33c.87-.47,1.77-.9,2.66-1.34.63-.33,1.42-.57,1.69-1.25C38,7.4,37.69,7.17,37.45,7.23Z"/><path d="M40.48,8.1c-.66,0-1.33.54-1.89.88l-1.68,1h0a15.31,15.31,0,0,0-1.51.89,13.06,13.06,0,0,0-2.82,1.81c-.19.19,0,.44.24.41a6.55,6.55,0,0,0,1.78-.73c.78-.37,1.54-.86,2.29-1.3S38.26,10.3,39,9.88a5.07,5.07,0,0,0,1.81-1.27A.34.34,0,0,0,40.48,8.1Z"/><path d="M16.91,47.93a1.72,1.72,0,0,0-1.13-1.11,1.35,1.35,0,0,0-1.25.35,2.05,2.05,0,0,0-1.15,1.06,1.92,1.92,0,0,0-.06,1.56A1.89,1.89,0,0,0,16,51.23C17.45,50.6,17.45,49.19,16.91,47.93Zm-.55.94a1.29,1.29,0,0,1-.09.94,1.17,1.17,0,0,1-1.52.33,1.29,1.29,0,0,1-.65-.83v-.12s0-.06,0-.1,0,0,0,0a2,2,0,0,1,1.07-1.14h0a1.27,1.27,0,0,1,1.05.65h0C16.3,48.67,16.33,48.78,16.36,48.87Z"/><path id="MaLune" class="cls-25" d="M58.47,50.18a2.54,2.54,0,0,1-2.09.48,3.56,3.56,0,0,1-1.43-.4,1.67,1.67,0,0,1-.87-1.16,2,2,0,0,1,.07-.81,3.86,3.86,0,0,1,1.91-2.35,5.27,5.27,0,0,0-.68,1.79,1.81,1.81,0,0,0,.6,1.71,2.79,2.79,0,0,0,1.2.39C57.61,49.89,58,50.11,58.47,50.18Z"/><circle class="cls-26" cx="42.78" cy="45.96" r="0.5"/><circle class="cls-26" cx="47.78" cy="46.96" r="0.5"/><circle class="cls-26" cx="46.78" cy="50.96" r="0.5"/><circle class="cls-27" cx="41.78" cy="48.96" r="0.5"/><polyline class="cls-28" points="50.75 59 50.87 58.92 50.93 58.89 51.07 58.82 51.27 58.76 51.36 58.73 51.43 58.72 51.61 58.71 51.87 58.76 52.13 58.84 52.35 58.92 53.28 59.22 53.28 59.46 52.28 60.46 51.28 60.46 49.68 59.84 49.66 59.84"/></g></g></g></g></svg>