<?xml version="1.0" encoding="iso-8859-1"?>
<!-- Generator: Adobe Illustrator 19.0.0, SVG Export Plug-In . SVG Version: 6.00 Build 0)  -->
<svg version="1.1" id="Layer_1" xmlns="http://www.w3.org/2000/svg" xmlns:xlink="http://www.w3.org/1999/xlink" x="0px" y="0px"
	 viewBox="0 0 512.002 512.002" style="enable-background:new 0 0 512.002 512.002;" xml:space="preserve">
<g>
	<path style="fill:#A6B3BD;" d="M284.897,23.66c-10.437,0.384-21.667-0.011-32.067-0.545c-11.664-0.599-23.275,1.216-34.931,1.656
		c-12.376,0.467-26.667,0.953-38.159,5.991c-13.559,5.944-17.587,17.577-24.399,29.451c-1.985,3.46-3.672,7.693-6.324,10.644
		c-3.601,4.007-9.256,5.715-14.521,7.236c-23.689,6.841-47.469,7.449-71.781,10.347c-16.795,2.001-33.232,2.448-40.928,19.667
		c-7.347,16.437-10.627,35.669-12.001,53.556c-2.057,26.784-3.132,53.96-3.111,80.877c0.024,32.012-1.665,64.248,0.533,96.225
		c0.625,9.101,1.609,24.753,8.868,31.225c4.144,3.695,9.521,3.657,14.653,5.081c7.131,1.977,13.967,3.427,21.353,4.145
		c20.277,1.971,40.88,1.787,61.249,2.568c24.492,0.939,49.313,1.627,73.824,0.879c13.569-0.415,29.284,4.399,42.601,1.463
		c8.645-1.905,6.699-13.487,6.695-21.161c-0.005-13.481-3.564-25.573-6.46-38.579c-2.359-10.591-4.052-27.171,3.439-35.963
		c9.915-11.637,30.531-9.973,44.275-10.661c31.473-1.577,62.896-4.28,94.349-6.211c12.901-0.792,25.789-2.139,38.717-2.465
		c4.844-0.123,11.983,0.559,16.164,3.411c5.283,3.604,4.785,11.313,4.667,16.981c-0.289,13.743,5.061,26.571,5.34,40.065
		c0.252,12.175,6.272,27.319,15.033,35.797c8.339,8.068,25.163,12.891,33.805,2.731c5.188-6.099,6.863-15.808,8.579-23.387
		c2.689-11.879,2.908-24.064,3.327-36.171c0.789-22.825-0.284-45.653-0.813-68.452c-0.944-40.709,4.771-82.961-2.623-123.353
		c-2.7-14.751-15.313-20.56-28.625-24.732c-33.705-10.564-70.808,4.753-103.929-9.832c-9.136-4.024-18.873-8.195-26.375-14.949
		c-8.391-7.555-12.987-18.345-18.201-28.127C309.551,24.87,296.162,25.088,284.897,23.66z"/>
	<path style="fill:#A6B3BD;" d="M420.453,23.66c-7.925,0-15.827-0.412-23.705-0.444c-7.688-0.031-18.568-1.947-25.336,2.392
		c-10.171,6.52-15.856,26.037-5.66,34.015c6.893,5.393,15.357,6.597,23.913,7.604c13.111,1.543,26.635,2.772,39.831,3.104
		c8.553,0.215,20.636,2.289,27.973-3.288c6.34-4.82,5.599-14.1,5.107-21.48c-0.529-7.944-3.123-16.155-10.459-20.123
		C443.369,20.707,430.134,21.611,420.453,23.66z"/>
	<path style="fill:#A6B3BD;" d="M87.563,18.772c-9.659-0.993-20.321,1.229-30.113,1.333c-6.355,0.068-15.276-2.036-21.22,0.7
		c-7.212,3.32-4.516,13.383-4.207,19.723c0.255,5.224,0.009,14.673,3.973,18.711c4.852,4.943,18.041,5.195,24.431,6.223
		c12.032,1.936,25.019,1.689,37.147,0.868c17.544-1.189,23.993-8.239,25.544-25.947c0.711-8.112,1.071-15.123-7.455-18.056
		C107.71,19.592,92.538,17.022,87.563,18.772z"/>
</g>
<g>
	<path style="fill:#637079;" d="M384.007,71.216c-0.728,2.715-1.559,7.915-0.912,10.689c1.313,5.628,7.903,4.38,12.611,4.757
		c9.501,0.761,19.315,3.089,28.801,2.776c4.408-0.145,9.807,0.572,12.955-2.224c3.655-3.244,6.397-12.837,1.904-15.52
		c-3.172-1.893-12.004-1.045-15.792-1.372c-6.105-0.527-12.299-1.019-18.412-1.332C397.91,68.618,385.322,64.038,384.007,71.216z"/>
	<path style="fill:#637079;" d="M76.007,65.883c-6.748,2.319-17.852-2.559-23.781,2.217c-3.223,2.596-2.448,10.919-1.108,14.66
		c1.533,4.28,3.3,4.445,8.22,4.465c9.232,0.037,18.447-2.233,27.676-2.639c9.105-0.399,15.908,0.036,14.315-10.703
		c-0.628-4.235-1.331-6.251-5.877-7.233c-2.687-0.581-5.277-0.235-7.989,0.011C83.17,67.052,78.959,66.187,76.007,65.883z"/>
	<path style="fill:#637079;" d="M208.453,149.439c-8.021,4.043-15.728,6.735-23.407,11.764c-8.548,5.6-14.552,12.453-21.137,20.248
		c-14.116,16.707-20.588,37.599-21.58,59.373c-1.073,23.555,1.728,50.053,16.557,69.303c10.572,13.723,28.86,22.131,44.653,28.091
		c5.797,2.188,12.795,4.179,19.037,3.665c9.676-0.797,7.38-12.657,6.655-19.879c-1.113-11.089-4.137-22.243,0.433-32.993
		c4.512-10.615,13.756-8.847,23.419-8.56c18.011,0.536,37.227-1.381,55.244-2.655c9.396-0.664,18.341-2.749,27.223-5.568
		c16.147-5.124,17.631-28.36,16.368-42.853c-1.299-14.923-10.235-31.249-18.419-43.463c-9.683-14.449-23.699-23.455-39.192-30.619
		c-16.783-7.76-33.116-12.515-51.677-12.52C228.914,142.768,218.554,146.286,208.453,149.439z"/>
</g>
<path style="fill:#3B464E;" d="M195.563,183.216c-9.124,5.433-16.043,19.057-20.457,28.684c-5.628,12.273-6.839,24.919-6.22,38.28
	c1.087,23.493,10.797,42.547,28,58.372c4.421,4.067,8.7,7.791,14.6,9.331c3.255,0.849,9.885,2.812,12.965,1.355
	c8.565-4.052,4.231-23.388,6.757-30.397c2.959-8.207,19.543-8.529,26.692-9.176c18.076-1.636,44.597,6.909,54.541-12.892
	c8.813-17.552,6.788-40.291-1.347-57.431c-9.601-20.229-35.799-37.355-57.843-39.443c-11.531-1.092-22.455-1.231-33.777,1.197
	C209.273,173.282,202.87,178.8,195.563,183.216z"/>
<g>
	<path style="fill:#B46133;" d="M176.897,165.883c-10.664,12.619-22.859,24.751-29.011,40.644
		c-7.389,19.088-6.492,39.581-4.432,59.476c0.869,8.392,2.84,17.285,5.42,25.337c2.164,6.753,7.553,13.041,9.044,19.887
		c1.731,7.945-6.104,6.433-11.92,5.668c-11.823-1.553-23.145-0.272-35.052,0.109c-23.471,0.751-47.447-1.503-70.833-3.688
		c-8.7-0.812-17.659-0.456-26.225-2.003c-6.767-1.223-5.832-2.929-6.867-9.652c-3.733-24.264-1.277-49.905-0.247-74.445
		c0.592-14.084,0.544-28.22,1.136-42.304c0.269-6.425-2.633-20.309,4.545-23.472c3.149-1.387,7.688-0.284,10.967-0.001
		c9.237,0.795,18.332,0.953,27.616,0.899c20.6-0.12,40.992-1.905,61.585-0.455c17.195,1.211,34.309-0.987,51.415-0.444
		C166.267,161.51,183.158,162.412,176.897,165.883z"/>
	<path style="fill:#B46133;" d="M324.453,166.327c28.124,0,55.973-0.175,84.097,0.435c14.672,0.317,29.356,1.352,44.015,1.344
		c11.068-0.005,22.236-0.976,33.256-0.444c5.623,0.271,7.615-0.195,9.337,5.095c2.976,9.137,3.517,18.804,3.517,28.375
		c0,25.284-0.496,50.891-3.456,75.997c-1.204,10.215-1.413,20.527-2.316,30.741c-0.431,4.871,0.489,10.957-4.896,12.583
		c-4.931,1.488-12.663-0.383-17.781-0.349c-9.356,0.063-18.679,1.255-28.135,0.892c-6.913-0.265-9.559-2.432-11.681-9.139
		c-2.891-9.136-3.955-19.756-5.081-29.283c-1.201-10.152-0.228-17.152-12.029-17.135c-20.245,0.028-39.953,4.588-60.061,5.688
		c-13.097,0.716-5.667-6.804-3.452-15c2.208-8.175,4.049-17.836,2.133-26.245c-2.64-11.584-7.901-25.124-14.631-34.935
		c-3.609-5.261-7.143-10.639-11.517-15.289c-1.853-1.969-5.839-5.072-6.117-7.997C319.277,167.738,322.826,166.811,324.453,166.327z
		"/>
</g>
<g>
	<path style="fill:#EBEBEC;" d="M249.786,53.439c-5.173-1.409-11.481-0.345-16.889-0.865c-4.829-0.465-9.649-0.479-14.533-0.047
		c-8.103,0.719-16.972,3.24-22.477,9.38c-2.628,2.931-5.68,5.288-8.312,8.088c-2.912,3.099-4.86,7.175-7.013,11
		c-3.212,5.708-8.799,15.42-3.564,21.679c7.799,9.325,26.171,7.235,36.552,7.632c19.713,0.752,39.565,2.016,59.321,2.912
		c10.401,0.472,22.488,1.164,32.025-3.455c8.208-3.975,6.751-10.296,4.111-17.98c-4.06-11.813-9.972-20.085-16.901-30.353
		c-3.849-5.705-6.747-6.884-13.531-7.52C268.347,52.948,257.858,51.912,249.786,53.439z"/>
	<path style="fill:#EBEBEC;" d="M94.674,108.55c-10.281,1.957-22.107-0.371-32.444,2.767c-7.605,2.308-10.937,20.005-3.999,25.132
		c3.415,2.524,11.113,1.395,15.455,1.78c7.043,0.623,13.913,1.496,20.765,2.983c10.543,2.288,28.472,6.256,30.905-7.551
		c1.136-6.449,1.952-17.1-3.917-21.688C115.747,107.524,101.43,108.154,94.674,108.55z"/>
	<path style="fill:#EBEBEC;" d="M404.453,114.327c-10.352,0.085-26.127-3.612-34.776,3.445c-4.264,3.479-4.985,7.855-5.224,13.097
		c-0.352,7.743,1.64,9.827,8.911,11.901c9.765,2.785,19.643,2.671,29.779,3.101c10.235,0.435,20.907,1.015,31.112,0.011
		c4.88-0.48,10.733-0.147,13.867-4.323c3.127-4.168,3.289-10.275,2.555-15.233c-1.125-7.604-4.077-9.492-11.977-10.667
		C427.425,113.984,415.731,115.055,404.453,114.327z"/>
	<path style="fill:#EBEBEC;" d="M96.897,332.994c-3.209-0.907-5.523,9.179-4.411,12.184c1.265,3.424,5.601,6.023,8.955,6.384
		c9.575,1.029,14.595-9.648,8.456-16.803C106.502,330.804,102.113,331.076,96.897,332.994z"/>
	<path style="fill:#EBEBEC;" d="M232.897,353.883c2.505,19.06,10.095,38.544,16.043,56.889
		c6.783,20.917,16.728,41.891,30.131,59.408c7.616,9.955,18.512,19.009,31.361,19.704c35.355,1.909,70.804-7.669,105.584-12.457
		c20.704-2.849,41.571-4.82,61.968-9.409c6.165-1.388,12.553-2.731,18.168-5.788c1.957-1.065,5.639-3.333,6.6-5.355
		c0.887-1.865-0.163-3.849,1.127-5.101c-12.16-22.005-25.236-43.671-39.399-64.443c-7.055-10.347-14.093-20.741-19.827-32.003
		c-12.151-23.865-15.168-49.916-15.277-76.109c-0.04-9.627-3.593-12.011-12.731-12.001c-17.985,0.02-35.893,0.884-53.853,0.889
		c-24.459,0.008-48.381,4.687-72.613,7.388c-15.82,1.764-31.743,2.556-47.497,4.152c-11.737,1.189-11.76,13.472-12.349,23.171
		C229.266,320.351,228.955,339.682,232.897,353.883z"/>
</g>
<path style="fill:#C6E8E9;" d="M363.119,300.106c-8.663-0.531-17.737,2.631-26.48,3.111c-9.861,0.543-19.813,1.303-29.815,0.887
	c-9.029-0.375-18.027-0.516-27.037,0.001c-4.492,0.257-11.425-0.599-15.519,1.372c-5.435,2.615-4.949,9.82-5.248,15.171
	c-0.431,7.72,1.412,15.769,2.875,23.447c1.62,8.5,4.047,16.86,5.212,25.445c1.397,10.285,1.655,20.207,4.456,30.327
	c4.579,16.535,12.757,34.379,22.679,48.251c10.631,14.863,29.564,12.909,45.789,11.433c33.109-3.012,66.508-5.776,99.309-11.005
	c6.639-1.059,17.533-1.216,20.789-8.416c3.344-7.392-5.284-18.349-8.667-24.443c-7.249-13.059-18.265-25.012-27.379-36.839
	c-7.823-10.151-11.548-22.68-14.743-34.931c-2.249-8.627-2.667-16.856-2.667-25.727c0-5.628,1.129-12.82-0.223-18.327
	c-2.075-8.444-18.053-2.157-24.347-1.18C374.734,299.83,367.257,299.652,363.119,300.106z"/>
<path style="fill:#118ACB;" d="M377.341,377.883c-8.653,4.5-18.195,4.444-27.556,3.532c-11.449-1.115-21.908-1.701-33.333,0.045
	c-11.052,1.689-22.767,1.341-33.777,2.545c-2.524,0.276-10.92,0.071-12.46,2.083c-3.172,4.144,3.255,17.584,4.917,21.595
	c2.945,7.101,5.839,14.084,9.765,20.648c3.729,6.237,4.935,5.201,10.691,1.205c6.02-4.177,12.841-6.827,19.543-9.705
	c7.324-3.145,13.987-7.96,20.433-12.604c6.275-4.52,9.435-4.339,16.649-1.517c8.851,3.46,17.592,6.939,26.657,9.839
	c11.164,3.571,22.723,4.66,34.236,6.28c9.752,1.372,20.128,4.121,30.024,3.163c11.463-1.109,4.447-8.609,1.149-16.237
	c-4.975-11.509-13.801-19.933-21.059-29.907c-4.057-5.576-5.22-5.736-11.876-5.407c-8.525,0.423-16.184,0.468-24.551,2.217
	C383.021,376.451,378.677,376.732,377.341,377.883z"/>
<path style="fill:#EC9B5E;" d="M357.341,459.66c5.047-1.644,11.895-0.903,17.211-0.889c9.679,0.025,19.645-1.84,29.191-3.445
	c14.743-2.48,30.277-3.961,44.613-8.223c10.441-3.104,12.335-9.713,7.099-18.975c-2.277-4.028-3.14-5.307-7.889-5.356
	c-4.335-0.045-8.532,0.272-12.94,0c-24.372-1.507-49.628-4.815-73.023-12.5c-7.835-2.573-15.36-8.303-23.169-4.4
	c-9.336,4.665-18.396,10.564-27.308,15.772c-4.809,2.811-9.447,5.384-14.449,7.795c-4.028,1.94-8.745,3.123-6.649,8.217
	c1.544,3.753,6.864,7.628,9.573,10.581c2.677,2.919,5.399,6.204,8.644,8.513c7.228,5.144,16.704,4.235,25.184,4.244
	C341.411,461.003,350.467,461.526,357.341,459.66z"/>
<path style="fill:#FFC94E;" d="M361.341,324.994c-15.021,2.924-17.323,27.085-3.133,32.013c6.104,2.12,16.144,3.124,20.467-2.901
	c4.087-5.697,3.045-13.541,0-19.333C375.614,328.955,366.373,320.807,361.341,324.994z"/>
<path style="fill:#FFFFFF;" d="M284.483,204.33c-4.685-6.432-13.252-14.396-21.128-16.68c-0.081-0.024-0.156-0.029-0.235-0.044
	c-4.591-1.297-10.033-1.315-13.976,0.387c-6.005,2.591-12.172,9.033-12.371,15.896c-0.197,6.811,6.116,13.011,11.24,16.705
	c7.751,5.591,17.583,11.349,15.911,22.493c-0.969,6.46-2.073,12.927,5.68,15.292c5.516,1.684,12.376,0.097,16.599-3.8
	c5.351-4.94,7.001-14.535,7.28-21.464C293.874,223.374,290.185,212.156,284.483,204.33z"/>
<path d="M458.346,422.498c-2.351-4.755-5.376-9.117-8.197-13.585c-3.176-5.028-6.951-9.407-10.297-14.287
	c-6.588-9.604-14.585-17.84-19.788-28.352c-6.608-13.351-9.995-28.988-9.932-43.848c0.031-7.288,0.221-14.608,0.116-21.892
	c-0.064-4.483-1.595-8.339-6.683-8.731c-2.697-0.208-4.975,1.107-7.487,1.799c-3.572,0.984-7.459,0.764-11.127,0.669
	c-3.207-0.083-6.415-0.347-9.607,0.039c-3.384,0.408-6.583,1.212-10.029,1.156c-7.311-0.12-13.643,0.935-20.861,1.801
	c-3.227,0.388-6.263,0.325-9.356,1.384c-0.456,0.156-0.908,0.325-1.363,0.484c-2.111,0.295-4.211,0.651-6.349,0.733
	c-6.231,0.24-12.507-0.24-18.743-0.229c-6.64,0.011-13.041,1.404-19.676,1.361c-6.752-0.044-13.573-0.207-20.319,0.068
	c-4.335,0.177-7.748,1.799-9.8,5.768c-5.008,9.687-2.092,22.111-1.487,32.285c0.373,6.272,2.708,12.051,3.901,18.183
	c1.333,6.857,2.255,14.316,2.667,21.3c0.72,12.217,4.717,24.188,9.501,35.436c2.133,5.013,4.82,9.919,7.263,14.796
	c1.371,2.736,2.769,5.632,4.328,8.263c1.488,2.512,3.609,4.46,5.125,6.961c1.123,1.852,2.096,3.829,3.529,5.475
	c1.879,2.156,4.237,3.287,6.048,5.573c3.229,4.08,6.311,6.849,11.525,8.099c5.661,1.356,11.611,1.013,17.377,1.12
	c7.185,0.133,14.341,0.404,21.487-0.517c5.604-0.721,11.229-0.637,16.835-1.367c3.436-0.447,6.868-0.163,10.291-0.644
	c2.727-0.383,5.341-1.309,8.057-1.731c13.149-2.04,26.664-2.759,39.653-5.721c11.039-2.517,25.192-2.984,34.881-9.337
	C469.027,438.987,461.857,429.603,458.346,422.498z M268.287,359.754c-0.876-6.16-3.335-11.955-4.229-18.077
	c-0.836-5.719-1.608-11.939-1.527-17.735c0.072-5.115-0.187-14.884,6.117-15.712c6.379-0.837,13.863,0.211,20.319,0.277
	c6.657,0.069,13.044-1.311,19.676-1.309c6.235,0,12.512,0.512,18.743,0.26c6.26-0.253,12.477-1.036,18.769-1.307
	c3.317-0.143,6.509-0.941,9.793-1.169c2.721-0.189,5.36,0.304,8.088-0.152c5.595-0.935,11.195-2.017,16.836-2.456
	c0.868-0.068,1.705-0.227,2.521-0.44c2.159,0.033,4.328,0.085,6.539,0.029c2.236-0.056,4.633-0.143,6.831-0.625
	c0.811-0.179,5.503-2.24,5.864-1.869c0.407,0.415-0.164,5.737-0.164,6.155c-0.001,3.511-0.008,7.021-0.015,10.532
	c-0.021,11.344,0.368,22.651,3.725,33.573c1.899,6.177,3.812,12.564,6.472,18.56c-12.032,0.739-24.237,2.593-36.161,3.887
	c-13.217,1.435-26.18,3.625-39.453,4.485c-12.237,0.793-24.435,2.3-36.671,3.229c-6.301,0.479-12.581,0.755-18.872,1.239
	c-2.961,0.228-5.997,0.352-8.939,0.789c-0.217,0.032-0.935,0.259-1.712,0.525C269.686,374.93,269.339,367.167,268.287,359.754z
	 M273.047,392.507c-0.472-1.527-0.86-3.083-1.208-4.652c1.293,0.024,2.589-0.117,3.569-0.183c6.369-0.427,12.757-0.611,19.131-0.853
	c13.023-0.497,25.923-2.583,38.928-3.248c1.765-0.091,3.511-0.217,5.264-0.327c0.168,0.012,0.333,0.013,0.503,0.028
	c6.02,0.54,11.687,1.437,17.789,1.132c5.64-0.283,11.229-2.159,16.807-3.067c6.075-0.989,12.097-2.185,18.131-3.267
	c0.831-0.08,1.663-0.148,2.492-0.24c7.251-0.804,14.528-2.193,21.821-2.541c0.652,1.076,1.329,2.136,2.065,3.161
	c5.876,8.176,12.089,16.369,18.419,24.177c3.297,4.068,6.747,8.168,8.965,12.984c0.536,1.163,1.164,2.249,1.828,3.308
	c-5.141-0.925-10.668-0.985-15.644-1.351c-7.18-0.527-14.317-1.891-21.464-2.836c-8.663-1.145-17.288-1.635-25.885-3.325
	c-8.172-1.608-15.451-4.759-23.24-7.453c-6.295-2.177-14.587-6.363-21.276-4.232c-6.487,2.067-12.685,7.276-18.601,10.621
	c-6.884,3.893-13.736,8.12-20.489,12.241c-3.323,2.028-8.48,4.376-11.64,7.568c-1.092-1.808-2.141-3.659-3.121-5.652
	C281.051,414.047,276.497,403.668,273.047,392.507z M455.682,439.187c-4.351,3.343-12.699,4.189-17.913,5.256
	c-11.901,2.436-23.645,4.709-35.717,6.047c-10.844,1.201-21.435,3.836-32.287,4.549c-11.496,0.756-22.896,2.575-34.451,2.44
	c-5.889-0.068-11.888,0.12-17.763-0.323c-2.799-0.211-5.976-0.572-8.419-2.075c-2.785-1.713-3.909-4.873-6.247-7.021
	c-1.579-1.452-3.403-2.201-4.724-4.001c-1.271-1.732-2.087-3.772-3.321-5.531c-0.837-1.193-1.621-2.359-2.412-3.528
	c3.575-1.112,7.161-3.915,9.845-5.595c2.889-1.809,5.821-3.523,8.756-5.229c4.115-2.06,8.193-4.193,12.175-6.441
	c3.156-1.783,6.415-3.411,9.4-5.477c2.075-1.436,4.032-3.525,6.245-4.968c0.968-0.535,1.949-0.972,2.945-1.213
	c0.673-0.164,1.395-0.233,2.137-0.256c2.908,0.335,6.608,2.103,9.024,2.736c3.481,0.913,6.831,2.625,10.236,3.829
	c2.096,0.741,4.196,1.424,6.299,2.069c3.341,1.141,6.731,2.049,10.153,2.791c10.084,2.487,20.273,4.247,30.637,6.051
	c6.991,1.217,13.689,1.607,20.681,2.233c3.303,0.296,6.388,1.439,9.74,1.247c2.341-0.133,4.677-0.511,7.019-0.847
	c0.571,0.129,1.129,0.288,1.687,0.448c0.727,0.693,1.78,1.016,3.061,0.573c0.044-0.016,0.089-0.031,0.133-0.047
	c0.141,0.268,0.3,0.519,0.432,0.796C454.514,430.799,458.919,436.7,455.682,439.187z"/>
<path d="M374.482,324.586c-8.372-5.916-20.189-3.149-24.6,5.393c-0.777,0.92-1.468,1.901-1.997,2.925
	c-2.653,5.128-2.82,11.977-0.54,17.252c3.908,9.035,13.944,12.46,22.697,10.136c1.773-0.263,3.491-0.712,5.065-1.408
	c4.616-2.036,7.563-6.805,8.575-11.685C385.835,339.023,381.827,329.778,374.482,324.586z M351.262,343.18
	c-0.28-4.425,1.153-7.636,3.313-10.537c2.148-2.031,4.049-3.937,7.261-4.784c11.785-3.108,23.3,13.592,14.067,22.809
	C367.977,358.579,352.069,355.964,351.262,343.18z"/>
<path d="M497.291,424.022c-4.959-5.895-9.552-12.097-13.459-18.752c-4.225-7.196-9.605-13.616-13.921-20.749
	c-0.64-1.059-1.256-2.124-1.879-3.188c4.532,0.011,9.04-0.312,13.349-1.727c9.381-3.08,13.689-10.597,14.668-20.077
	c0.267-2.587-0.064-5.173,0.373-7.728c0.428-2.493,0.84-4.612,0.907-7.197c0.061-2.364,0.716-4.439,1.029-6.789
	c0.444-3.339,0.135-6.657,0.077-10.008c-0.219-12.913,0.647-25.655,1.095-38.532c0.224-6.441,1.531-12.727,2.115-19.125
	c0.515-5.639-0.125-11.224,0.62-16.855c1.647-12.436,1.711-24.825,1.697-37.348c-0.013-13.364-0.023-26.729-0.033-40.093
	c-0.004-5.089,0.719-10.525-0.069-15.556c-0.861-5.497-0.687-10.829-1.331-16.329c-0.763-6.511-0.881-13.097-1.789-19.588
	c-0.795-5.671-1.052-11.223-3.611-16.417c-4.425-8.981-10.127-15.347-19.78-18.757c-9.704-3.428-20.671-2.783-30.785-3.717
	c-0.279-0.025-0.56-0.052-0.839-0.077c0.544-2.999,0.22-5.955-0.427-8.993c4.865,0.219,9.708,0.164,13.827-2.868
	c10.2-7.507,7.153-24.904,5.02-35.468c-0.967-4.784-2.015-10.333-6.021-13.516c-4.379-3.48-11.123-4.497-16.505-4.807
	c-15.361-0.884-31.024,0.183-46.421,0.069c-9.049-0.067-24.725-3.02-31.157,5.445c-2.839,3.735-4.48,9.519-5.788,13.991
	c-1.556,5.32-2.573,11.209-1.309,16.7c2.521,10.953,12.748,14.152,22.791,15.197c-0.187,1.048-0.307,2.112-0.427,3.152
	c-0.205,1.791-0.393,3.608-0.271,5.397c-2.219-0.22-4.44-0.459-6.673-0.753c-5.607-0.74-10.721-0.944-16.16-2.737
	c-2.847-0.939-6.415-1.224-9.123-2.388c-2.76-1.185-5-3.871-6.961-6.095c-3.911-4.435-4.103-9.859-6.636-15.032
	c-2.648-5.405-6.768-9.747-9.755-14.924c-2.463-4.269-4.479-9.159-8.115-12.6c-3.291-3.116-8.027-5.069-12.389-6.105
	c-6.092-1.448-12.491-0.84-18.688-0.757c-7.773,0.103-15.551,0.1-23.324,0.145c-7.729,0.045-15.432,0.127-23.147,0.635
	c-7.257,0.479-14.769,0.288-21.963,1.271c-6.604,0.901-13.12,0.865-19.753,1.545c-7.172,0.736-12.488,2.801-18.897,5.957
	c-1.445,0.712-2.72,1.492-3.899,2.332c-0.451,0.212-0.9,0.427-1.343,0.659c-5.069,2.656-8.283,7.195-11.831,11.536
	c-3.405,4.167-6.419,8.191-8.769,13.056c-2.051,4.244-4.033,8.705-6.795,12.549c-2.767,3.851-5.661,5.551-10.251,6.239
	c-6.499,0.975-13.04,1.692-19.505,2.772c-3.16,0.528-6.343,0.471-9.527,0.504c0.059-1.863-0.343-3.693-0.623-5.569
	c-0.04-0.264-0.083-0.524-0.131-0.781c0.183-0.024,0.365-0.032,0.547-0.06c2.401-0.363,4.488-0.881,6.891-1.161
	c2.365-0.276,4.516-1.389,6.235-3.047c3.271-3.152,7.559-7.484,8.847-11.929c0.773-2.668,0.552-5.496,0.916-8.216
	c0.464-3.464,1.308-6.469,0.876-9.977c-0.569-4.62-1.013-10.383-3.557-14.412c-3.268-5.179-7.915-5.076-13.353-5.42
	c-5.387-0.341-10.401-1.171-15.864-1.12c-7.133,0.065-14.215,0.467-21.237-0.78c-5.6-0.995-11.652-0.241-17.328-0.22
	c-6.241,0.024-12.245,0.755-18.407,1.089c-5.644,0.307-9.737,2.363-10.627,8.415c-0.911,6.188,0.059,13.084,0.009,19.348
	c-0.008,1.073-0.041,2.168-0.075,3.273c-0.304,3.563-0.452,7.153,0.033,10.524c0.837,5.815,3.809,8.548,7.699,10.049
	c1.644,0.855,3.456,1.313,5.383,1.392c1.969,0.347,4.015,0.611,6.036,0.941c-1.007,3.939-0.996,8.457-0.089,12.155
	c0.027,0.107,0.067,0.213,0.107,0.321c-0.416,0.033-0.832,0.069-1.249,0.096c-9.767,0.617-18.717,2.871-24.763,11.072
	c-7.084,9.609-12.213,21.517-15.54,32.94c-7.401,25.413-1.001,52.7-4.409,78.575c-0.776,5.896-0.2,11.895-0.469,17.827
	c-0.315,6.947-1.503,13.705-1.381,20.688c0.237,13.475,0.305,26.936,0.301,40.416c-0.003,6.359-0.097,12.703-0.217,19.06
	c-0.124,6.531,1.099,12.691,1.347,19.121c0.472,12.26,0.1,24.669,1.38,36.891c1.117,10.668,9.289,19.895,19.669,22.845
	c4.665,1.327,9.409,1.717,14.201,1.951c6.263,0.305,12.484,2.289,18.741,2.941c14.327,1.491,28.977,0.563,43.36,0.569
	c14.867,0.007,29.86-0.587,44.681,0.675c14.875,1.265,30.036,0.501,44.957,0.509c15.723,0.008,31.447,0.009,47.171,0.009
	c1.159,2.584,2.483,5.065,3.887,7.603c4.144,14.157,9.319,27.703,15.937,41.068c1.963,3.963,4.345,7.644,6.46,11.517
	c1.885,3.452,4.487,6.097,6.477,9.389c4.096,6.773,8.315,12.769,13.845,18.555c4.565,4.777,8.496,10.513,13.419,14.891
	c5.951,5.291,13.179,6.177,20.899,5.88c8.656-0.333,17.203-1.971,25.779-2.751c3.764-0.343,7.275-2.024,11.035-2.052
	c4.068-0.029,7.623-0.424,11.587-1.429c4.331-1.099,8.451-0.559,12.836-1.175c4.208-0.591,8.377-1.529,12.569-2.22
	c4.103-0.676,7.968-2.069,12.124-2.481c4.633-0.459,9.169-1.259,13.783-1.844c18.425-2.337,36.569-6.097,54.828-9.429
	c7.776-1.42,15.212-4.42,23-5.977c5.049-1.011,10.571-2.439,14.305-6.233C518.742,451.286,504.314,432.372,497.291,424.022z
	 M116.627,28.399c1.815,1.852,2.005,9.953,1.775,12.335c-0.353,3.659-0.753,10.244-2.849,13.116
	c-0.819,1.121-2.069,2.12-2.991,3.185c-1.86,2.148-0.956,1.664-2.881,1.968c-0.7,0.111-1.359,0.233-2.021,0.355
	c-0.087-0.904-0.183-1.827-0.249-2.812c-0.249-3.693,0.199-7.443,0.072-11.14c-0.164-4.788-0.587-9.561-0.72-14.368
	c-0.041-1.495-0.083-2.913-0.233-4.297C109.339,26.948,115.253,26.996,116.627,28.399z M484.783,337.439
	c-0.519,2.52-0.844,4.573-0.923,7.164c-0.081,2.668-0.96,5.088-1.131,7.777c-0.255,4.031,0.843,10.067-2.759,13.013
	c-4.553,3.727-13.041,2.739-19.564,2.221c-0.619-1.161-1.239-2.321-1.853-3.487c-1.607-3.045-3.925-5.52-5.421-8.668
	c-1.773-3.729-3.531-7.559-5.081-11.384c-2.859-7.052-5.324-14.228-7.491-21.511c1.592-0.291,3.131-0.743,4.812-0.652
	c2.275,0.121,4.54,0.855,6.807,1.12c5.149,0.6,10.292,0.276,15.444,1.08c5,0.781,9.952,0.76,14.999,0.476
	c1.048-0.059,1.909-0.379,2.62-0.843C485.457,328.387,485.666,333.151,484.783,337.439z M490.917,188.475
	c-0.011,12.548-0.017,25.096-0.031,37.645c-0.011,11.004-2.084,21.813-2.308,32.755c-0.269,13.168-1.521,26.391-2.715,39.529
	c-0.509,5.615-0.732,11.137-0.789,16.748c-0.679-0.377-1.484-0.627-2.453-0.652c-10.244-0.265-20.851,0.044-31.035-1.217
	c-4.553-0.564-8.141-0.969-12.663,0.133c-0.312,0.076-0.631,0.132-0.952,0.18c-1.997-7-3.789-13.685-3.617-21.199
	c0.18-7.881,1.636-16.619-0.613-24.32c-2.107-7.213-8.641-8.725-15.34-8.685c-17.673,0.107-35.092,1.401-52.7,2.768
	c-5.023,0.391-10.013,1.028-15.005,1.667c0.871-1.367,1.573-2.767,2.044-4.045c2.969-8.055,3.825-17.584,4.541-26.049
	c0.743-8.787-3.032-18.633-6.127-26.733c-3.215-8.412-6.299-16.736-12.392-23.4c-2.603-2.845-4.671-6.147-7.16-9.099
	c-1.239-1.471-2.581-2.807-3.969-4.096c1.097,0.005,2.195,0.001,3.292-0.005c4.027-0.023,8.055-0.156,12.083-0.099
	c7.319,0.104,14.311,1.551,21.685,1.556c7.365,0.005,14.807,0.385,22.163,0.051c7.616-0.347,15.32-2.056,22.972-0.86
	c13.556,2.119,27.313,0.135,41.009,1.757c7.249,0.859,14.567,0.572,21.853,0.673c5.775,0.08,12.825-0.173,18.236-2.38
	C490.871,176.89,490.922,182.684,490.917,188.475z M323.434,233.13c-0.336-4.369-1.115-8.416-1.973-12.707
	c-3.271-16.356-15.209-27.599-26.685-38.644c-5.209-5.013-13.112-8.425-19.789-10.985c-7.587-2.908-16.136-4.416-24.212-5.003
	c-7.828-0.568-14.712-0.691-22.513,0.88c-6.103,1.228-11.808,3.064-17.373,5.493c-1.661,0.487-3.316,1.028-4.943,1.632
	c-6.945,2.576-13.84,6.187-18.636,11.98c-2.337,2.824-3.957,6.104-5.848,9.22c-2.095,3.453-4.845,6.464-6.868,9.957
	c-8.629,14.904-9.013,32.657-8.989,49.407c0.013,8.976,0.787,17.684,4.844,25.828c1.644,3.297,3.315,6.767,5.268,9.889
	c1.915,3.057,4.608,5.245,6.455,8.335c1.551,2.595,4.003,4.904,5.936,7.264c3.049,3.724,7.304,6.955,11.171,9.792
	c3.475,2.548,7.336,4.395,11.373,5.879c3.645,1.34,8.368,1.037,11.805,2.859c0.259,3.059,0.625,6.113,1.063,9.163
	c-2.143,0.372-4.209,0.731-6.624,0.397c-3.865-0.532-7.733-1.533-11.468-2.639c-6.801-2.015-13.527-5.839-19.999-8.861
	c-14.305-6.681-26.817-16.3-31.673-31.761c-2.319-7.384-4.617-14.248-5.42-22.011c-0.833-8.061-0.607-16.669,0.009-24.749
	c1.181-15.481,6.176-32.907,13.295-46.756c6.775-13.181,17.779-25.515,30.856-32.587c12.889-6.971,26.052-14,41.053-14.267
	c3.429-0.061,6.813-0.976,10.125-0.829c3.344,0.149,7.299,0.291,10.585,0.816c7.089,1.132,14.12,2.757,20.787,5.415
	c14.321,5.708,29.381,10.62,41.432,20.595c5.929,4.908,10.472,11.084,15.409,16.929c5.591,6.619,8.653,17.251,11.136,25.485
	c1.173,3.889,2.753,7.956,3.105,12.037c0.699,8.103-0.965,16.591-3.063,24.365c-1.077,3.996-1.601,9.804-6.125,10.812
	c-2.208,0.492-17.896-0.641-18.448,1.324c1.979-7.04,5.1-13.76,5.912-21.16C324.887,241.531,323.769,237.47,323.434,233.13z
	 M308.223,268.136c-0.036,0.175-0.036,0.335-0.055,0.503c-6.323,0.605-12.709,0.513-19.061,1.623
	c-4.133,0.723-8.075,0.319-12.215,0.704c-3.708,0.345-6.941,1.089-10.715,1.155c-8.052,0.139-16.808,1.22-24.728,2.716
	c-6.987,1.32-14.179,0.952-16.565,9.175c-0.991,3.415-1.397,7.264-1.503,10.785c-0.135,4.492-0.647,8.752-1.031,13.213
	c-0.185,2.155-0.277,4.307-0.295,6.456c-1.043-0.221-2.124-0.389-3.257-0.559c-4.839-0.728-9.392-2.456-13.515-5.124
	c-6.66-4.312-12.737-10.423-16.915-17.005c-2.304-3.629-5.595-6.008-7.737-9.877c-2.756-4.975-5.427-9.548-6.525-15.224
	c-2.067-10.688-1.619-23.289-0.352-34.061c1.076-9.149,3.132-18.456,8.376-26.201c1.711-2.527,3.324-5.228,5.004-7.896
	c0.539-0.567,1.06-1.144,1.467-1.795c0.375-0.601,0.651-1.229,0.923-1.86c1.451-2.119,2.997-4.151,4.729-5.984
	c5.736-4.74,14.161-7.748,20.533-10.221c7.86-3.051,17.829-5.124,26.304-5.132c8.46-0.008,17.633,2.224,25.777,4.393
	c8.695,2.316,17.453,6.795,23.711,13.211c3.112,3.189,6.823,5.74,9.831,9.04c3.032,3.327,5.444,7.321,7.505,11.317
	c4.381,8.489,5.108,16.536,6.383,25.881C315.854,248.762,310.497,257.347,308.223,268.136z M438.059,65.842
	c1.643-4.899,0.495-12.263,0.925-17.515c0.477-5.839,1.644-12.937,0.615-19.101c4.452,0.052,10.736,0.433,13.032,3.777
	c2.451,3.569,2.697,10.609,3.041,14.663c0.393,4.655,1.488,11.589-0.909,15.88c-2.325,4.163-7.479,3.009-11.487,2.833
	c-1.785-0.079-3.573-0.099-5.361-0.105C437.963,66.128,438.013,65.982,438.059,65.842z M421.781,29.24
	c3.975,0.013,7.949-0.012,11.924-0.02c0.091,1.304,0.132,2.609,0.145,3.916c-1.173,9.069-3.52,23.051-2.601,30.756
	c-0.053,0.803-0.1,1.604-0.135,2.405c-0.028,0.64-11.179-0.623-12.064-0.865c-1.219-0.335-2.036-0.672-2.591-1.047
	c0.108-0.491,0.196-0.992,0.259-1.508c0.509-4.233,0.299-8.867,0.58-13.155c0.465-7.069,0.239-13.717-0.971-20.477
	C418.145,29.246,419.962,29.234,421.781,29.24z M400.154,44.171c0.181-4.868,0.903-10.023,0.264-14.909
	c3.895-0.009,7.789-0.011,11.684-0.011c-0.505,4.943-0.368,10.079-0.783,15.036c-0.364,4.361-2.485,12.677-1.905,18.819
	c-1.235-0.024-2.465-0.065-3.676-0.193c-1.979-0.209-3.907-0.461-5.831-0.707c0.059-2.515-0.172-5.188-0.143-7.34
	C399.814,51.292,400.021,47.728,400.154,44.171z M422.981,76.022c4.988,0.441,10.033,0.207,15.059,0.192
	c-0.316,1.481-0.625,2.964-0.965,4.444c-0.315,1.371-0.685,2.625-0.903,3.893c-8.955-0.772-17.967-1.404-26.865-1.492
	c-5.932-0.06-11.701-1.881-17.615-2.305c-1.253-0.089-2.499-0.183-3.745-0.276c0.251-2.036,0.036-4.119-0.2-6.165
	c-0.097-0.851-0.196-1.717-0.331-2.579C399.219,73.268,411.155,74.976,422.981,76.022z M374.989,41.31
	c-0.565,6.004-1.387,12.431-1.444,18.565c-9.576-2.691-7.475-13.188-4.769-21.093c1.193-3.488,1.951-7.876,5.851-8.908
	c0.26-0.069,0.529-0.116,0.797-0.169C374.914,33.623,375.298,38.035,374.989,41.31z M379.351,60.802
	c0.283-7.064,1.199-14.176,1.64-21.217c0.172-2.736,0.845-6.876,0.429-10.389c2.312,0.001,4.633,0.132,6.788,0.115
	c2.171-0.017,4.34-0.02,6.509-0.032c-0.333,6.741-0.46,13.363-1.831,20.028c-0.803,3.899-0.741,8.041-0.647,12.128
	c-0.688-0.036-1.381-0.061-2.081-0.072C386.627,61.31,382.947,61.167,379.351,60.802z M101.291,26.283
	c-0.005,0.172-0.003,0.341-0.005,0.512c-0.96,5.772,0.015,12.348,0.275,17.739c0.253,5.261-0.084,10.464,0.14,15.692
	c-1.015,0.072-2.055,0.1-3.168,0.02c-1.835-0.131-3.564-0.125-5.271-0.037c-0.96-11.105,1.34-22.94-0.903-33.851
	C95.343,26.243,98.327,26.154,101.291,26.283z M77.691,26.178c3.164,0.397,6.36,0.424,9.565,0.348
	c-0.317,4.508-0.256,8.969-0.363,13.577c-0.161,6.936-0.995,13.911-0.895,20.851c-0.057,0.008-0.112,0.013-0.169,0.021
	c-4.096,0.548-8.344,0.264-12.491,0.301c0.813-4.245-0.503-9.292-0.683-13.524c-0.009-0.889-0.023-1.779-0.029-2.669
	c0.021-5.368,0.284-11.14-0.364-16.613c-0.009-0.175-0.011-0.351-0.02-0.525c-0.051-0.927-0.211-1.704-0.432-2.429
	c-0.003-0.017-0.005-0.033-0.009-0.051C73.735,25.658,75.662,25.923,77.691,26.178z M88.242,71.582
	c3.104-0.48,6.176-0.333,9.24-0.228c-0.469,2.344-0.745,4.844-0.073,6.859c-5.881,1.129-12.023,1.683-18.001,1.669
	c-5.672-0.012-11.204,1.08-16.873,1.169c-2.433,0.037-4.86,0.26-7.287,0.52c0.084-0.532,0.064-1.081-0.084-1.613
	c-0.783-2.828-0.732-5.916-1.104-8.865c4.612,0.888,9.069,1.393,13.917,1.287C74.67,72.23,81.617,72.607,88.242,71.582z
	 M65.773,25.176c0.4-0.007,0.78,0.013,1.169,0.021c-1.324,6.747-0.737,14.139-0.905,20.829c-0.088,3.505,0.069,6.869,0.292,10.361
	c0.124,1.96-0.075,3.535,0.073,5.039c-2.953,0.023-5.893-0.093-8.835-0.668c-0.833-0.163-1.655-0.332-2.472-0.499
	c-0.012-0.213-0.043-0.433-0.091-0.659c-0.06-0.279-0.1-0.568-0.153-0.852c0.137-6.852-0.068-13.721-0.081-20.569
	c-0.005-3.039-0.501-5.853-1.079-8.663c-0.091-1.476-0.239-2.937-0.484-4.356C57.395,25.159,61.586,25.244,65.773,25.176z
	 M40.431,58.176c-1.512-1.867-1.599-4.84-1.605-7.46c0-0.049,0.004-0.115,0.004-0.161c0-0.135-0.005-0.269-0.005-0.404v-0.013
	c-0.007-4.964,0.113-9.928,0.124-14.892c0.004-2.007-0.017-4.007-0.073-6.011c-0.016-0.589-0.271-1.553-0.105-2.116
	c0.143-0.487,0.173-0.741,0.165-0.869c0.067,0.024,0.188,0.024,0.413-0.06c1.12-0.415,3.267-0.017,4.551-0.204
	c1.677-0.244,3.267-0.48,4.885-0.64c-1.619,6.831-1.393,14.136-1.452,21.084c-0.029,3.447,0.117,6.78-0.049,10.216
	c-0.037,0.761-0.068,1.503-0.043,2.219c-0.883-0.111-1.773-0.205-2.681-0.263C43.463,58.531,41.654,58.646,40.431,58.176z
	 M14.635,148.29c0.125-11.44,3.177-23.617,8.329-33.831c2.588-5.132,5.317-11.197,9.269-15.439
	c3.079-3.304,7.771-4.111,12.096-4.485c10.125-0.877,20.216-1.284,30.328-2.153c5.411-0.465,10.847-0.283,16.283-0.735
	c5.381-0.449,10.696-1.592,16.088-1.516c6.492,0.092,12.805-0.785,19.229-1.651c5.533-0.745,11.967-1.129,17.117-3.348
	c9.227-3.975,14.504-13.287,17.371-22.471c2.011-6.443,5.091-12.928,9.483-18.12c1.62-1.347,3.263-2.66,4.811-4.007
	c3.301-2.873,9.16-5.461,13.653-6.916c1.355-0.363,2.712-0.691,4.076-0.989c5.108-0.824,10.707-0.296,15.699-0.288
	c5.177,0.008,10.237-0.959,15.441-0.979c6.537-0.025,13.067-0.4,19.597-0.637c12.947-0.472,25.941-0.031,38.895,0.016
	c8.663,0.031,21.159-2.388,26.519,6.295c2.531,4.099,4.481,8.437,7.363,12.324c3.617,4.88,6.375,9.331,7.865,15.245
	c2.208,8.764,10.743,18.796,19.536,21.544c4.859,1.519,10.092,3.021,15.071,4.147c5.545,1.255,11.365,1.327,17.004,2.065
	c5.656,0.741,11.327,0.808,16.983,1.403c6.231,0.656,12.111,2.368,18.425,2.236c11.005-0.229,22.38,1.579,33.391,2.288
	c5.264,0.34,10.436,0.943,15.716,1.12c4.613,0.155,9.284,0.639,13.641,2.257c4.115,1.528,7.453,4.099,9.632,7.949
	c2.413,4.264,3.164,7.787,3.831,12.603c0.805,5.804,0.981,11.543,1.56,17.368c0.552,5.556,0.469,11.167,1.097,16.683
	c0.247,2.165,0.463,4.195,0.624,6.216c-2.635-1.231-5.359-1.391-8.347-0.797c-4.064,0.807-7.501,1.08-11.709,1.028
	c-7.291-0.091-14.46,0.081-21.719-0.736c-8.365-0.943-16.615-0.477-25.007-0.267c-7.005,0.176-13.609-1.184-20.608-1.089
	c-8.139,0.111-16.105,1.239-24.248,1.281c-7.689,0.04-16.28,1.096-23.863-0.081c-7.776-1.208-15.271-1.015-23.139-0.776
	c-4.037,0.123-9.211-0.817-12.759,1.265c-0.553-0.033-1.088-0.055-1.604-0.055c-5.752-4.012-12.127-7.189-18.625-9.763
	c-8.369-3.316-16.583-6.936-25.004-10.201c-3.881-1.505-7.664-1.441-11.664-2.212c-4.44-0.856-8.101-1.7-12.675-1.969
	c-4.087-0.24-7.335-1.111-11.404-0.348c-4.348,0.816-8.772,0.285-13.171,1.001c-8.399,1.368-17.395,3.887-24.653,8.316
	c-7.136,4.353-14.58,7.264-21.341,12.259c-0.257,0.189-0.517,0.367-0.777,0.547c-4.733-2.292-10.305-1.277-15.453-0.851
	c-7.236,0.599-14.727-0.133-21.984-0.229c-13.597-0.181-26.945-2.164-40.529-1.751c-14.624,0.445-29.325-0.071-43.959-0.1
	c-7.884-0.016-15.769,0.012-23.653-0.047c-3.136-0.024-6.212-0.303-9.335-0.527c-2.491-0.179-5.117,0.517-7.627,0.576
	c-0.373-0.324-0.785-0.561-1.221-0.741C14.593,153.578,14.606,150.935,14.635,148.29z M12.634,297.804
	c0.292-12.599,0.071-25.223,0.065-37.825c-0.001-5.832-0.264-11.648-0.336-17.477c-0.076-6.265,0.987-12.345,1.324-18.577
	c1.013-18.736,0.892-37.425,0.875-56.164c1.727-0.028,3.412-0.247,5.309-0.417c2.997-0.268,5.969,0.268,8.972,0.4
	c7.68,0.337,15.427,0.044,23.115,0.028c15.435-0.031,30.941,0.316,46.367-0.337c13.605-0.577,26.879,0.924,40.481,0.78
	c7.307-0.076,14.693,0.196,21.985-0.337c2.916-0.213,5.768-0.815,8.651-1.26c-0.099,0.113-0.204,0.213-0.3,0.331
	c-2.599,3.177-5.46,6.071-8.064,9.227c-11.623,14.085-18.064,32.903-21.865,50.537c-3.867,17.935-5.151,38.337-0.435,56.269
	c2.447,9.304,5.631,19.04,11.237,26.945c0.391,0.551,0.821,1.072,1.236,1.605c-10.456-0.445-21.237,0.316-31.393,0.484
	c-6.367,0.105-12.548-1.079-18.907-1.025c-7.336,0.061-15.035,0.757-22.319-0.181c-12.127-1.564-24.295-2.797-36.5-2.633
	c-6.845,0.092-13.687-0.889-20.481-1.609c-2.799-0.296-5.916-0.509-8.977-0.431C12.599,303.37,12.57,300.595,12.634,297.804z
	 M158.767,375.894c-12.369,0.005-24.648-1.128-37.029-1.123c-12.695,0.007-25.392-0.064-38.087,0.033
	c-12.161,0.092-24.256,0.481-36.256-1.832c-9.405-1.813-20.876-0.435-28.283-7.404c-4.029-3.792-4.02-8.005-4.101-13.215
	c-0.101-6.421-1.051-12.785-1.145-19.207c-0.095-6.361-0.515-12.639-0.848-18.924c2.711,0.332,5.403,0.201,8.132,0.687
	c6.227,1.105,12.664,2.101,18.993,2.297c12.851,0.397,25.529,1.728,38.308,3.505c6.673,0.928,13.64,0.476,20.369,0.539
	c6.74,0.064,13.287,1.327,20.016,1.368c7.203,0.044,14.408-0.003,21.612-0.011c7.135-0.008,14.419,0.368,21.511-0.601
	c3.347,2.585,6.895,4.917,10.484,7.017c8.1,4.74,17.168,8.793,25.793,12.475c4.461,1.904,9.692,2.939,14.456,3.785
	c2.339,0.416,4.713,0.901,7.092,0.969c1.86,0.053,3.548-0.48,5.261-0.877c0.417,3.311,0.881,6.615,1.52,9.883
	c1.353,6.925,3.365,13.749,5.092,20.611C207.362,375.871,183.065,375.883,158.767,375.894z M498.714,452.546
	c-0.015,0.017-0.021,0.019-0.039,0.039c-0.447,0.539-1.899,0.949-2.493,1.167c-5.409,1.975-11.444,2.408-16.977,4.023
	c-15.391,4.493-31.655,7.744-47.561,10.04c-7.913,1.143-15.849,2.149-23.74,3.427c-4.081,0.661-8.255,0.631-12.312,1.469
	c-4.244,0.877-8.357,1.971-12.639,2.728c-7.233,1.279-14.48,0.984-21.607,2.743c-3.407,0.841-6.261,0.785-9.715,0.955
	c-3.864,0.189-7.443,1.663-11.251,2.108c-7.227,0.845-14.427,2.047-21.715,2.535c-3.597,0.241-8.331,0.973-11.767-0.408
	c-2.673-1.073-4.62-3.763-6.424-5.879c-4.949-5.807-10.623-10.899-15.561-16.711c-2.411-2.837-3.989-5.763-5.863-8.933
	c-2.12-3.588-5.061-6.469-7.215-10.101c-4.479-7.556-8.831-15.072-12.499-23.081c-3.903-8.521-6.575-16.977-9.489-25.864
	c-5.821-17.753-9.001-36.307-11.516-54.771c-1.235-9.069-2.719-17.919-2.9-27.091c-0.024-1.236-0.037-2.479-0.045-3.725
	c0.289-2.319,0.619-4.628,0.748-6.979c0.183-3.308-0.912-8.597,0.845-11.595c0.089-0.152,0.156-0.276,0.213-0.385
	c0.077,0.157,0.323,0.26,0.932,0.132c1.673-0.351,3.54-0.44,5.245-0.753c4.328-0.795,8.707-1.233,13.101-1.692
	c6.6-0.689,13.309-0.672,19.784-1.861c3.563-0.655,7.128-0.103,10.736-0.513c3.88-0.443,7.671-1.553,11.559-1.927
	c3.84-0.369,7.677,0.176,11.52-0.193c3.14-0.303,6.201-1.077,9.3-1.629c8.076-1.439,16.631-1.325,24.831-2.28
	c15.879-1.849,31.803-2.849,47.672-4.529c7.439-0.787,14.871-0.439,22.336-0.607c1.753-0.039,4.623,0.344,6.28-0.144
	c0.329,0.024,0.659,0.048,0.988,0.072c0.048,0.143,0.104,0.297,0.172,0.476c-0.336,1.588,0.309,4.271,0.297,5.956
	c-0.016,2.324-0.177,4.644-0.283,6.964c-0.331,7.321-0.735,14.577,1.169,21.715c2.168,8.131,4.471,16.308,7.043,24.319
	c2.283,7.112,4.916,14.232,7.995,21.043c1.496,3.309,2.88,6.735,4.523,9.971c1.428,2.812,3.603,5.075,5.04,7.856
	c0.819,1.584,1.653,3.153,2.499,4.715c0.252,1.668,1.044,3.24,2.373,4.308c1.812,3.249,3.663,6.483,5.531,9.747
	c3.819,6.669,8.749,12.613,12.868,19.089c3.543,5.572,6.963,11.188,10.768,16.588c4.288,6.084,9.465,11.201,13.052,17.809
	C495.705,445.068,499.042,449.994,498.714,452.546z"/>
<path d="M185.33,111.079c7.323,1.907,15.033,3.081,22.573,3.399c9.496,0.4,19.108-0.028,28.613-0.023
	c8.872,0.004,18.692-1.157,27.345,0.665c7.911,1.665,16.568,0.449,24.647,0.5c6.287,0.04,13.361,1.301,19.121-1.913
	c12.312-6.872,5.165-25.225,0.256-34.473c-3.337-6.287-7.644-11.516-11.36-17.519c-3.413-5.515-7.147-10.04-13.696-11.672
	c-8.328-2.076-17.1-0.207-25.563-0.5c-4.804-0.167-9.615-0.615-14.421-0.3c-11.108,0.724-22.312,0.864-33.368,2.363
	c-7.123,0.967-10.465,3.337-15.392,8.125c-4.424,4.299-9.377,7.797-12.369,13.363c-4.235,7.875-12.336,19.247-9.659,28.679
	C173.742,107.702,179.969,109.683,185.33,111.079z M180.781,88.208c1.281-2.704,3.479-4.993,4.539-7.796
	c1.057-2.797,1.465-4.567,3.272-7.12c4.717-6.664,9.876-11.92,18.052-13.852c7.9-1.867,15.821-0.416,23.621-1.916
	c7.757-1.492,15.467-1.065,23.384-1.155c2.047-0.023,4.068-0.087,6.081-0.168c2.781,0.057,5.565,0.065,8.372-0.063
	c6.312-0.288,13.909-1.105,18.772,3.729c3.748,3.728,6.017,9.061,9.387,13.179c5.145,6.289,18.739,30.423,6.64,35.379
	c-4.773,1.956-12.165,0.439-17.248,0.441c-6.835,0.004-14.121,0.976-20.792-0.485c-5.683-1.245-11.711-0.637-17.512-0.633
	c-8.153,0.005-16.307,0.004-24.461,0.012c-13.119,0.015-27.159,0.424-39.693-4.039C175.738,101.068,178.077,93.915,180.781,88.208z"
	/>
<path d="M57.993,139.699c3.273,1.727,6.737,1.768,10.332,1.777c5.396,0.012,10.208,1.988,15.505,2.276
	c9.245,0.503,18.173,2.335,27.548,2.331c6.799-0.001,11.461-1.619,15.085-7.788c3.708-6.313,3.064-15.076,0.899-21.84
	c-2.031-6.347-7.569-9.415-13.847-10.335c-4.585-0.672-9.296-0.477-13.908-0.285c-0.724,0.029-1.447,0.047-2.169,0.061
	c-4.929-0.4-9.997-0.113-14.833-0.009c-6.788,0.147-14.776,0.163-21.148,2.931c-5.251,2.281-8.128,6.688-8.624,12.329
	C52.253,127.762,51.159,136.095,57.993,139.699z M58.182,121.924c0.505-4.332,2.38-6.949,6.636-8.259
	c6.469-1.988,13.896-1.647,20.555-2.181c1.969-0.157,3.912-0.157,5.857-0.133c11.585,1.287,28.275-3.441,30.848,10.028
	c0.871,4.556,1.441,9.575-0.979,13.78c-2.536,4.405-5.173,4.725-9.723,4.732c-4.241,0.007-8.395,0.115-12.595-0.527
	c-3.623-0.553-7.32-1.639-10.949-1.807c-4.707-0.217-8.773-1.341-13.403-1.964c-4.116-0.553-8.865,0.852-12.805-0.653
	C57.138,133.23,57.699,126.062,58.182,121.924z"/>
<path d="M381.835,148.715c9.971,0.084,19.573,1.183,29.553,0.961c5.644-0.125,11.299-0.139,16.945-0.179
	c4.999-0.036,10.199,0.556,14.976-1.228c7.471-2.789,9.612-9.275,10.269-16.7c0.377-4.263,0.279-10.171-1.625-14.101
	c-1.488-3.073-4.799-3.968-7.955-4.676c-4.068-0.913-8.275-0.933-12.471-0.84c-4.975-0.393-9.828-1.717-14.835-1.337
	c-6.257,0.475-11.605,1.161-17.904,0.283c-5.815-0.809-11.72-0.573-17.575-0.424c-7.623,0.196-14.671,0.947-18.088,8.443
	c-3.061,6.713-3.665,16.971,0.724,23.3C367.842,147.971,375.417,148.66,381.835,148.715z M367.427,123.726
	c1.056-3.58,2.227-5.817,5.823-6.256c4.42-0.541,8.516-1.187,13.013-1.251c5.368-0.076,10.451,0.36,15.771,1.031
	c3.533,0.445,6.755,0.037,10.08-0.412c1.287,0.133,2.941-0.333,4.191-0.392c2.333-0.109,4.745,0.033,7.161,0.203
	c2.239,0.304,4.479,0.633,6.789,0.525c1.639-0.077,3.184-0.164,4.756-0.207c3.7,0.016,7.748,0.333,10.347,2.277
	c4.184,3.129,2.947,15.195,0.515,19.613c-1.989,3.616-6.315,4.451-10.129,4.436c-4.943-0.02-9.884-0.129-14.827-0.133
	c-4.496-0.004-8.992-0.047-13.485,0.103c-4.635,0.155-8.643-0.859-13.179-1.303c-6.445-0.631-13.109,0.903-19.507-0.421
	C366.546,139.839,365.333,130.822,367.427,123.726z"/>
<path d="M249.599,62.71c-3.06,0.736-5.932,2.305-8.747,3.887c-5.484,2.041-10.888,4.995-16.084,8.199
	c-1.903,0.972-3.793,1.961-5.644,3.009c-8.248,4.672-18.016,8.409-24.185,15.899c-0.757,0.92-0.356,2.667,1.068,2.579
	c4.401-0.273,7.616-2.496,11.395-4.536c5.373-2.901,10.711-5.903,16.101-8.833c5.809-3.159,11.847-5.968,17.745-8.957
	c4.236-2.147,9.441-3.744,11.267-8.331C253.221,63.848,251.187,62.328,249.599,62.71z"/>
<path d="M269.786,68.532c-4.436-0.317-8.872,3.599-12.577,5.869c-3.753,2.3-7.48,4.639-11.217,6.953
	c-0.027,0.013-0.055,0.027-0.081,0.04c-3.459,1.745-6.767,3.817-10.071,5.889c-6.599,3.581-13.413,7.119-18.751,12.124
	c-1.303,1.221,0.119,2.901,1.571,2.699c4.055-0.568,8.177-3.085,11.86-4.852c5.203-2.497,10.239-5.765,15.247-8.647
	c4.661-2.681,9.237-5.397,13.851-8.195c4.208-2.549,9.284-4.324,12.103-8.512C272.737,70.391,271.357,68.644,269.786,68.532z"/>
<path d="M112.669,333.947c-1.455-3.395-3.731-6.521-7.531-7.38c-2.957-0.668-6.224,0.217-8.304,2.336
	c-3.445,0.769-5.812,4.016-7.665,7.036c-2.024,3.3-1.348,6.911-0.377,10.419c2.379,8.601,9.161,13.477,18.037,9.573
	C116.322,351.76,116.286,342.386,112.669,333.947z M109.018,340.247c0.635,2.317,0.353,4.501-0.599,6.265
	c-2.084,2.833-6.211,4.252-10.088,2.149c-1.951-1.059-4.045-3.213-4.344-5.479c-0.007-0.271-0.016-0.54,0.001-0.816
	c0.013-0.219,0.051-0.428,0.077-0.643c0.023-0.091,0.039-0.183,0.069-0.273c1.033-3.144,4.025-6.499,7.092-7.595
	c0.064-0.023,0.117-0.061,0.168-0.101c2.757-0.195,5.175,1.833,6.939,4.337c0.015,0.021,0.023,0.043,0.037,0.064
	C108.629,338.898,108.847,339.623,109.018,340.247z"/>
<g>
</g>
<g>
</g>
<g>
</g>
<g>
</g>
<g>
</g>
<g>
</g>
<g>
</g>
<g>
</g>
<g>
</g>
<g>
</g>
<g>
</g>
<g>
</g>
<g>
</g>
<g>
</g>
<g>
</g>
</svg>
