<svg xmlns="http://www.w3.org/2000/svg" xmlns:xlink="http://www.w3.org/1999/xlink" viewBox="0 0 263.79 113.06"><defs><style>.cls-1{fill:url(#Áåçûìÿííûé_ãðàäèåíò_575);}.cls-2{fill:url(#Áåçûìÿííûé_ãðàäèåíò_575-2);}.cls-3{fill:url(#Áåçûìÿííûé_ãðàäèåíò_575-3);}.cls-4{fill:url(#Áåçûìÿííûé_ãðàäèåíò_575-4);}.cls-5{isolation:isolate;}.cls-6{fill:#282828;}.cls-7{fill:#637079;}.cls-8{fill:#3b464e;}.cls-9{fill:#7c4124;}.cls-10{fill:#aaa;}.cls-11{fill:#ebebec;}.cls-12{fill:#03324c;}.cls-13{fill:#03224c;}.cls-14{mask:url(#mask);}.cls-15{fill:#7777ef;}.cls-16{fill:#a550d3;}.cls-17{fill:url(#Áåçûìÿííûé_ãðàäèåíò_578);}.cls-18{fill:#fabcff;opacity:0.6;}.cls-18,.cls-20,.cls-21,.cls-22,.cls-23{mix-blend-mode:screen;}.cls-19{fill:#abffff;}.cls-20{fill:#c2f7ff;opacity:0.8;}.cls-21,.cls-22,.cls-23,.cls-24,.cls-29{fill:#fff;}.cls-21{opacity:0.2;}.cls-22{opacity:0.25;}.cls-23{opacity:0.1;}.cls-25{fill:#ffe436;}.cls-26{fill:#f4f4f4;}.cls-27{fill:#fcfcfc;}.cls-28{fill:#e2e2e2;}.cls-29{font-size:26px;font-family:Oswald-Bold, Oswald;font-weight:700;}</style><linearGradient id="Áåçûìÿííûé_ãðàäèåíò_575" x1="131.09" y1="102.15" x2="131.09" y2="91.15" gradientUnits="userSpaceOnUse"><stop offset="0" stop-color="#fff"/><stop offset="0.37" stop-color="#fdfdfd"/><stop offset="0.5" stop-color="#f6f6f6"/><stop offset="0.6" stop-color="#ebebeb"/><stop offset="0.67" stop-color="#dadada"/><stop offset="0.74" stop-color="#c4c4c4"/><stop offset="0.8" stop-color="#a8a8a8"/><stop offset="0.85" stop-color="#888"/><stop offset="0.9" stop-color="#646464"/><stop offset="0.93" stop-color="#4a4a4a"/><stop offset="1"/></linearGradient><linearGradient id="Áåçûìÿííûé_ãðàäèåíò_575-2" x1="145.75" y1="102.15" x2="145.75" y2="91.15" xlink:href="#Áåçûìÿííûé_ãðàäèåíò_575"/><linearGradient id="Áåçûìÿííûé_ãðàäèåíò_575-3" x1="136.91" y1="102.15" x2="136.91" y2="91.15" xlink:href="#Áåçûìÿííûé_ãðàäèåíò_575"/><linearGradient id="Áåçûìÿííûé_ãðàäèåíò_575-4" x1="134.54" y1="102.15" x2="134.54" y2="91.15" xlink:href="#Áåçûìÿííûé_ãðàäèåíò_575"/><mask id="mask" x="123.63" y="91.06" width="24" height="11.06" maskUnits="userSpaceOnUse"><path class="cls-1" d="M137,102.12l-.21,0h0c-.66-.12-2.46-.51-2.46-1.53,0-1.25,4.61-2.08,4.18-3.25s-12.94,1.38-14.89-3.07V97s.8,1,3.64,1.16c5.52.26,9.26-1.16,9.43-.41s-3.37,1.62-3.17,3.06c.17,1.18,2.41,1.3,3.22,1.31H137Z"/><path class="cls-2" d="M147.48,96.62a2.64,2.64,0,0,1-.84,2.12,6.64,6.64,0,0,1-2.76,1.2,4.87,4.87,0,0,0,3.06-1A2.1,2.1,0,0,0,147.48,96.62Z"/><path class="cls-3" d="M139,100.35c2.27-.26,5.37-.49,7-1.52h0l.27-.19h0l.05,0h0l.05,0h0l.15-.14v0l0,0,0,0,0,0v0l0,0h0a.61.61,0,0,0,.07-.1l0,0,0,0v0l0,0,0,0,0,0,0,0,0-.07,0,0v0l0,0v0l0,0v-.12s0-.05,0-.07v-.2s0,0,0-.06v-.34a.13.13,0,0,1,0-.06v0s0-.06,0-.1v0s0,0,0-.08v0l0-.07v0s0,0,0-.07v0l0-.1v0l0-.09v0l0-.07,0,0,0-.08v0l-.06-.11a3.17,3.17,0,0,0-.21-.41,2.92,2.92,0,0,0-.24-.37,4,4,0,0,0-.26-.32,3,3,0,0,0-.25-.25h0c.06.06.13.12.18.18s-1.66-2.23-5.6-1.93-7.46,2-8.92,1c-1.07-.73-.58-2.56-.58-2.56h-1.15s-.37,3,2.19,3.21a6.89,6.89,0,0,0,.79,0h.35l.23,0h.06l.29,0h0l.11,0h.12l.12,0h.11l.12,0,.11,0,.23,0h.1l.14,0h.09l.15,0,.08,0,.15,0h0l.36-.08h0l.19,0h0l1.74-.39h0l.24,0H138l.22,0h0l.27,0h0l.24,0h.07l.19,0,.07,0,.21,0h.05l.25,0h.07l.19,0H140l.18,0h.08l.25,0,.27,0h1.78l.13,0h.09l.12,0h.08l.14,0h.07l.17,0h0l.17,0,.07,0,.11,0,.09,0,.09,0,.08,0,.09,0,.09,0,.07,0,.09,0,.07,0,.09,0,.06,0h0a2.78,2.78,0,0,0-.51-.17,6.39,6.39,0,0,0-1.41-.23l-.7,0a25.9,25.9,0,0,0-4.88.68l-.24,0-1.92.4c-.55.11-1.07.2-1.57.27l-.18,0h-.17a5.1,5.1,0,0,1-1.51-.08c-2.54-.58-2.22-3.43-2.22-3.43H126.7c.36,3.58,4.5,4.53,6.92,4.4,3.32-.19,9.8-1.46,10.6,1s-5.24,2.79-7.63,3.84c-2.11.92.45,1.85.45,1.85-.68-.45-.91-.77-.8-1s1-.55,2.24-.7c-.69.11-1.8.34-2,.73s.58,1,.58,1-.49-.53-.15-1A5.54,5.54,0,0,1,139,100.35Z"/><path class="cls-4" d="M131.71,95.72c4,.43,10.39-.32,10.72,1.09.37,1.59-5.44,2.36-6.52,3.13s-.39,1.12-.39,1.12c-.52-.89,2-1.39,4.41-2,1.91-.51,3.73-1.06,3.88-2.05a.94.94,0,0,0-.08-.58c-.27-.64-1-.95-2-1.07h-.12a12.65,12.65,0,0,0-1.87,0h-.2l-1.43.09a33.65,33.65,0,0,1-6.39.18c-5-.61-5.62-4.48-5.62-4.48h-.87C125.2,91.64,125.9,95.09,131.71,95.72Z"/></mask><linearGradient id="Áåçûìÿííûé_ãðàäèåíò_578" x1="138.77" y1="100.68" x2="135.6" y2="89.29" gradientUnits="userSpaceOnUse"><stop offset="0" stop-color="#47defc"/><stop offset="0.08" stop-color="#49d9fc"/><stop offset="0.18" stop-color="#4eccfa"/><stop offset="0.28" stop-color="#58b5f8"/><stop offset="0.38" stop-color="#6596f4"/><stop offset="0.49" stop-color="#756ef0"/><stop offset="0.57" stop-color="#844aec"/><stop offset="0.67" stop-color="#8b4aec"/><stop offset="0.81" stop-color="#9f4aec"/><stop offset="0.99" stop-color="#c04aec"/><stop offset="1" stop-color="#c24aec"/></linearGradient></defs><title>Fichier 3</title><g class="cls-5"><g id="Calque_2" data-name="Calque 2"><g id="Logo_1"><g id="Calque_3_-_copie" data-name="Calque 3 - copie"><path class="cls-6" d="M126.09,42c-1.56.06-3.25,0-4.81-.08-1.75-.09-3.49.18-5.24.24a16.25,16.25,0,0,0-5.72.9c-2,.9-2.64,2.64-3.67,4.42a9.08,9.08,0,0,1-.94,1.6,4.6,4.6,0,0,1-2.18,1.09c-3.56,1-7.13,1.11-10.77,1.55-2.52.3-5,.37-6.15,3a24.86,24.86,0,0,0-1.8,8c-.3,4-.47,8.1-.46,12.14,0,4.8-.25,9.64.08,14.44.09,1.36.24,3.71,1.33,4.68a5,5,0,0,0,2.2.77,19.25,19.25,0,0,0,3.2.62c3,.29,6.13.27,9.19.38,3.68.14,7.4.25,11.08.14,2-.07,4.39.66,6.39.22,1.3-.29,1-2,1-3.18a26.44,26.44,0,0,0-1-5.79c-.36-1.59-.61-4.08.51-5.39C119.86,80,123,80.2,125,80.1c4.73-.24,9.44-.65,14.16-.94,1.94-.12,3.87-.32,5.81-.37a4.65,4.65,0,0,1,2.43.52c.79.54.71,1.69.7,2.54-.05,2.07.76,4,.8,6a8.45,8.45,0,0,0,2.25,5.37c1.25,1.21,3.78,1.93,5.08.41a8.41,8.41,0,0,0,1.28-3.51,28.28,28.28,0,0,0,.5-5.43c.12-3.43,0-6.85-.12-10.27-.14-6.11.72-12.45-.39-18.51-.41-2.21-2.3-3.09-4.3-3.71-5.06-1.59-10.62.71-15.59-1.48a14.61,14.61,0,0,1-4-2.24,14.44,14.44,0,0,1-2.73-4.22C129.79,42.15,127.78,42.18,126.09,42Z"/><path class="cls-6" d="M146.43,42c-1.19,0-2.37-.06-3.55-.07s-2.79-.29-3.8.36c-1.53,1-2.38,3.91-.85,5.1a6.81,6.81,0,0,0,3.58,1.14c2,.24,4,.42,6,.47,1.28,0,3.1.34,4.2-.49.95-.73.84-2.12.76-3.23a3.47,3.47,0,0,0-1.56-3A7.57,7.57,0,0,0,146.43,42Z"/><path class="cls-6" d="M96.48,41.23c-1.45-.14-3,.19-4.51.2-1,0-2.3-.3-3.19.11-1.08.5-.68,2-.63,3,0,.78,0,2.2.6,2.81s2.7.78,3.66.93a25.4,25.4,0,0,0,5.58.13c2.63-.18,3.6-1.24,3.83-3.89.11-1.22.16-2.27-1.12-2.71A9.94,9.94,0,0,0,96.48,41.23Z"/><path class="cls-7" d="M141,49.1a4.18,4.18,0,0,0-.14,1.61c.2.84,1.18.65,1.89.71a39.7,39.7,0,0,0,4.32.42c.66,0,1.47.08,2-.34s1-1.92.28-2.32A7.65,7.65,0,0,0,146.9,49c-.91-.08-1.84-.15-2.76-.2C143.05,48.71,141.16,48,141,49.1Z"/><path class="cls-7" d="M94.75,48.3c-1,.35-2.68-.38-3.57.34-.48.39-.37,1.63-.16,2.2s.49.66,1.23.67c1.38,0,2.77-.34,4.15-.4s2.39,0,2.15-1.61c-.09-.63-.2-.93-.88-1.08a3.72,3.72,0,0,0-1.2,0A8,8,0,0,1,94.75,48.3Z"/><path class="cls-6" d="M114.62,60.84a33,33,0,0,0-3.51,1.77,15.29,15.29,0,0,0-6.41,11.94c-.16,3.54.26,7.51,2.49,10.4,1.58,2.06,4.33,3.32,6.7,4.22a7,7,0,0,0,2.85.55c1.45-.12,1.11-1.9,1-3-.17-1.66-.62-3.33.07-5s2.06-1.32,3.51-1.28c2.7.08,5.59-.21,8.29-.4a17.6,17.6,0,0,0,4.08-.83c2.43-.77,2.65-4.26,2.46-6.43a15.38,15.38,0,0,0-2.76-6.53,13.62,13.62,0,0,0-5.88-4.59,17.92,17.92,0,0,0-7.76-1.88A16.17,16.17,0,0,0,114.62,60.84Z"/><path class="cls-8" d="M112.69,65.91c-1.37.81-2.41,2.86-3.07,4.3a12,12,0,0,0-.93,5.75,12.26,12.26,0,0,0,4.2,8.76,5.25,5.25,0,0,0,2.19,1.4,3.84,3.84,0,0,0,1.94.2c1.29-.61.64-3.51,1-4.56.44-1.23,2.93-1.28,4-1.38,2.72-.24,6.69,1,8.19-1.93a10.19,10.19,0,0,0-.21-8.62,11.74,11.74,0,0,0-8.67-5.92,16.57,16.57,0,0,0-5.07.18A11.12,11.12,0,0,0,112.69,65.91Z"/><path class="cls-9" d="M109.89,63.31c-1.6,1.89-3.43,3.71-4.35,6.1-1.11,2.86-1,5.94-.67,8.92a19.79,19.79,0,0,0,.81,3.8c.33,1,1.14,2,1.36,3,.26,1.19-.92,1-1.79.85A31.86,31.86,0,0,0,100,86a84,84,0,0,1-10.63-.55c-1.3-.12-2.65-.07-3.93-.3-1-.18-.88-.44-1-1.45-.56-3.64-.19-7.49,0-11.17.09-2.11.08-4.23.17-6.35,0-1-.39-3,.68-3.52a3.68,3.68,0,0,1,1.65,0c1.39.12,2.75.14,4.14.14,3.09,0,6.15-.29,9.24-.07,2.58.18,5.15-.15,7.72-.07C108.29,62.65,110.83,62.79,109.89,63.31Z"/><path class="cls-9" d="M132,63.37c4.22,0,8.4,0,12.62.07,2.2.05,4.4.2,6.6.2,1.66,0,3.34-.14,5-.06.85,0,1.14,0,1.4.76a13.58,13.58,0,0,1,.53,4.26,96.46,96.46,0,0,1-.52,11.4c-.18,1.53-.21,3.08-.35,4.61-.06.73.08,1.65-.73,1.89a11.39,11.39,0,0,1-2.67,0c-1.4,0-2.8.19-4.22.13a1.59,1.59,0,0,1-1.75-1.37,23.18,23.18,0,0,1-.76-4.39c-.18-1.53,0-2.58-1.81-2.57-3,0-6,.68-9,.85-2,.11-.85-1-.52-2.25a8.51,8.51,0,0,0,.32-3.94A16.25,16.25,0,0,0,134,67.67a19.63,19.63,0,0,0-1.73-2.29c-.28-.3-.88-.77-.92-1.2C131.25,63.59,131.79,63.45,132,63.37Z"/><path class="cls-10" d="M120.83,46.44a14.28,14.28,0,0,0-2.54-.13,11.34,11.34,0,0,0-2.18,0,5.1,5.1,0,0,0-3.37,1.41c-.4.44-.85.79-1.25,1.21a8.26,8.26,0,0,0-1,1.65c-.48.86-1.32,2.31-.54,3.25,1.17,1.4,3.93,1.09,5.49,1.15,3,.11,5.94.3,8.9.44a10.24,10.24,0,0,0,4.8-.52c1.24-.6,1-1.55.62-2.7a18.62,18.62,0,0,0-2.53-4.55,2.21,2.21,0,0,0-2-1.13A16.62,16.62,0,0,0,120.83,46.44Z"/><path class="cls-10" d="M97.55,54.71c-1.54.29-3.32-.06-4.87.41-1.14.35-1.64,3-.6,3.77.52.38,1.67.21,2.32.27a23.21,23.21,0,0,1,3.12.45c1.58.34,4.27.93,4.63-1.14.18-1,.3-2.56-.58-3.25S98.56,54.65,97.55,54.71Z"/><path class="cls-10" d="M144,55.57c-1.55,0-3.92-.54-5.21.52a2.4,2.4,0,0,0-.79,2c-.05,1.17.25,1.48,1.34,1.79a19.07,19.07,0,0,0,4.47.47,34.51,34.51,0,0,0,4.66,0c.74-.08,1.62,0,2.09-.65a3.2,3.2,0,0,0,.38-2.29c-.17-1.14-.61-1.42-1.8-1.6C147.48,55.52,145.73,55.68,144,55.57Z"/><path class="cls-10" d="M97.88,88.38c-.48-.13-.82,1.38-.66,1.83a1.76,1.76,0,0,0,1.35,1,1.5,1.5,0,0,0,1.27-2.52C99.33,88.05,98.67,88.1,97.88,88.38Z"/><path class="cls-11" d="M118.29,91.52a50.39,50.39,0,0,0,2.41,8.53,30.14,30.14,0,0,0,4.52,8.92,6.74,6.74,0,0,0,4.71,3c5.3.29,10.62-1.15,15.84-1.87,3.1-.42,6.24-.72,9.3-1.41a10.41,10.41,0,0,0,2.72-.87,2.62,2.62,0,0,0,1-.8c.14-.28,0-.58.17-.76-1.82-3.31-3.78-6.56-5.91-9.67a44.71,44.71,0,0,1-3-4.81,24.88,24.88,0,0,1-2.3-11.42c0-1.44-.54-1.8-1.91-1.8-2.7,0-5.38.14-8.08.14a97,97,0,0,0-10.89,1.11c-2.38.26-4.77.38-7.13.62-1.76.18-1.76,2-1.85,3.48A25.43,25.43,0,0,0,118.29,91.52Z"/><path class="cls-12" d="M137.83,83.45a36,36,0,0,0-4,.46,44.51,44.51,0,0,1-4.48.14,39.08,39.08,0,0,0-4,0,7.19,7.19,0,0,0-2.33.2c-.82.4-.74,1.48-.79,2.28a15.07,15.07,0,0,0,.43,3.52c.25,1.27.61,2.53.78,3.82a33.51,33.51,0,0,0,.67,4.55,24,24,0,0,0,3.41,7.24c1.59,2.23,4.43,1.93,6.87,1.71,5-.45,10-.86,14.9-1.65,1-.16,2.63-.18,3.12-1.26s-.8-2.75-1.3-3.67A47.71,47.71,0,0,0,147,95.26,14.16,14.16,0,0,1,144.77,90a14.73,14.73,0,0,1-.4-3.86,12,12,0,0,0,0-2.75c-.31-1.27-2.71-.32-3.65-.18C139.57,83.41,138.45,83.38,137.83,83.45Z"/><path class="cls-13" d="M140,95.12a7.22,7.22,0,0,1-4.13.53,19,19,0,0,0-5,0c-1.66.25-3.42.2-5.07.38-.38,0-1.64,0-1.87.31-.48.62.49,2.64.74,3.24a23.08,23.08,0,0,0,1.46,3.1c.56.93.74.78,1.61.18a15.71,15.71,0,0,1,2.93-1.46,16.46,16.46,0,0,0,3.07-1.89,2.09,2.09,0,0,1,2.49-.23c1.33.52,2.64,1,4,1.48a30,30,0,0,0,5.14.94,19.59,19.59,0,0,0,4.51.48c1.72-.17.66-1.29.17-2.44-.75-1.73-2.07-3-3.16-4.49-.61-.83-.78-.86-1.78-.81a24,24,0,0,0-3.69.33A5.33,5.33,0,0,0,140,95.12Z"/><g class="cls-14"><g id="Aurores"><path class="cls-15" d="M137,102.12s-2.7-.31-2.7-1.56,4.61-2.08,4.18-3.25-12.94,1.38-14.89-3.07V97s.8,1,3.64,1.16c5.52.26,9.26-1.16,9.43-.41s-3.37,1.62-3.17,3.06S137,102.12,137,102.12Z"/><path class="cls-16" d="M129.76,91.06s-.37,3,2.19,3.21,5.56-1,8.52-1.29,4.83.81,5.54,1.57c0,0-1.66-2.23-5.6-1.93s-7.46,2-8.92,1c-1.07-.73-.58-2.56-.58-2.56Z"/><path class="cls-16" d="M147.48,96.62a2.64,2.64,0,0,1-.84,2.12,6.64,6.64,0,0,1-2.76,1.2,4.87,4.87,0,0,0,3.06-1A2.1,2.1,0,0,0,147.48,96.62Z"/><path class="cls-17" d="M137,102.12s-2.56-.93-.45-1.85c2.39-1,8.44-1.42,7.63-3.84s-7.28-1.16-10.6-1c-2.42.13-6.56-.82-6.92-4.4h2.48s-.45,4.09,4.08,3.47,11.4-3.39,13.52,1.19c2.49,5.37-9.92,3.93-10.54,5.39C136.13,101.35,136.36,101.67,137,102.12Z"/><path class="cls-18" d="M133.26,94.53A5.1,5.1,0,0,1,131,94.4s.57.54,2.73.21,9-2.12,11.39-.3c2.54,1.94,1.85,4.33-.9,5.22,2.1-.58,3.53-1.64,2.52-3.81C144.66,91.14,137.8,93.91,133.26,94.53Z"/><path class="cls-19" d="M137,102.12s-.78-.61-.58-1c.32-.58,2.58-.81,2.58-.81a6,6,0,0,0-2.15.84C136.55,101.59,137,102.12,137,102.12Z"/><path class="cls-20" d="M126.12,91.06s.58,3.87,5.62,4.48c4.45.55,10.94-1.48,12,.84,1.21,2.67-9.22,3-8.21,4.68,0,0-.68-.36.39-1.12s6.89-1.54,6.52-3.13c-.33-1.41-6.74-.66-10.72-1.09-5.81-.63-6.51-4.08-6.46-4.66Z"/><path class="cls-16" d="M137.06,95.46s5.64-.51,6.31,1c.5,1.12-2.1,2.13-3.45,2.57,2.25-.61,4.38-1.26,3.81-2.64S140.49,95.14,137.06,95.46Z"/><path class="cls-21" d="M124,96a5.48,5.48,0,0,0,1,.63,7.5,7.5,0,0,0,1.5.52c.28.07.58.12.89.17l1,.13c.66.06,1.36.1,2.08.11s1.47,0,2.22,0,1.52-.09,2.28-.15l1.14-.08c.38,0,.76,0,1.13,0a3.07,3.07,0,0,1,.53.06.4.4,0,0,1,.2.08l0,0h0v0a.76.76,0,0,1-.13.16l-.19.15a4.87,4.87,0,0,1-.45.27c-.61.34-1.23.63-1.78,1a6.39,6.39,0,0,0-.78.55,3.11,3.11,0,0,0-.32.31,1.48,1.48,0,0,0-.23.38.78.78,0,0,0,0,.21.21.21,0,0,0,0,.11.34.34,0,0,0,0,.1,1,1,0,0,0,.17.37,1.66,1.66,0,0,0,.57.46,3.42,3.42,0,0,0,.61.25l.53.14.48.09.31,0h0a7.59,7.59,0,0,1-.75-.17,4.36,4.36,0,0,1-1.1-.42,1.57,1.57,0,0,1-.52-.44.67.67,0,0,1-.1-.67,1.15,1.15,0,0,1,.21-.33,2.87,2.87,0,0,1,.31-.29,5.41,5.41,0,0,1,.77-.51c.27-.16.57-.31.87-.47s.61-.3.92-.47c.16-.09.32-.18.47-.28l.23-.17.1-.11a.53.53,0,0,0,.08-.15.3.3,0,0,0,0-.1.11.11,0,0,0,0,0h0v0h0a.4.4,0,0,0-.12-.16,1,1,0,0,0-.3-.13,2.34,2.34,0,0,0-.58-.06,11,11,0,0,0-1.15,0l-1.15.08-2.27.15c-.75,0-1.49.05-2.21,0s-1.4,0-2.05-.12a12.53,12.53,0,0,1-1.79-.31,7,7,0,0,1-.77-.25c-.23-.09-.45-.19-.65-.29a5.26,5.26,0,0,1-.94-.63,3.11,3.11,0,0,1-.49-.51,1.27,1.27,0,0,1-.12-.18v.67A2.59,2.59,0,0,0,124,96Z"/><path class="cls-21" d="M136.73,102.1l-.29,0-.43,0a8,8,0,0,1-1.12-.23,3.39,3.39,0,0,1-.64-.25,2.11,2.11,0,0,1-.31-.21,1.09,1.09,0,0,1-.23-.29.93.93,0,0,1,0-.76,2.29,2.29,0,0,1,.57-.64,10.11,10.11,0,0,1,1.64-1c.29-.16.6-.31.88-.5a1.16,1.16,0,0,0,.21-.16.61.61,0,0,0,.17-.19.27.27,0,0,0,0-.12.17.17,0,0,0,0-.12.55.55,0,0,0-.25-.1,4.87,4.87,0,0,0-.54,0l-.54,0-1.09.11c-.72.09-1.45.18-2.16.25s-1.41.14-2.09.18a20.62,20.62,0,0,1-3.73-.06,6.85,6.85,0,0,1-1.44-.31,6.92,6.92,0,0,1-1.05-.42c-.28-.15-.48-.28-.62-.37l-.07-.06v.06l0,0a5.65,5.65,0,0,0,.62.38,8.24,8.24,0,0,0,1.06.43,7.81,7.81,0,0,0,1.46.3,19.81,19.81,0,0,0,3.73.05q1-.06,2.1-.18l2.15-.25c.36,0,.73-.09,1.09-.12l.54,0a3.09,3.09,0,0,1,.53,0,.57.57,0,0,1,.24.09.13.13,0,0,1,.05.11.23.23,0,0,1,0,.11,1,1,0,0,1-.16.19l-.21.15c-.28.19-.59.34-.88.5a10.21,10.21,0,0,0-1.65,1,2.23,2.23,0,0,0-.58.65.93.93,0,0,0,0,.78.89.89,0,0,0,.24.3,1.34,1.34,0,0,0,.31.22,4.89,4.89,0,0,0,.65.26,7.81,7.81,0,0,0,1.13.23,6,6,0,0,0,.61.07H137Z"/><path class="cls-21" d="M137,102.12h0l-.21,0h0Z"/><path class="cls-21" d="M136.44,102.06l.29,0,.28,0-.25,0h0Z"/><path class="cls-21" d="M136.44,102.06l.29,0,.28,0-.25,0h0Z"/><path class="cls-22" d="M136.94,102.07h0l.08,0h0l-.09-.05-.12-.06-.12-.07,0,0a3.72,3.72,0,0,1-.31-.22l-.17-.16v0a.87.87,0,0,1-.19-.23.4.4,0,0,1-.05-.3.42.42,0,0,1,.09-.14.86.86,0,0,1,.14-.13,3.26,3.26,0,0,1,.74-.42,14,14,0,0,1,2-.56l1.18-.24c.41-.09.83-.17,1.27-.28a11.32,11.32,0,0,0,1.31-.38,4.62,4.62,0,0,0,1.25-.64,2.24,2.24,0,0,0,.49-.53,1.46,1.46,0,0,0,.21-.67,2.12,2.12,0,0,0-.08-.71,1.7,1.7,0,0,0-.36-.64,2.35,2.35,0,0,0-.62-.45,3.73,3.73,0,0,0-.73-.26,8,8,0,0,0-1.55-.21c-.52,0-1,0-1.55,0s-1,.06-1.55.1c-1,.07-2,.18-3,.25l-1.43.08-.69,0-.67,0a7.53,7.53,0,0,1-2.41-.48,5,5,0,0,1-1.72-1.1,4.77,4.77,0,0,1-.9-1.25,5.3,5.3,0,0,1-.33-.92c0-.11,0-.2,0-.25a.44.44,0,0,1,0-.09H127a.28.28,0,0,1,0,.08c0,.06,0,.15.06.26a4.23,4.23,0,0,0,.33.93,4.67,4.67,0,0,0,.88,1.28,4.8,4.8,0,0,0,.75.63,5.62,5.62,0,0,0,1,.53l.56.2a6.06,6.06,0,0,0,.61.16l.31.06.32,0q.33,0,.66.06c.23,0,.46,0,.68,0h.7l1.43-.09,3-.27c.51,0,1-.08,1.53-.1s1,0,1.55,0a7.71,7.71,0,0,1,1.52.19,3.32,3.32,0,0,1,.71.25,2.1,2.1,0,0,1,.59.42,1.66,1.66,0,0,1,.35.6,2.05,2.05,0,0,1,.07.34,1.94,1.94,0,0,1,0,.34,1.55,1.55,0,0,1-.2.64,1.87,1.87,0,0,1-.46.51,4.54,4.54,0,0,1-1.23.65,11.32,11.32,0,0,1-1.31.38c-.86.21-1.69.36-2.45.52a12.08,12.08,0,0,0-2,.56,2.69,2.69,0,0,0-.77.42,1.85,1.85,0,0,0-.14.14.37.37,0,0,0-.1.17.28.28,0,0,0,0,.18.44.44,0,0,0,.06.16,1.47,1.47,0,0,0,.42.41,3.74,3.74,0,0,0,.37.24l.33.16-.09,0Z"/><path class="cls-22" d="M136.35,101.69l.05,0-.06,0,0,0-.07-.06Z"/><path class="cls-22" d="M136.56,101.85l.1.06a1.3,1.3,0,0,1-.2-.15l-.1-.07,0,0h0A1.57,1.57,0,0,0,136.56,101.85Z"/><path class="cls-23" d="M127.65,91.15a1.38,1.38,0,0,0,0,.26,3.44,3.44,0,0,0,.24,1,3.57,3.57,0,0,0,.85,1.3,4.1,4.1,0,0,0,.79.6,4.9,4.9,0,0,0,1,.45,8.19,8.19,0,0,0,2.49.35c.9,0,1.84-.09,2.82-.18s2-.21,3-.29c.51,0,1-.07,1.54-.09s1,0,1.56,0a5.51,5.51,0,0,1,1.51.33,2.47,2.47,0,0,1,.66.36,1.81,1.81,0,0,1,.5.53,1.93,1.93,0,0,1,.26.65,1.33,1.33,0,0,1,0,.34,1.36,1.36,0,0,1,0,.35,1.51,1.51,0,0,1-.24.64,2.28,2.28,0,0,1-.48.5,4.93,4.93,0,0,1-1.24.66,10.76,10.76,0,0,1-1.3.4c-.87.22-1.7.37-2.47.52a20.28,20.28,0,0,0-2.07.46,3.18,3.18,0,0,0-.81.34.81.81,0,0,0-.28.27.44.44,0,0,0-.06.16.42.42,0,0,0,0,.16.79.79,0,0,0,.15.27l0,0,.06,0-.08-.08a.87.87,0,0,1-.14-.27.42.42,0,0,1,0-.16.52.52,0,0,1,.06-.16,1,1,0,0,1,.27-.26,3.52,3.52,0,0,1,.81-.33c.61-.17,1.31-.3,2.08-.44s1.6-.29,2.47-.51A9.35,9.35,0,0,0,143,99a4.74,4.74,0,0,0,1.26-.66,2.2,2.2,0,0,0,.49-.52,1.5,1.5,0,0,0,.26-.66,1.45,1.45,0,0,0,0-.36,1.34,1.34,0,0,0-.05-.35,2.1,2.1,0,0,0-.27-.68,2.22,2.22,0,0,0-.52-.54,2.6,2.6,0,0,0-.68-.36,5.58,5.58,0,0,0-1.52-.33,13.71,13.71,0,0,0-1.57,0c-.52,0-1,0-1.55.09-1,.08-2,.2-3,.3s-1.91.18-2.81.18a9.17,9.17,0,0,1-1.3-.08,7.26,7.26,0,0,1-1.18-.27,4.59,4.59,0,0,1-1-.45,3.67,3.67,0,0,1-.77-.6,3.54,3.54,0,0,1-.83-1.29,4.07,4.07,0,0,1-.22-1c0-.12,0-.2,0-.26v-.09h-.09Z"/><path class="cls-22" d="M136.68,101.93l0,0-.1-.06Z"/><path class="cls-23" d="M136.68,101.93l0,0-.1-.06Z"/><path class="cls-22" d="M136.35,101.69l-.12-.11-.06,0,.17.16a3.72,3.72,0,0,0,.31.22l-.25-.18Z"/><path class="cls-23" d="M136.35,101.69l-.12-.11-.06,0,.17.16a3.72,3.72,0,0,0,.31.22l-.25-.18Z"/><path class="cls-23" d="M128.3,91.42a5,5,0,0,0,.23,1,4.7,4.7,0,0,0,.3.66,3.82,3.82,0,0,0,.51.69,4.06,4.06,0,0,0,.78.61,4.19,4.19,0,0,0,1,.42,6.08,6.08,0,0,0,1.22.17c.43,0,.87,0,1.33,0l1.39-.1,1.45-.14c1-.09,2-.19,3-.25.51,0,1,0,1.55,0a11.43,11.43,0,0,1,1.55.12,4.78,4.78,0,0,1,1.43.45,2.48,2.48,0,0,1,.57.42,1.85,1.85,0,0,1,.4.56,2.36,2.36,0,0,1,.19.64v.17a.76.76,0,0,1,0,.15,1.64,1.64,0,0,1-.05.32,1.92,1.92,0,0,1-.79,1,5.56,5.56,0,0,1-1.23.65,12.19,12.19,0,0,1-1.29.43c-.86.25-1.7.43-2.47.59l-1.1.23-1,.24a6.06,6.06,0,0,0-.85.27,1.55,1.55,0,0,0-.33.21.76.76,0,0,0-.11.14.45.45,0,0,0,0,.16.57.57,0,0,0,.11.29,1.07,1.07,0,0,0,.14.16l0,0a1.54,1.54,0,0,1-.17-.19.56.56,0,0,1-.1-.29.36.36,0,0,1,.14-.3,1.32,1.32,0,0,1,.33-.2,4.72,4.72,0,0,1,.85-.26c.31-.08.64-.14,1-.21l1.11-.19c.78-.13,1.63-.26,2.51-.47a12,12,0,0,0,1.35-.39c.22-.08.45-.17.67-.27a6,6,0,0,0,.65-.37,2.51,2.51,0,0,0,.57-.51,1.78,1.78,0,0,0,.37-.69,1.21,1.21,0,0,0,.06-.38v-.27h0v-.11a3.1,3.1,0,0,0-.23-.73,2.3,2.3,0,0,0-.47-.65,2.86,2.86,0,0,0-.66-.48,4.74,4.74,0,0,0-1.56-.45,9.54,9.54,0,0,0-1.6-.09c-.53,0-1,0-1.57.08-1,.1-2.05.23-3,.36l-1.44.17c-.47,0-.94.1-1.39.12a11.56,11.56,0,0,1-1.31,0,4.23,4.23,0,0,1-.63,0,5.59,5.59,0,0,1-.59-.11,4,4,0,0,1-1-.42,3.24,3.24,0,0,1-.77-.61,3.74,3.74,0,0,1-.5-.69,4,4,0,0,1-.29-.65,4.49,4.49,0,0,1-.2-1c0-.11,0-.2,0-.26v-.09h-.09v.09C128.28,91.21,128.29,91.3,128.3,91.42Z"/><path class="cls-22" d="M137,102.12h0Z"/><path class="cls-23" d="M137,102.12h0Z"/><path class="cls-22" d="M136.7,101.94l0,0,0,0,.12.07-.07,0Z"/><path class="cls-23" d="M136.7,101.94l0,0,0,0,.12.07-.07,0Z"/><path class="cls-22" d="M136.4,101.73l.16.12a1.57,1.57,0,0,1-.21-.17h0l0,0,0,0Z"/><path class="cls-23" d="M136.4,101.73l.16.12a1.57,1.57,0,0,1-.21-.17h0l0,0,0,0Z"/><path class="cls-22" d="M136.75,102l-.06,0h0l-.12-.08-.16-.12.25.18,0,0Z"/><path class="cls-23" d="M136.75,102l-.06,0h0l-.12-.08-.16-.12.25.18,0,0Z"/><path class="cls-23" d="M136.75,102l-.06,0h0l-.12-.08-.16-.12.25.18,0,0Z"/><path class="cls-22" d="M128.73,91.15v.28c0,.12,0,.27.05.44a3.73,3.73,0,0,0,.13.59,3.2,3.2,0,0,0,.31.69,2.77,2.77,0,0,0,.56.71,3.05,3.05,0,0,0,.87.57,5.4,5.4,0,0,0,1.74.39c.22,0,.44,0,.66,0,.44,0,.89-.07,1.36-.13.93-.11,1.9-.28,2.92-.42s2.06-.28,3.13-.35c.54,0,1.08,0,1.62,0a7.82,7.82,0,0,1,1.6.23,3.82,3.82,0,0,1,1.43.66,2.77,2.77,0,0,1,.52.56A2.51,2.51,0,0,1,146,96c0,.12.07.24.1.36l0,.18s0,.06,0,.09v.09a2,2,0,0,1-.09.7,1.93,1.93,0,0,1-.34.63,2.52,2.52,0,0,1-.53.5,5.53,5.53,0,0,1-1.3.67,11.8,11.8,0,0,1-1.37.4c-.91.21-1.79.34-2.6.46s-1.55.21-2.2.33a6.8,6.8,0,0,0-.91.21,1.9,1.9,0,0,0-.38.17l-.15.12a.65.65,0,0,0-.09.16.52.52,0,0,0,0,.33.79.79,0,0,0,.16.23.49.49,0,0,0,.13.12l.26.18.22.13-.24-.15a2.81,2.81,0,0,1-.34-.3,1.3,1.3,0,0,1-.15-.23.41.41,0,0,1,0-.29.54.54,0,0,1,.22-.26,1.79,1.79,0,0,1,.37-.16,5.24,5.24,0,0,1,.89-.23c.65-.12,1.4-.2,2.21-.31s1.69-.23,2.61-.43a10.32,10.32,0,0,0,1.39-.39,6.65,6.65,0,0,0,.69-.28,6.11,6.11,0,0,0,.65-.38,3.09,3.09,0,0,0,.56-.52,2.17,2.17,0,0,0,.36-.67,2.09,2.09,0,0,0,.1-.75v-.1a.28.28,0,0,0,0-.09,1.62,1.62,0,0,0,0-.19,2.42,2.42,0,0,0-.1-.36,2.67,2.67,0,0,0-.34-.7,3,3,0,0,0-.55-.58,3.86,3.86,0,0,0-1.48-.68,8.08,8.08,0,0,0-1.63-.21,14.79,14.79,0,0,0-1.63,0c-1.07.08-2.12.23-3.13.38s-2,.32-2.92.44c-.46,0-.91.1-1.36.12a5.92,5.92,0,0,1-1.27-.06,4.16,4.16,0,0,1-1.1-.34,3.12,3.12,0,0,1-.84-.58,3,3,0,0,1-.52-.7,3.81,3.81,0,0,1-.25-.68,3.6,3.6,0,0,1-.09-1,1.65,1.65,0,0,1,0-.27v-.1h-.28Z"/><path class="cls-22" d="M137,102.12h0Z"/><path class="cls-22" d="M137,102.12h0Z"/><path class="cls-22" d="M136.94,102.08l-.12-.07.12.06.09.05-.06,0Z"/><path class="cls-22" d="M136.94,102.08l-.12-.07.12.06.09.05-.06,0Z"/><path class="cls-22" d="M136.46,101.76a1.3,1.3,0,0,0,.2.15l.05,0,.23.14h0l0,0-.08,0h0l-.22-.13Z"/><path class="cls-22" d="M136.46,101.76a1.3,1.3,0,0,0,.2.15l.05,0,.23.14h0l0,0-.08,0h0l-.22-.13Z"/><path class="cls-22" d="M137,102.09l.06,0,0,0Z"/><path class="cls-23" d="M137,102.09l.06,0,0,0Z"/><path class="cls-22" d="M137,102.09l.06,0,0,0Z"/><path class="cls-22" d="M136.7,101.94l.24.14h0l-.23-.14-.05,0,0,0Z"/><path class="cls-23" d="M136.7,101.94l.24.14h0l-.23-.14-.05,0,0,0Z"/><path class="cls-22" d="M136.7,101.94l.24.14h0l-.23-.14-.05,0,0,0Z"/><path class="cls-22" d="M137,102.1h0l0,0Z"/><path class="cls-23" d="M137,102.1h0l0,0Z"/><path class="cls-22" d="M137,102.1h0l0,0Z"/><path class="cls-22" d="M137,102.09h0l-.19-.11.07,0,.12.07Z"/><path class="cls-23" d="M137,102.09h0l-.19-.11.07,0,.12.07Z"/><path class="cls-22" d="M137,102.09h0l-.19-.11.07,0,.12.07Z"/><path class="cls-22" d="M136.7,101.94h0l.06,0,.19.11h0Z"/><path class="cls-23" d="M136.7,101.94h0l.06,0,.19.11h0Z"/><path class="cls-23" d="M136.7,101.94h0l.06,0,.19.11h0Z"/><path class="cls-22" d="M136.7,101.94h0l.06,0,.19.11h0Z"/><path class="cls-21" d="M145.25,93.87a4.9,4.9,0,0,0-.78-.45,6.61,6.61,0,0,0-1.12-.4,8,8,0,0,0-1.39-.24l-.39,0h-.79l-.41,0a22.85,22.85,0,0,0-3.38.55l-1.69.38c-.56.11-1.11.22-1.65.28a6,6,0,0,1-1.53,0l-.34-.07a2.39,2.39,0,0,1-.32-.11,2.1,2.1,0,0,1-.52-.33,2,2,0,0,1-.53-.89,3.63,3.63,0,0,1-.11-.8,3.12,3.12,0,0,1,0-.52,1.15,1.15,0,0,0,0-.14l0-.08H130v0a1,1,0,0,1,0,.15,4.3,4.3,0,0,0,0,.58,3.6,3.6,0,0,0,.14.88,2.59,2.59,0,0,0,.23.52,2.06,2.06,0,0,0,.41.49,2.27,2.27,0,0,0,.62.37,2.06,2.06,0,0,0,.35.12,2.66,2.66,0,0,0,.39.07l.38,0c.39,0,.8,0,1.21-.07h0c.55-.08,1.1-.19,1.66-.32L137,93.5a22.64,22.64,0,0,1,3.34-.61l.41,0H142a8.27,8.27,0,0,1,1.39.21,5.76,5.76,0,0,1,1.11.38,5.1,5.1,0,0,1,.79.43,3.77,3.77,0,0,1,.45.35,1.63,1.63,0,0,0,.14.14h0l-.14-.14A3.4,3.4,0,0,0,145.25,93.87Z"/></g></g><path class="cls-9" d="M137,107.39a8.62,8.62,0,0,1,2.59-.13,27.12,27.12,0,0,0,4.38-.52,55.88,55.88,0,0,0,6.69-1.24c1.57-.46,1.85-1.45,1.07-2.84-.35-.61-.48-.8-1.19-.81s-1.28,0-1.94,0a43.92,43.92,0,0,1-11-1.87c-1.17-.39-2.3-1.25-3.47-.66-1.4.7-2.76,1.58-4.1,2.36-.72.43-1.42.81-2.17,1.17-.6.3-1.31.47-1,1.24a7.42,7.42,0,0,0,1.44,1.58,8.28,8.28,0,0,0,1.3,1.28c1.08.77,2.5.64,3.78.64A14.9,14.9,0,0,0,137,107.39Z"/><path class="cls-24" d="M126,69.08a7.1,7.1,0,0,0-3.17-2.51h0a3.26,3.26,0,0,0-2.1.06A3,3,0,0,0,118.87,69a3.49,3.49,0,0,0,1.69,2.51c1.16.84,2.64,1.7,2.39,3.37-.15,1-.31,1.94.85,2.3a2.71,2.71,0,0,0,2.49-.57,4.87,4.87,0,0,0,1.09-3.22A7.24,7.24,0,0,0,126,69.08Z"/><path d="M152.12,101.81a23.48,23.48,0,0,0-1.23-2c-.48-.75-1-1.41-1.55-2.14a37.55,37.55,0,0,1-3-4.25,14.87,14.87,0,0,1-1.49-6.58c0-1.1,0-2.19,0-3.29,0-.67-.24-1.25-1-1.31a3.34,3.34,0,0,0-1.12.27,5.51,5.51,0,0,1-1.67.1,9.88,9.88,0,0,0-1.44,0,10.9,10.9,0,0,1-1.51.17A21.79,21.79,0,0,0,135,83a6.58,6.58,0,0,0-1.4.21l-.21.07a7.46,7.46,0,0,1-.95.11c-.94,0-1.88,0-2.81,0s-2,.21-3,.2-2,0-3,0a1.58,1.58,0,0,0-1.47.87c-.76,1.45-.32,3.32-.23,4.84a21.42,21.42,0,0,0,.59,2.73,24.54,24.54,0,0,1,.4,3.2,16.4,16.4,0,0,0,1.42,5.31c.32.76.73,1.49,1.09,2.22.21.41.42.85.65,1.24s.54.67.77,1a6.38,6.38,0,0,0,.53.82c.28.32.64.49.91.84a3,3,0,0,0,1.73,1.21,12.64,12.64,0,0,0,2.61.17,21.65,21.65,0,0,0,3.22-.08c.84-.11,1.68-.09,2.53-.2.51-.07,1,0,1.54-.1s.8-.2,1.21-.26c2-.31,4-.41,6-.86,1.65-.38,3.78-.45,5.23-1.4S152.65,102.88,152.12,101.81ZM124,95.8s-.22-2.29-.38-3.4c-.13-.93-.5-1.8-.63-2.71a17.08,17.08,0,0,1-.23-2.67c0-.76,0-2.23.92-2.35a22.06,22.06,0,0,1,3,0c1,0,2-.2,3-.2s1.87.08,2.81,0,1.87-.15,2.82-.19c.49,0,1-.15,1.47-.18s.8,0,1.21,0c.84-.14,1.68-.31,2.52-.37a2.14,2.14,0,0,0,.38-.07c.33,0,.65,0,1,0a5.07,5.07,0,0,0,1-.1,5.85,5.85,0,0,1,.88-.28,4.85,4.85,0,0,1,0,.93v1.58a17,17,0,0,0,.56,5c.29.93,1.72,4.16,1.83,4.31.88,1.23,1.81,2.46,2.76,3.63a9.69,9.69,0,0,1,1.35,2,4.82,4.82,0,0,0,.27.5c-.77-.14-1.6-.15-2.35-.21-1.07-.08-2.15-.28-3.22-.42-1.3-.17-2.59-.25-3.88-.5A26.27,26.27,0,0,1,137.56,99c-.94-.33-2.19-1-3.19-.63a16.06,16.06,0,0,0-2.79,1.59c-1,.58-2.06,1.22-3.08,1.84a8.6,8.6,0,0,0-1.74,1.13c-.17-.27-.32-.55-.47-.85a31.84,31.84,0,0,1-2-4.8c-.08-.23-.19-.7-.19-.7Zm27.74,8.52a7.29,7.29,0,0,1-2.69.79c-1.78.36-3.55.7-5.36.9-1.62.18-3.21.58-4.84.69s-3.44.38-5.17.36c-.88,0-1.78,0-2.67,0a2.76,2.76,0,0,1-1.26-.31c-.42-.26-.59-.73-.94-1a5,5,0,0,1-.71-.6c-.19-.26-.31-.57-.49-.83l-.37-.53a7,7,0,0,0,1.48-.84c.43-.27.87-.53,1.31-.79q.93-.45,1.83-1c.48-.27,1-.51,1.41-.82s.61-.53.94-.75a1.85,1.85,0,0,1,.44-.18,1.12,1.12,0,0,1,.32,0,11.5,11.5,0,0,1,1.36.41c.52.14,1,.39,1.53.58l.95.31a13.66,13.66,0,0,0,1.52.41c1.51.38,3,.64,4.6.91,1.05.19,2.05.24,3.1.34a10.4,10.4,0,0,0,1.46.18c.35,0,.7-.07,1.06-.12l.25.07a.43.43,0,0,0,.46.08h0l.06.12C151.54,103.06,152.21,103.94,151.72,104.32Z"/><path d="M158,102a20.85,20.85,0,0,1-2-2.81c-.63-1.08-1.44-2-2.09-3.12l-.28-.47a6.49,6.49,0,0,0,2-.26,3.25,3.25,0,0,0,2.2-3c0-.38,0-.77.05-1.16a6.38,6.38,0,0,0,.14-1.08c0-.35.11-.66.15-1a9.51,9.51,0,0,0,0-1.51c0-1.93.1-3.84.17-5.78,0-1,.23-1.91.32-2.87s0-1.68.09-2.53a40.24,40.24,0,0,0,.25-5.6v-6a15.1,15.1,0,0,0,0-2.33c-.13-.82-.1-1.62-.2-2.45-.12-1-.13-2-.27-2.94a7.91,7.91,0,0,0-.54-2.46,5.06,5.06,0,0,0-3-2.82,19.34,19.34,0,0,0-4.62-.55l-.12,0a3.43,3.43,0,0,0-.07-1.35,3,3,0,0,0,2.08-.43c1.53-1.12,1.07-3.73.75-5.32a3.33,3.33,0,0,0-.9-2,4.6,4.6,0,0,0-2.48-.72c-2.31-.13-4.66,0-7,0-1.35,0-3.71-.45-4.67.82a6.81,6.81,0,0,0-.87,2.1,5.1,5.1,0,0,0-.2,2.51c.38,1.64,1.92,2.12,3.42,2.28l-.06.47a4.4,4.4,0,0,0,0,.81l-1-.11a13.43,13.43,0,0,1-2.43-.42c-.42-.14-1-.18-1.37-.35a3.26,3.26,0,0,1-1-.92,8.59,8.59,0,0,1-1-2.25c-.39-.81-1-1.47-1.46-2.24a7.65,7.65,0,0,0-1.22-1.89,4.13,4.13,0,0,0-1.86-.92,10.92,10.92,0,0,0-2.8-.11l-3.5,0c-1.16,0-2.32,0-3.47.09s-2.22,0-3.3.19-2,.13-3,.24a7.85,7.85,0,0,0-2.84.89,4.05,4.05,0,0,0-.58.35l-.2.1a6,6,0,0,0-1.78,1.73,10.36,10.36,0,0,0-1.32,2,11,11,0,0,1-1,1.88,2.07,2.07,0,0,1-1.53.94c-1,.14-2,.25-2.93.41a9.72,9.72,0,0,1-1.43.08,4.9,4.9,0,0,0-.09-.84.43.43,0,0,1,0-.11h.08c.36-.06.67-.13,1-.18a1.6,1.6,0,0,0,.94-.45,4.94,4.94,0,0,0,1.33-1.79,8.55,8.55,0,0,0,.13-1.24,5.79,5.79,0,0,0,.14-1.49,5.56,5.56,0,0,0-.54-2.17c-.49-.77-1.19-.76-2-.81s-1.56-.17-2.38-.17a17.86,17.86,0,0,1-3.19-.11,15,15,0,0,0-2.6,0c-.94,0-1.84.12-2.76.17s-1.46.35-1.6,1.26a21.59,21.59,0,0,0,0,2.9c0,.16,0,.33,0,.49a7.57,7.57,0,0,0,0,1.58,1.74,1.74,0,0,0,1.15,1.51,1.87,1.87,0,0,0,.81.21l.91.14a4,4,0,0,0,0,1.82s0,0,0,.05l-.19,0a4.59,4.59,0,0,0-3.71,1.66,15.88,15.88,0,0,0-2.33,4.94c-1.11,3.81-.15,7.91-.67,11.79-.11.89,0,1.79-.07,2.68,0,1-.22,2-.2,3.1q0,3,0,6.06c0,1,0,1.91,0,2.86s.16,1.91.2,2.87c.07,1.84,0,3.7.21,5.54a4.12,4.12,0,0,0,3,3.43,9.58,9.58,0,0,0,2.13.29c.94,0,1.87.34,2.81.44,2.15.22,4.35.08,6.51.09s4.48-.09,6.7.1,4.51.07,6.75.07h7.08c.17.39.37.76.58,1.15a37.9,37.9,0,0,0,2.39,6.16c.3.59.65,1.14,1,1.73s.67.91,1,1.4a15.69,15.69,0,0,0,2.08,2.79c.69.72,1.28,1.58,2,2.23a4.2,4.2,0,0,0,3.14.89c1.3,0,2.58-.3,3.87-.42.56,0,1.09-.3,1.65-.31a6.8,6.8,0,0,0,1.74-.21c.65-.16,1.27-.08,1.93-.18s1.26-.23,1.88-.33,1.2-.31,1.82-.37,1.38-.19,2.07-.28c2.77-.35,5.49-.91,8.23-1.41,1.17-.22,2.28-.67,3.45-.9a4,4,0,0,0,2.15-.94C161.18,106.13,159,103.29,158,102ZM100.85,42.68a3.72,3.72,0,0,1,.26,1.85,4.74,4.74,0,0,1-.43,2c-.12.17-.31.32-.44.48-.28.32-.15.25-.44.29l-.3,0c0-.13,0-.27,0-.42,0-.55,0-1.11,0-1.67,0-.72-.08-1.43-.1-2.16,0-.22,0-.43,0-.64C99.75,42.46,100.64,42.47,100.85,42.68Zm55.24,46.37a5.61,5.61,0,0,0-.14,1.07c0,.41-.15.77-.17,1.17,0,.61.12,1.51-.42,1.95s-2,.42-2.93.34l-.28-.53c-.24-.45-.59-.82-.81-1.3s-.53-1.13-.77-1.7c-.42-1.06-.79-2.14-1.12-3.23a2.91,2.91,0,0,1,.72-.1c.34,0,.68.13,1,.17.78.09,1.55,0,2.32.16a10.57,10.57,0,0,0,2.25.07.94.94,0,0,0,.4-.12A8.71,8.71,0,0,1,156.09,89.05ZM157,66.7c0,1.88,0,3.76,0,5.65,0,1.65-.31,3.27-.34,4.91,0,2-.23,4-.41,5.93-.08.85-.11,1.67-.12,2.52a.7.7,0,0,0-.37-.1c-1.53,0-3.13,0-4.65-.18a4.67,4.67,0,0,0-1.9,0l-.15,0a10.3,10.3,0,0,1-.54-3.18,12.07,12.07,0,0,0-.09-3.65c-.32-1.08-1.3-1.31-2.3-1.3-2.66,0-5.27.21-7.91.41-.76.06-1.5.16-2.25.25a3.05,3.05,0,0,0,.3-.6,15.28,15.28,0,0,0,.69-3.91,9.83,9.83,0,0,0-.92-4A10.76,10.76,0,0,0,134.18,66c-.39-.43-.7-.93-1.08-1.37a6.82,6.82,0,0,0-.59-.61H133c.6,0,1.21,0,1.81,0,1.1,0,2.15.23,3.26.23s2.22.06,3.32,0a17.33,17.33,0,0,1,3.45-.13c2,.32,4.1,0,6.15.27a32.67,32.67,0,0,0,3.28.1,7.45,7.45,0,0,0,2.74-.36C157,65,157,65.83,157,66.7Zm-25.13,6.7a15.48,15.48,0,0,0-.3-1.91c-.49-2.45-2.28-4.14-4-5.8a9.1,9.1,0,0,0-3-1.64,12.91,12.91,0,0,0-3.64-.76,11.92,11.92,0,0,0-3.37.14,12.59,12.59,0,0,0-2.61.82,8.49,8.49,0,0,0-3.54,2,12.53,12.53,0,0,0-.88,1.39c-.31.51-.72,1-1,1.49-1.29,2.24-1.35,4.9-1.35,7.41a8.58,8.58,0,0,0,.73,3.88c.25.49.5,1,.79,1.48s.69.79,1,1.25a9.21,9.21,0,0,0,.89,1.09,9,9,0,0,0,1.68,1.47,6.9,6.9,0,0,0,1.7.89,14.28,14.28,0,0,1,1.77.42c0,.46.1.92.16,1.38a3.22,3.22,0,0,1-1,.06,11.29,11.29,0,0,1-1.72-.4,21.59,21.59,0,0,1-3-1.33c-2.15-1-4-2.44-4.75-4.76a16.35,16.35,0,0,1-.82-3.31,21.89,21.89,0,0,1,0-3.71,19.33,19.33,0,0,1,2-7,11.74,11.74,0,0,1,4.63-4.89c1.93-1.05,3.91-2.1,6.16-2.14.51,0,1-.15,1.52-.13a14.18,14.18,0,0,1,1.59.12,14.64,14.64,0,0,1,3.12.82,22.14,22.14,0,0,1,6.21,3.09,18.58,18.58,0,0,1,2.31,2.54,11.22,11.22,0,0,1,1.68,3.82,9.24,9.24,0,0,1,.46,1.81,10.5,10.5,0,0,1-.46,3.65c-.16.6-.24,1.47-.92,1.62-.33.08-2.68-.09-2.77.2a19.1,19.1,0,0,0,.89-3.17A10.28,10.28,0,0,0,131.88,73.4Zm-2.29,5.25v.08c-1,.09-1.91.07-2.86.24-.62.11-1.22,0-1.84.11s-1,.16-1.61.17a22.17,22.17,0,0,0-3.71.41c-1,.19-2.12.14-2.48,1.37a6.88,6.88,0,0,0-.23,1.62c0,.68-.09,1.31-.15,2,0,.33,0,.65,0,1l-.48-.08a5.12,5.12,0,0,1-2-.77,8.69,8.69,0,0,1-2.54-2.55c-.35-.55-.84-.9-1.16-1.48a7.73,7.73,0,0,1-1-2.29,17.5,17.5,0,0,1,0-5.11,8.78,8.78,0,0,1,1.25-3.93c.26-.38.5-.78.75-1.18a1.74,1.74,0,0,0,.22-.27,1.83,1.83,0,0,0,.14-.28,7,7,0,0,1,.71-.9,13.94,13.94,0,0,1,7-2.3,15.44,15.44,0,0,1,3.87.65,7.87,7.87,0,0,1,3.56,2c.46.48,1,.86,1.47,1.35a7.74,7.74,0,0,1,1.13,1.7,11.47,11.47,0,0,1,1,3.88C130.74,75.74,129.94,77,129.59,78.65ZM149.08,48.3a12.71,12.71,0,0,0,.13-2.63,11.91,11.91,0,0,0,.1-2.87c.66,0,1.61.07,1.95.57a5.2,5.2,0,0,1,.46,2.2,4.56,4.56,0,0,1-.14,2.38c-.35.63-1.12.45-1.72.43l-.81,0Zm-2.45-5.49h1.79a5.82,5.82,0,0,1,0,.59,25.39,25.39,0,0,0-.39,4.61c0,.12,0,.25,0,.37a10,10,0,0,1-1.81-.13,1.7,1.7,0,0,1-.39-.16,1.85,1.85,0,0,0,0-.23c.08-.63,0-1.33.09-2a12.06,12.06,0,0,0-.15-3.07C146.09,42.81,146.36,42.8,146.63,42.81Zm-3.24,2.24a14,14,0,0,0,0-2.24h1.75c-.07.74-.05,1.51-.12,2.25a16.21,16.21,0,0,0-.28,2.83c-.19,0-.37,0-.55,0l-.88-.11c0-.38,0-.78,0-1.1C143.34,46.11,143.37,45.58,143.39,45.05Zm3.42,4.77a21.3,21.3,0,0,0,2.26,0c0,.23-.09.45-.14.67s-.1.39-.14.58c-1.34-.11-2.69-.21-4-.22-.89,0-1.75-.28-2.64-.35l-.56,0a4.75,4.75,0,0,0,0-.92c0-.13,0-.26-.05-.39C143.25,49.41,145,49.67,146.81,49.82Zm-7.2-5.2c-.08.9-.21,1.86-.21,2.78-1.44-.4-1.13-2-.72-3.16.18-.53.29-1.18.88-1.34l.12,0C139.6,43.46,139.66,44.12,139.61,44.62Zm.66,2.92c0-1.06.18-2.13.24-3.18a8.52,8.52,0,0,0,.07-1.56l1,0h1a20.28,20.28,0,0,1-.27,3,8.41,8.41,0,0,0-.1,1.82h-.31C141.36,47.62,140.81,47.6,140.27,47.54ZM98.54,42.36v.08a13.85,13.85,0,0,0,0,2.66c0,.79,0,1.57,0,2.35a2.55,2.55,0,0,1-.48,0,7,7,0,0,0-.79,0c-.14-1.66.2-3.44-.14-5.08C97.65,42.36,98.1,42.34,98.54,42.36Zm-3.54,0a9.91,9.91,0,0,0,1.44,0c0,.67,0,1.34-.06,2,0,1-.15,2.09-.13,3.13h0a14.56,14.56,0,0,1-1.87,0,9.91,9.91,0,0,0-.1-2c0-.13,0-.26,0-.4a18.89,18.89,0,0,0,0-2.49v-.08a1.77,1.77,0,0,0-.07-.36h0Zm1.59,6.81a8,8,0,0,1,1.38,0,2.12,2.12,0,0,0,0,1,13.57,13.57,0,0,1-2.7.25c-.85,0-1.68.17-2.53.18a9.81,9.81,0,0,0-1.09.08.65.65,0,0,0,0-.24,9.86,9.86,0,0,1-.16-1.33,10.29,10.29,0,0,0,2.09.19A23.78,23.78,0,0,0,96.59,49.16Zm-3.38-7a1.08,1.08,0,0,1,.18,0,19.23,19.23,0,0,0-.14,3.12c0,.53,0,1,0,1.56,0,.29,0,.53,0,.75a6,6,0,0,1-1.33-.1l-.37-.07a.34.34,0,0,0,0-.1.51.51,0,0,1,0-.13c0-1,0-2.06,0-3.08a6.09,6.09,0,0,0-.16-1.3,4.76,4.76,0,0,0-.07-.66C92,42.19,92.59,42.21,93.21,42.2Zm-3.8,4.95A1.88,1.88,0,0,1,89.17,46v-.09h0c0-.74,0-1.49,0-2.23,0-.3,0-.61,0-.91a1.62,1.62,0,0,1,0-.31.87.87,0,0,0,0-.13h.06a3.79,3.79,0,0,1,.68,0c.25,0,.49-.08.74-.1a14,14,0,0,0-.22,3.16c0,.52,0,1,0,1.54,0,.11,0,.22,0,.33l-.4,0A2.28,2.28,0,0,1,89.41,47.15ZM85.54,60.67a11.94,11.94,0,0,1,1.25-5.08,10,10,0,0,1,1.39-2.31A2.72,2.72,0,0,1,90,52.6c1.52-.13,3-.19,4.55-.32.81-.07,1.63,0,2.44-.11s1.61-.24,2.41-.23a18.58,18.58,0,0,0,2.89-.25,10.09,10.09,0,0,0,2.57-.5,5.17,5.17,0,0,0,2.61-3.37,7.79,7.79,0,0,1,1.42-2.72l.72-.6a6.6,6.6,0,0,1,2-1l.61-.15a15.54,15.54,0,0,1,2.36,0c.77,0,1.53-.14,2.31-.15,1,0,2-.06,2.94-.09,2-.07,3.9,0,5.84,0,1.3,0,3.17-.36,4,.94.38.62.67,1.27,1.1,1.85A6.18,6.18,0,0,1,132,48.11a5,5,0,0,0,2.93,3.23c.73.23,1.52.46,2.27.63s1.7.2,2.55.31,1.7.12,2.55.21a21.22,21.22,0,0,0,2.76.33c1.65,0,3.36.24,5,.35.79,0,1.57.14,2.36.16a6.83,6.83,0,0,1,2.05.34,2.7,2.7,0,0,1,1.44,1.2,4.74,4.74,0,0,1,.58,1.89c.12.87.14,1.73.23,2.6s.07,1.68.16,2.51c0,.32.07.62.1.93a1.91,1.91,0,0,0-1.25-.12,8,8,0,0,1-1.76.15,32.18,32.18,0,0,1-3.26-.11,27.61,27.61,0,0,0-3.75,0c-1,0-2-.18-3.09-.16-1.23,0-2.42.18-3.64.19a22.51,22.51,0,0,1-3.58,0,19.26,19.26,0,0,0-3.48-.12,4.21,4.21,0,0,0-1.91.19H131a13.8,13.8,0,0,0-2.8-1.46c-1.25-.5-2.48-1-3.75-1.53a8.71,8.71,0,0,0-1.75-.33,13.2,13.2,0,0,0-1.9-.3,6.53,6.53,0,0,0-1.71,0c-.65.12-1.32,0-2,.15a10.27,10.27,0,0,0-3.7,1.25c-1.07.65-2.18,1.09-3.2,1.84l-.11.08a4.44,4.44,0,0,0-2.32-.13c-1.09.09-2.21,0-3.3,0-2,0-4-.33-6.08-.27-2.2.07-4.4,0-6.6,0H88.26c-.47,0-.93,0-1.4-.08s-.77.08-1.14.09a.52.52,0,0,0-.19-.11C85.54,61.46,85.54,61.07,85.54,60.67Zm-.3,22.43c.05-1.89,0-3.78,0-5.67,0-.88,0-1.75,0-2.63s.15-1.85.2-2.78c.15-2.81.13-5.62.13-8.43.26,0,.51,0,.8-.06a10,10,0,0,1,1.34.06c1.16,0,2.32,0,3.47,0,2.32,0,4.64,0,7-.05,2-.09,4,.14,6.07.12,1.1,0,2.21,0,3.3,0,.44,0,.87-.12,1.3-.19l0,0c-.39.47-.82.91-1.21,1.38a17.88,17.88,0,0,0-3.29,7.59,18.65,18.65,0,0,0-.06,8.44,12.3,12.3,0,0,0,1.69,4c0,.08.12.16.18.24-1.57-.06-3.19,0-4.71.08-1,0-1.88-.17-2.84-.16a25,25,0,0,1-3.35,0,38.6,38.6,0,0,0-5.47-.39,26.44,26.44,0,0,1-3.08-.24,9.69,9.69,0,0,0-1.34-.07C85.24,83.94,85.23,83.52,85.24,83.1Zm21.93,11.72c-1.86,0-3.7-.17-5.56-.17s-3.81,0-5.71,0a27.46,27.46,0,0,1-5.44-.28c-1.41-.27-3.14-.06-4.25-1.11a2.4,2.4,0,0,1-.61-2c0-1-.16-1.92-.17-2.88s-.08-1.9-.13-2.84c.41.05.81,0,1.22.1a19.45,19.45,0,0,0,2.85.34,53,53,0,0,1,5.75.53,23.85,23.85,0,0,0,3,.08c1,0,2,.2,3,.21h3.24a23.24,23.24,0,0,0,3.23-.09,14.89,14.89,0,0,0,1.57,1.06,35.32,35.32,0,0,0,3.87,1.87,10.66,10.66,0,0,0,2.17.57,7.7,7.7,0,0,0,1.06.14,2.9,2.9,0,0,0,.79-.13c.07.5.14,1,.23,1.48.2,1,.51,2.07.77,3.1Zm51,11.5h0a1,1,0,0,1-.37.17c-.81.3-1.72.36-2.55.61a52.34,52.34,0,0,1-7.14,1.5c-1.18.17-2.38.33-3.56.52-.61.1-1.24.09-1.85.22s-1.25.29-1.89.41c-1.09.19-2.18.14-3.25.41a7.06,7.06,0,0,1-1.45.14c-.58,0-1.12.25-1.69.32-1.09.12-2.17.3-3.26.38a4.52,4.52,0,0,1-1.76-.06,2.76,2.76,0,0,1-1-.89c-.74-.87-1.59-1.63-2.33-2.5a8.83,8.83,0,0,1-.88-1.34c-.32-.54-.76-1-1.09-1.52a37.16,37.16,0,0,1-1.87-3.46,36.1,36.1,0,0,1-1.43-3.88,46.2,46.2,0,0,1-1.72-8.22,34.68,34.68,0,0,1-.44-4.07c0-.18,0-.37,0-.56,0-.34.1-.69.12-1,0-.5-.14-1.29.12-1.74l0-.06s0,0,.14,0c.25,0,.53-.07.78-.11.65-.12,1.31-.19,2-.26,1-.1,2-.1,3-.28.53-.09,1.07,0,1.61-.07s1.15-.24,1.73-.29,1.15,0,1.73,0,.93-.16,1.4-.25c1.21-.21,2.49-.19,3.72-.34,2.38-.28,4.77-.43,7.16-.68,1.11-.12,2.23-.06,3.35-.09a4.21,4.21,0,0,0,.94,0h.15a.19.19,0,0,0,0,.07,5.56,5.56,0,0,0,0,.9c0,.34,0,.69,0,1a10.48,10.48,0,0,0,.17,3.26c.33,1.22.67,2.45,1.06,3.65a30.16,30.16,0,0,0,1.2,3.16c.22.49.43,1,.68,1.49s.54.76.75,1.18c.12.24.25.47.38.71a1,1,0,0,0,.35.64c.27.49.55,1,.83,1.47.58,1,1.32,1.89,1.93,2.86s1.05,1.68,1.62,2.49a28.6,28.6,0,0,1,2,2.67C157.73,105.2,158.23,105.94,158.18,106.32Z"/><path d="M111.15,55.08a15.61,15.61,0,0,0,3.39.51c1.43.06,2.87,0,4.29,0a20.85,20.85,0,0,1,4.11.1,19,19,0,0,0,3.7.08,5.76,5.76,0,0,0,2.86-.29c1.85-1,.78-3.79,0-5.17-.5-1-1.14-1.73-1.7-2.63a3.35,3.35,0,0,0-2.06-1.75,18.14,18.14,0,0,0-3.83-.08c-.72,0-1.44-.09-2.17,0-1.66.11-3.34.13-5,.35a3.58,3.58,0,0,0-2.31,1.22,8.66,8.66,0,0,0-1.86,2c-.63,1.18-1.85,2.88-1.45,4.3C109.42,54.58,110.35,54.88,111.15,55.08Zm-.68-3.43c.19-.4.52-.75.68-1.17a4.12,4.12,0,0,1,.49-1.07,4.64,4.64,0,0,1,2.71-2.07c1.19-.28,2.38-.07,3.55-.29a19.53,19.53,0,0,1,3.51-.17l.91,0c.41,0,.83,0,1.25,0,1,0,2.09-.16,2.82.56.56.56.9,1.36,1.41,2,.77.94,2.81,4.56,1,5.31a7.75,7.75,0,0,1-2.59.06,14.76,14.76,0,0,1-3.12-.07,11.57,11.57,0,0,0-2.63-.09h-3.67a17.83,17.83,0,0,1-6-.61C109.71,53.58,110.07,52.51,110.47,51.65Z"/><path d="M92.05,59.38a3.29,3.29,0,0,0,1.55.27c.81,0,1.53.29,2.32.34,1.39.07,2.73.35,4.14.35a2.27,2.27,0,0,0,2.26-1.17,4.24,4.24,0,0,0,.14-3.28,2.38,2.38,0,0,0-2.08-1.55,11.23,11.23,0,0,0-2.09,0H98a20.74,20.74,0,0,0-2.23,0,8.49,8.49,0,0,0-3.17.44,2.11,2.11,0,0,0-1.3,1.85C91.19,57.59,91,58.84,92.05,59.38Zm0-2.67a1.29,1.29,0,0,1,1-1.24,14.54,14.54,0,0,1,3.09-.32,6.32,6.32,0,0,1,.87,0c1.74.19,4.25-.52,4.63,1.5a3,3,0,0,1-.14,2.07c-.38.66-.78.71-1.46.71a11.91,11.91,0,0,1-1.89-.08,15.75,15.75,0,0,0-1.65-.27,19.9,19.9,0,0,1-2-.3,8.77,8.77,0,0,1-1.92-.09C91.92,58.41,92,57.33,92.08,56.71Z"/><path d="M140.64,60.73c1.5,0,2.94.18,4.43.15.85,0,1.7,0,2.55,0a6.72,6.72,0,0,0,2.24-.18,2.57,2.57,0,0,0,1.54-2.51,4.36,4.36,0,0,0-.24-2.12,1.56,1.56,0,0,0-1.19-.7,7.3,7.3,0,0,0-1.87-.12,14,14,0,0,0-2.23-.2,12.09,12.09,0,0,1-2.69,0,16.51,16.51,0,0,0-2.63-.07c-1.15,0-2.21.15-2.72,1.27a3.86,3.86,0,0,0,.11,3.5A3.15,3.15,0,0,0,140.64,60.73ZM138.48,57c.16-.53.33-.87.87-.94a18.11,18.11,0,0,1,2-.18,15.64,15.64,0,0,1,2.37.15,5.42,5.42,0,0,0,1.51-.06,4.34,4.34,0,0,0,.63-.06,9.87,9.87,0,0,1,1.08,0,4.86,4.86,0,0,0,1,.08l.72,0a2.7,2.7,0,0,1,1.55.34c.63.47.44,2.28.08,2.94a1.62,1.62,0,0,1-1.52.67l-2.23,0c-.67,0-1.35,0-2,0a13,13,0,0,1-2-.19c-1-.1-2,.13-2.92-.06C138.35,59.4,138.16,58.05,138.48,57Z"/><path d="M120.8,47.83a5.09,5.09,0,0,0-1.31.58,14.13,14.13,0,0,0-2.42,1.23c-.28.15-.57.29-.85.45-1.23.7-2.7,1.26-3.62,2.39-.12.14-.06.4.16.38a4,4,0,0,0,1.71-.68l2.41-1.32c.87-.48,1.78-.9,2.66-1.35.64-.32,1.42-.56,1.7-1.25C121.34,48,121,47.77,120.8,47.83Z"/><path d="M123.83,48.7c-.67-.05-1.33.54-1.89.88l-1.68,1h0c-.51.26-1,.57-1.51.88a13.42,13.42,0,0,0-2.81,1.82c-.2.19,0,.44.24.41a6.62,6.62,0,0,0,1.77-.73c.79-.37,1.54-.86,2.29-1.3s1.39-.81,2.08-1.23a5.33,5.33,0,0,0,1.82-1.27A.35.35,0,0,0,123.83,48.7Z"/><path d="M100.25,88.53a1.72,1.72,0,0,0-1.13-1.11,1.34,1.34,0,0,0-1.24.35,2,2,0,0,0-1.15,1,2.22,2.22,0,0,0,2.65,3C100.8,91.2,100.79,89.79,100.25,88.53Zm-.55.94a1.2,1.2,0,0,1-.09.94,1.15,1.15,0,0,1-1.51.32,1.24,1.24,0,0,1-.65-.82v-.12s0-.07,0-.1,0,0,0,0a2,2,0,0,1,1.06-1.14h0a1.25,1.25,0,0,1,1,.65h0A2.54,2.54,0,0,1,99.7,89.47Z"/><path id="MaLune" class="cls-25" d="M141.82,90.78a2.59,2.59,0,0,1-2.09.48,3.61,3.61,0,0,1-1.44-.4,1.73,1.73,0,0,1-.87-1.17,2,2,0,0,1,.08-.8,3.79,3.79,0,0,1,1.9-2.35,5.48,5.48,0,0,0-.68,1.79,1.81,1.81,0,0,0,.61,1.7,2.63,2.63,0,0,0,1.2.4C141,90.49,141.39,90.71,141.82,90.78Z"/><circle class="cls-26" cx="126.13" cy="86.56" r="0.5"/><circle class="cls-26" cx="131.13" cy="87.56" r="0.5"/><circle class="cls-26" cx="130.13" cy="91.56" r="0.5"/><circle class="cls-27" cx="125.13" cy="89.56" r="0.5"/><polyline class="cls-28" points="134.09 99.6 134.21 99.52 134.27 99.49 134.42 99.42 134.61 99.35 134.71 99.33 134.78 99.32 134.96 99.31 135.21 99.36 135.47 99.44 135.7 99.52 136.63 99.82 136.63 100.06 135.63 101.06 134.63 101.06 133.02 100.44 133.01 100.44"/></g><text class="cls-29" transform="translate(20.26 73.28) rotate(-44.86)">M</text><text class="cls-29" transform="matrix(0.81, -0.59, 0.59, 0.81, 32.79, 60.9)">O</text><text class="cls-29" transform="translate(44.53 52.19) rotate(-28.4)">R</text><text class="cls-29" transform="translate(57.47 45.14) rotate(-20.37)">G</text><text class="cls-29" transform="translate(71.08 40.1) rotate(-12.91)">A</text><text class="cls-29" transform="matrix(0.99, -0.12, 0.12, 0.99, 84.39, 37.03)">N</text><text class="cls-29" transform="translate(98.56 35.44) rotate(-3.33)"> </text><text class="cls-29" transform="matrix(1, -0.01, 0.01, 1, 104.95, 34.96)">P</text><text class="cls-29" transform="matrix(1, 0.04, -0.04, 1, 119.37, 34.87)">H</text><text class="cls-29" transform="translate(135.05 35.58) rotate(4.31)">O</text><text class="cls-29" transform="matrix(0.99, 0.11, -0.11, 0.99, 149.87, 36.7)">T</text><text class="cls-29" transform="translate(160.9 37.86) rotate(9.77)">O</text><text class="cls-29" transform="matrix(0.97, 0.26, -0.26, 0.97, 175.5, 40.32)">G</text><text class="cls-29" transform="matrix(0.93, 0.37, -0.37, 0.93, 189.6, 44)">R</text><text class="cls-29" transform="matrix(0.87, 0.5, -0.5, 0.87, 203.48, 49.51)">A</text><text class="cls-29" transform="matrix(0.78, 0.63, -0.63, 0.78, 215.17, 56.14)">P</text><text class="cls-29" transform="translate(226.06 64.64) rotate(49.22)">H</text><text class="cls-29" transform="translate(235.8 75.98) rotate(60.64)">Y</text></g></g></g></svg>